<svg xmlns="http://www.w3.org/2000/svg" width="199.872" height="16.014" viewBox="0 0 199.872 16.014"><g transform="translate(-505.347 -176.095)"><path d="M-50.233-11.221a.453.453,0,0,1,.029.388.486.486,0,0,1-.278.286q-.015,0-.015.022t.015.022l.059.044a1.376,1.376,0,0,1,.571.747,1.573,1.573,0,0,1,.088.527,1.7,1.7,0,0,1-.059.439.454.454,0,0,1-.029.1q-.249.981-.461,1.7a15.092,15.092,0,0,1-.71,1.824,10.754,10.754,0,0,1-1.084,1.912A11.793,11.793,0,0,1-57.03.557a1.726,1.726,0,0,1-.659.132,2.236,2.236,0,0,1-.439-.044A1.913,1.913,0,0,1-59.08.059l-.264-.293a.722.722,0,0,1-.19-.483.963.963,0,0,1,.029-.234.8.8,0,0,1,.542-.557A9.571,9.571,0,0,0-54.3-4.629a8.1,8.1,0,0,0,1.626-3.735.11.11,0,0,0-.022-.1.118.118,0,0,0-.1-.044h-6.46q-.308,0-.674.015h-.044a1.183,1.183,0,0,1-.85-.337A1.13,1.13,0,0,1-61.2-9.7v-.029a1.115,1.115,0,0,1,.381-.85,1.188,1.188,0,0,1,.806-.308h.088q.425.029.674.029h6.621a5.168,5.168,0,0,0,.615-.029.082.082,0,0,0,.081-.044.082.082,0,0,0-.007-.088q-.117-.234-.234-.439a.618.618,0,0,1-.1-.337.663.663,0,0,1,.044-.234.614.614,0,0,1,.381-.41.943.943,0,0,1,.366-.073,1.015,1.015,0,0,1,.293.044.859.859,0,0,1,.5.41Q-50.452-11.646-50.233-11.221Zm.249-.63a.692.692,0,0,1-.1-.352.628.628,0,0,1,.044-.22.616.616,0,0,1,.366-.41.943.943,0,0,1,.366-.073.784.784,0,0,1,.293.059.872.872,0,0,1,.513.4q.176.293.366.615a.692.692,0,0,1,.1.352.663.663,0,0,1-.044.234.758.758,0,0,1-.41.439.805.805,0,0,1-.337.073.784.784,0,0,1-.293-.059.873.873,0,0,1-.483-.41Q-49.808-11.572-49.984-11.851Zm4.712,2.827a1.151,1.151,0,0,1-.439-.82.482.482,0,0,1-.015-.117,1.1,1.1,0,0,1,.308-.762,1.451,1.451,0,0,1,.908-.454h.161a1.363,1.363,0,0,1,.82.278q1.069.82,1.948,1.6a1.169,1.169,0,0,1,.41.908,1.223,1.223,0,0,1-.381.894l-.073.073a1.192,1.192,0,0,1-.894.381,1.265,1.265,0,0,1-.908-.366Q-44.319-8.247-45.272-9.023ZM-43.983.454a1.647,1.647,0,0,1-.425.059,1.578,1.578,0,0,1-.659-.146,1.836,1.836,0,0,1-.85-.718l-.161-.264a.742.742,0,0,1-.146-.439.753.753,0,0,1,.088-.337.8.8,0,0,1,.615-.5A14.541,14.541,0,0,0-41.17-3.516a14.223,14.223,0,0,0,2.937-2.2,14.823,14.823,0,0,0,2.19-2.673.668.668,0,0,1,.615-.352h.015a.625.625,0,0,1,.586.352l.19.337A2.077,2.077,0,0,1-34.359-7a1.867,1.867,0,0,1-.352,1.128,15.415,15.415,0,0,1-2.263,2.512,17.182,17.182,0,0,1-2.893,2.1A15.638,15.638,0,0,1-43.983.454Zm14.7-.542a1.262,1.262,0,0,1-.908.469A.986.986,0,0,1-30.35.4a1.428,1.428,0,0,1-.864-.278l-.1-.059a.878.878,0,0,1-.41-.791,1.049,1.049,0,0,1,.308-.747,7.226,7.226,0,0,0,1.567-2.71,24.1,24.1,0,0,0,.425-5.859v-.322a1.281,1.281,0,0,1,.308-.85,1.013,1.013,0,0,1,.806-.381h.117a1.086,1.086,0,0,1,.85.381,1.281,1.281,0,0,1,.308.85v.293a30.839,30.839,0,0,1-.439,6.489,8.7,8.7,0,0,1-.7,1.86A8.752,8.752,0,0,1-29.28-.088Zm6.226.439a1.486,1.486,0,0,1-.762.205h-.059a1.234,1.234,0,0,1-.762-.278,1.79,1.79,0,0,1-.63-1.45.745.745,0,0,1,.015-.146v-9.038a1.266,1.266,0,0,1,.322-.864,1.027,1.027,0,0,1,.82-.381h.146a1.07,1.07,0,0,1,.835.381,1.266,1.266,0,0,1,.322.864v7.412a.086.086,0,0,0,.044.073.1.1,0,0,0,.088.015,7.783,7.783,0,0,0,2.432-1.86.933.933,0,0,1,.718-.322h.029a.829.829,0,0,1,.718.381,1.463,1.463,0,0,1,.293.894.276.276,0,0,1-.015.088,1.276,1.276,0,0,1-.4.923,17.1,17.1,0,0,1-2.021,1.743A16.342,16.342,0,0,1-23.055.352ZM-7.4-7.456a.237.237,0,0,0-.132.22v5.845l.015.967A1.262,1.262,0,0,1-7.825.41a1.073,1.073,0,0,1-.82.366h-.337A1.086,1.086,0,0,1-9.832.4a1.148,1.148,0,0,1-.337-.82l.029-.967V-5.757a.1.1,0,0,0-.044-.088.073.073,0,0,0-.088,0A28.362,28.362,0,0,1-13.816-4.38a1.71,1.71,0,0,1-.483.073,1.459,1.459,0,0,1-.571-.117,1.6,1.6,0,0,1-.82-.7.9.9,0,0,1-.132-.469.873.873,0,0,1,.088-.366.923.923,0,0,1,.645-.557,20.939,20.939,0,0,0,5.64-2.4,16.682,16.682,0,0,0,3.076-2.461,1.323,1.323,0,0,1,.879-.41.43.43,0,0,1,.1-.015,1.188,1.188,0,0,1,.806.308l.059.059a1.127,1.127,0,0,1,.4.879,1.115,1.115,0,0,1-.381.85A23.06,23.06,0,0,1-7.4-7.456ZM.007-4.219A2.017,2.017,0,0,1-.608-5.7,2.017,2.017,0,0,1,.007-7.178a2.017,2.017,0,0,1,1.479-.615,2.017,2.017,0,0,1,1.479.615A2.017,2.017,0,0,1,3.582-5.7a2.017,2.017,0,0,1-.615,1.479A2.017,2.017,0,0,1,1.487-3.6,2.017,2.017,0,0,1,.007-4.219Zm18.042-7a.453.453,0,0,1,.029.388.486.486,0,0,1-.278.286q-.015,0-.015.022t.015.022l.059.044a1.376,1.376,0,0,1,.571.747,1.573,1.573,0,0,1,.088.527,1.7,1.7,0,0,1-.059.439.454.454,0,0,1-.029.1q-.249.981-.461,1.7a15.092,15.092,0,0,1-.71,1.824,10.754,10.754,0,0,1-1.084,1.912A11.793,11.793,0,0,1,11.253.557a1.726,1.726,0,0,1-.659.132,2.236,2.236,0,0,1-.439-.044A1.913,1.913,0,0,1,9.2.059L8.938-.234a.722.722,0,0,1-.19-.483.963.963,0,0,1,.029-.234.8.8,0,0,1,.542-.557,9.571,9.571,0,0,0,4.658-3.12A8.1,8.1,0,0,0,15.6-8.364a.11.11,0,0,0-.022-.1.118.118,0,0,0-.1-.044H9.026q-.308,0-.674.015H8.308a1.183,1.183,0,0,1-.85-.337A1.13,1.13,0,0,1,7.078-9.7v-.029a1.115,1.115,0,0,1,.381-.85,1.188,1.188,0,0,1,.806-.308h.088q.425.029.674.029h6.621a5.168,5.168,0,0,0,.615-.029.082.082,0,0,0,.081-.044.082.082,0,0,0-.007-.088q-.117-.234-.234-.439a.618.618,0,0,1-.1-.337.663.663,0,0,1,.044-.234.614.614,0,0,1,.381-.41.943.943,0,0,1,.366-.073,1.015,1.015,0,0,1,.293.044.859.859,0,0,1,.5.41Q17.83-11.646,18.05-11.221Zm.249-.63a.692.692,0,0,1-.1-.352.628.628,0,0,1,.044-.22.616.616,0,0,1,.366-.41.943.943,0,0,1,.366-.073.784.784,0,0,1,.293.059.872.872,0,0,1,.513.4q.176.293.366.615a.692.692,0,0,1,.1.352.664.664,0,0,1-.044.234.758.758,0,0,1-.41.439.805.805,0,0,1-.337.073.784.784,0,0,1-.293-.059.873.873,0,0,1-.483-.41Q18.474-11.572,18.3-11.851Zm7.32,4.541a1.174,1.174,0,0,1-.073-.4.969.969,0,0,1,.1-.439.922.922,0,0,1,.615-.557,1.054,1.054,0,0,1,.381-.073,1.191,1.191,0,0,1,.513.117,1.17,1.17,0,0,1,.615.645q.22.586.439,1.187a1.054,1.054,0,0,1,.073.381,1.069,1.069,0,0,1-.117.483,1.06,1.06,0,0,1-.659.586.943.943,0,0,1-.366.073,1.056,1.056,0,0,1-.5-.132,1.065,1.065,0,0,1-.571-.659Q25.852-6.724,25.618-7.31Zm4.57-.088a1.133,1.133,0,0,1,.513-.747.987.987,0,0,1,.557-.176.938.938,0,0,1,.322.059l.146.044a1.257,1.257,0,0,1,.732.63A1.352,1.352,0,0,1,32.591-7a1.689,1.689,0,0,1-.044.381.454.454,0,0,0-.029.1A11.931,11.931,0,0,1,30.5-2.271,11.559,11.559,0,0,1,26.585,1.04a1.709,1.709,0,0,1-.747.176,1.881,1.881,0,0,1-.337-.029,1.849,1.849,0,0,1-.967-.542L24.4.527A.752.752,0,0,1,24.183,0a.743.743,0,0,1,.029-.205.8.8,0,0,1,.513-.586,11.347,11.347,0,0,0,2.117-1.157,7.589,7.589,0,0,0,1.692-1.567A8.8,8.8,0,0,0,30.188-7.4Zm-8.042.981a1.158,1.158,0,0,1-.088-.432,1.158,1.158,0,0,1,.088-.432,1.015,1.015,0,0,1,.615-.586,1.382,1.382,0,0,1,.439-.073,1.194,1.194,0,0,1,.483.1,1.217,1.217,0,0,1,.659.645q.249.6.513,1.289a1.034,1.034,0,0,1,.088.41,1.069,1.069,0,0,1-.117.483,1.105,1.105,0,0,1-.674.615.934.934,0,0,1-.4.088,1.161,1.161,0,0,1-.5-.117,1.234,1.234,0,0,1-.6-.674Q22.4-5.815,22.146-6.416Zm22.422-3.838q.19-.015.366-.015a3.11,3.11,0,0,1,1.626.4,1.093,1.093,0,0,1,.5.674,1.571,1.571,0,0,1,.044.352,1.335,1.335,0,0,1-.1.513q-.059.132-.1.264A15.116,15.116,0,0,1,44.3-3.149,14.181,14.181,0,0,1,39.383.659a1.966,1.966,0,0,1-.806.176A1.721,1.721,0,0,1,38.27.806,1.919,1.919,0,0,1,37.259.322L37.01.1a.71.71,0,0,1-.249-.527A1.068,1.068,0,0,1,36.775-.6a.721.721,0,0,1,.483-.557,12.547,12.547,0,0,0,2.813-1.436,12.176,12.176,0,0,0,2.051-1.846,8.216,8.216,0,0,0,1.208-1.772,8.479,8.479,0,0,0,.74-1.831.11.11,0,0,0-.022-.1.1.1,0,0,0-.081-.044H40.525a.319.319,0,0,0-.249.117,19.33,19.33,0,0,1-2.666,2.7,1.611,1.611,0,0,1-1.011.352,1.719,1.719,0,0,1-1.025-.337.835.835,0,0,1-.352-.7.893.893,0,0,1,.381-.762,15.564,15.564,0,0,0,1.274-1.055A10.035,10.035,0,0,0,37.9-8.972q.439-.549.718-.937t.6-.9q.146-.249.322-.6a1.507,1.507,0,0,1,.718-.718,1.186,1.186,0,0,1,.557-.146,1.213,1.213,0,0,1,.41.073l.234.073a.884.884,0,0,1,.6.6.908.908,0,0,1,.073.352.932.932,0,0,1-.161.513l-.161.293a.082.082,0,0,0-.007.088.082.082,0,0,0,.081.044h2.271Q44.349-10.239,44.568-10.254Zm13.574-.908q.19-.015.366-.015A2.143,2.143,0,0,1,59.8-10.8a.982.982,0,0,1,.381.615,1.777,1.777,0,0,1,.015.22,1.191,1.191,0,0,1-.117.513,2.284,2.284,0,0,0-.161.293A22.684,22.684,0,0,1,57.747-5.3a.134.134,0,0,0,.015.205A36.451,36.451,0,0,1,60.9-1.963a1.158,1.158,0,0,1,.322.806v.117a1.277,1.277,0,0,1-.439.879l-.161.132a1.13,1.13,0,0,1-.762.293A.745.745,0,0,1,59.71.249a1.2,1.2,0,0,1-.82-.454,31.48,31.48,0,0,0-2.725-2.988.128.128,0,0,0-.205,0A20.057,20.057,0,0,1,51.683.19a1.485,1.485,0,0,1-.776.22,1.421,1.421,0,0,1-.278-.029,1.648,1.648,0,0,1-.952-.5l-.117-.132A.819.819,0,0,1,49.31-.82a.743.743,0,0,1,.029-.205.879.879,0,0,1,.513-.645,15.883,15.883,0,0,0,2.739-1.7A15.659,15.659,0,0,0,54.8-5.391a11.7,11.7,0,0,0,1.252-1.655,8.083,8.083,0,0,0,.8-1.6.067.067,0,0,0-.007-.088.1.1,0,0,0-.081-.044H52.24q-.278,0-.645.015a.276.276,0,0,1-.088.015,1.158,1.158,0,0,1-.806-.322,1.13,1.13,0,0,1-.381-.864v-.029a1.086,1.086,0,0,1,.381-.85,1.176,1.176,0,0,1,.82-.322H51.6q.4.015.645.015h5.01Q57.7-11.118,58.143-11.162Z" transform="translate(644 189)"/><g transform="translate(505.347 176.252)"><path d="M13.138,4.69c-.442-1.259-5.154-1.28-5.154-1.28C8.405,1.574,8.419.274,7.918.069c-.6-.241-1.748,1.123-2.93,3.314C2.141,3.52,0,4.133,0,4.867,0,5.477,1.492,6,3.635,6.245,3.6,6.331.068,14.191,2.19,14.191S6.943,6.817,7.107,6.365A21.117,21.117,0,0,0,9.7,6.126c-.388.794-2.621,8.21-.745,8.533S13.749,6.438,13.138,4.69Z" transform="translate(0 -0.041)"/></g><g transform="translate(535.704 177.001)"><path d="M1615.6,39.83c-.756-.167-1.709,1.611-2.124,3.968s-.147,4.4.61,4.563,1.712-1.611,2.126-3.967S1616.353,39.994,1615.6,39.83Z" transform="translate(-1613.278 -39.82)"/></g><g transform="translate(540.139 176.869)"><path d="M1852,32.807c-.866-.13-2.072,3.176-2.687,7.384s-.412,7.721.454,7.848,2.068-3.174,2.687-7.382S1852.865,32.937,1852,32.807Z" transform="translate(-1848.954 -32.804)"/></g><g transform="translate(520.692 182.851)"><path d="M821.365,350.7c-3.24,0-5.865.538-5.865,1.2s2.625,1.2,5.865,1.2,5.865-.534,5.865-1.2S824.608,350.7,821.365,350.7Z" transform="translate(-815.5 -350.7)"/></g><g transform="translate(546.908 177.651)"><path d="M2212.284,74.365c-.768-.158-2.068,2.619-2.911,6.2s-.9,6.616-.128,6.772,2.066-2.623,2.9-6.2S2213.05,74.523,2212.284,74.365Z" transform="translate(-2208.706 -74.359)"/></g><g transform="translate(552.886 177.926)"><path d="M2534.843,96.64c-.348-2.027-4.849,1.376-5.412,1.737a24.95,24.95,0,0,0,.44-3.47c0-3.263-.773-5.907-1.733-5.907s-1.737,2.644-1.737,5.907c0,2.5.459,5.25,1.1,6.108a.016.016,0,0,0,0,.011.608.608,0,0,0,.181.194.676.676,0,0,0,.448.207.168.168,0,0,0,.048-.009C2529.192,101.605,2535.2,98.672,2534.843,96.64Z" transform="translate(-2526.401 -89)"/></g><g transform="translate(569.3 181.007)"><line x2="6.132" y2="6.132" fill="none" stroke="#000" stroke-linecap="round" stroke-width="2"/><line x2="6.132" y2="6.132" transform="translate(6.132 0) rotate(90)" fill="none" stroke="#000" stroke-linecap="round" stroke-width="2"/></g></g></svg>