<svg xmlns="http://www.w3.org/2000/svg" width="11.342" height="11.347" viewBox="0 0 11.342 11.347"><path d="M18.834,14.159v2.765a4.253,4.253,0,0,1-.019.552c.005-.036.01-.07.015-.106a2.108,2.108,0,0,1-.141.515l.04-.1a2.144,2.144,0,0,1-.181.337c-.017.027-.036.052-.054.079-.041.057.025-.025.025-.032s-.029.036-.033.04c-.041.049-.084.1-.128.141s-.091.088-.141.128l-.033.028c-.036.029.082-.061.032-.025-.028.02-.056.041-.085.059a1.962,1.962,0,0,1-.337.181l.1-.04a2.1,2.1,0,0,1-.515.141l.106-.015a6.6,6.6,0,0,1-.845.019h-5.2c-.241,0-.483,0-.723,0a2.078,2.078,0,0,1-.276-.019l.106.015a2.108,2.108,0,0,1-.515-.141l.1.04a2.145,2.145,0,0,1-.337-.181c-.027-.017-.052-.036-.079-.054-.057-.041.025.025.032.025s-.036-.029-.04-.033c-.049-.041-.1-.084-.141-.128s-.088-.091-.128-.141l-.028-.033c-.029-.036.061.082.025.032-.02-.028-.041-.056-.059-.085a1.962,1.962,0,0,1-.181-.337l.04.1a2.1,2.1,0,0,1-.141-.515c.005.036.01.07.015.106a6.6,6.6,0,0,1-.019-.845v-5.2c0-.241,0-.483,0-.723a2.078,2.078,0,0,1,.019-.276c-.005.036-.01.07-.015.106a2.108,2.108,0,0,1,.141-.515l-.04.1a2.144,2.144,0,0,1,.181-.337c.017-.027.036-.052.054-.079.041-.057-.025.025-.025.032s.029-.036.033-.04c.041-.049.084-.1.128-.141s.091-.088.141-.128L9.74,9.4c.036-.029-.082.061-.032.025.028-.02.056-.041.085-.059a1.962,1.962,0,0,1,.337-.181l-.1.04a2.1,2.1,0,0,1,.515-.141l-.106.015a3.683,3.683,0,0,1,.484-.019h2.833a.4.4,0,0,0,0-.8H10.73a2.491,2.491,0,0,0-1.1.261,2.444,2.444,0,0,0-1.332,2.165c0,.186,0,.371,0,.558V17.2a2.425,2.425,0,0,0,2.428,2.426c.206,0,.411,0,.617,0h5.731c.058,0,.118,0,.176,0a2.408,2.408,0,0,0,1.283-.392,2.466,2.466,0,0,0,1.106-2.052V14.162a.4.4,0,0,0-.8,0Z" transform="translate(-8.293 -8.283)" fill="#fff"/><path d="M64.607,9.046h2.945a.4.4,0,1,0,0-.8H64.607a.4.4,0,0,0,0,.8Z" transform="translate(-56.613 -8.25)" fill="#fff"/><path d="M86.687,11.594V8.649a.4.4,0,1,0-.8,0v2.945a.4.4,0,1,0,.8,0Z" transform="translate(-75.349 -8.251)" fill="#fff"/><path d="M47.841,14.209l.527-.527,4.089-4.089c.212-.212.43-.422.638-.638l.01-.01a.4.4,0,0,0-.562-.562l-.527.527-1.255,1.255-1.518,1.518L47.926,13c-.212.212-.43.422-.638.638l-.01.01a.4.4,0,0,0,.562.562Z" transform="translate(-41.883 -8.267)" fill="#fff"/></svg>