<svg xmlns="http://www.w3.org/2000/svg" viewBox="0 0 76.73 76.73" height="290" width="290"><path style="marker:none" color="#000" overflow="visible" fill="none" paint-order="stroke markers fill" d="M0 0h76.73v76.73H0z"/><path d="M17.42 10.6c-.27.34-.9.65-1.32.65-.4 0-1.45-.34-1.86-.6a10 10 0 01-.99-.95l-.74-.78v1.27l.6.16c.73.18.91.3.86.63-.05.25-.41.7-.57.7-.06 0-.3.05-.54.13l-.44.13v.53c0 .38-.04.57-.12.64a.4.4 0 00-.13.27c0 .09-.02.16-.03.16-.02 0-.17.05-.33.12-.27.11-.32.1-.72-.09-.53-.25-.64-.42-.7-1.09l-.04-.5-.43-.17c-.24-.1-.5-.23-.58-.3-.37-.31-.45-.94-.13-1.1.08-.05.3-.1.47-.13.7-.1.83-.16.85-.47l.06-.61c.02-.18.03-.32 0-.32a10 10 0 00-.64.63c-.34.34-.88.84-1.21 1.1l-.8.65c-.25.24-.88.36-1.13.23-.1-.05-.33-.25-.5-.44-.39-.43-.42-.73-.1-1 .13-.1.29-.26.36-.33.16-.16.56-.37.86-.44.11-.03.38-.2.6-.37.37-.32 2.2-2.11 2.2-2.16 0-.02-.5-.03-1.09-.03-.9 0-1.13-.03-1.41-.17-.39-.2-.63-.58-.61-.98.01-.25.05-.29.44-.43.33-.12.7-.15 1.84-.15h1.41l.02-.28.02-1.17c.01-1.15.17-1.55.66-1.7.29-.09.38-.08.7.08.68.33.75.63.52 2.04-.07.44-.11.83-.1.86.03.04.14.05.24.03.1-.02.67-.06 1.26-.09 1.18-.06 1.7.05 2.14.46.32.3.3.78-.04 1.07-.34.28-.4.3-1.87.32-.69.02-1.27.05-1.3.08-.09.09.51.9 1.05 1.42a5.05 5.05 0 002.16 1.32c.77.19.94.26 1.15.46.21.22.21.43 0 .7zm7.98 1.33c-.1.13-.28.2-.56.23-.22.03-.42.08-.44.12-.03.04-.43.07-.89.07-.69 0-.93-.03-1.43-.22-.71-.26-1.02-.58-1.18-1.22a1.88 1.88 0 01.45-1.85c.24-.23.29-.43.1-.43-.18 0-.32-.22-.4-.6-.04-.29 0-.46.23-1.02.16-.38.29-.73.29-.8 0-.05-.13-.13-.28-.16a2.6 2.6 0 01-.69-.15c-.25-.48-.3-.67-.2-.86.1-.24.59-.4 1.25-.4.33 0 .43-.02.43-.12 0-.21.3-.74.56-.99.3-.28.68-.44.75-.31.03.04.13.07.23.06.23-.04.35.39.3 1.04l-.05.48.43.1c.54.14.82.4.82.78 0 .16-.05.35-.11.43-.15.2-.92.35-1.43.29-.3-.04-.4-.02-.4.06 0 .07-.12.38-.26.69-.25.56-.29.82-.07.47.06-.1.14-.18.18-.18.04 0 .2-.09.34-.2a2.3 2.3 0 011.5-.26c.32.07.55.38.47.67-.03.15-.22.3-.64.54l-.58.32.25.2c.43.35.5.43.5.6 0 .27-.16.5-.33.5-.09 0-.18.06-.2.13-.03.06-.2.14-.36.18-.25.04-.4 0-.78-.18-.46-.24-.47-.24-.59-.08-.17.24-.23.55-.13.7.07.12.25.14 1.24.11l1.16-.02.33.32c.38.36.43.65.19.96zm6.86-3.63c-.25 0-.68.2-.9.38-.2.18-.45.98-.35 1.14.06.09.3.1.5.03.2-.08.56-.6.73-1.04.2-.5.2-.52.02-.51zM37.9 10c-.34.43-1.02.46-1.32.06-.08-.11-.12-.08-.27.24-.18.41-.53.93-.87 1.3-.2.2-.29.23-.73.23-.43 0-.52-.02-.73-.24-.36-.37-.34-.8.07-1.36.39-.53.84-1.36.77-1.43a2.97 2.97 0 00-.84-.3c-.1 0-.18.1-.28.37a11.07 11.07 0 01-.99 2.22c-.23.45-.82.7-1.66.7-.52 0-.7-.04-1-.2-.4-.23-.8-.79-.93-1.3-.2-.75.17-1.82.89-2.56.52-.54 1.09-.8 1.98-.91l.75-.1v-.4c0-.37-.02-.41-.22-.46a3.06 3.06 0 00-.75 0c-.33.03-.61.02-.74-.04-.24-.1-.57-.65-.57-.9 0-.26.16-.35.84-.5a2.5 2.5 0 011.2-.04c.33.05.7.15.84.22.55.28.9 1.13.8 1.9-.05.38-.04.42.1.42.1 0 .35.07.57.14.22.08.42.12.44.1a.93.93 0 00.07-.33c.1-1.1.37-1.51.97-1.51a.8.8 0 01.62.24c.26.24.28.28.28.83 0 .32-.06.85-.12 1.18l-.12.61.56.56c.63.62.7.87.4 1.26zm10.46-1.34c-.1.8-.8 1.99-1.56 2.63-.5.42-1.05.62-1.68.63-.9 0-1.33-.4-1.33-1.21 0-.27.04-.3.87-.58.83-.29 1.01-.4 1.21-.81.22-.45.16-1.48-.1-1.67-.32-.24-1.33-.32-2.63-.2-.47.04-.7.11-.97.3-.3.2-.45.23-.93.23-.72 0-.97-.2-1.03-.84-.04-.43-.03-.43.32-.66.66-.43 2.5-.83 3.9-.84.92-.01 1.56.1 2.2.4.15.07.3.12.35.12.2 0 .9.74 1.12 1.18.29.58.33.78.26 1.32zm6.33 1.73c-.1.04-.28.16-.4.26-.38.37-1.18.4-1.68.04-.42-.3-.84-1.56-.92-2.82-.06-.8.1-2.42.24-2.6.2-.26 1.4-.2 1.57.07.03.06.07.48.08.95.01.9.1 1.46.38 2.73.09.42.12.47.5.66.33.17.42.25.42.42 0 .14-.07.24-.2.29zm6.26-2.98c-.06.05-.27.14-.48.19-.34.1-.54.08-1.2-.05l-.22-.04-.06.98a9.9 9.9 0 01-.18 1.42c-.07.24-.12.55-.12.7 0 .22-.07.5-.28 1.07-.04.12-.3.4-.58.62-.45.35-.54.4-.8.35-.36-.05-.58-.23-.76-.59-.16-.33-.16-.36.08-.86.5-1.02.73-2.04.76-3.31l.01-.5-.44-.05c-.68-.09-.96-.3-1.1-.82l-.13-.45.3-.29c.29-.28.34-.3.87-.3h.56l-.03-.66c-.03-.6-.01-.68.19-.92.34-.4.53-.47.86-.33.5.2.73.61.8 1.4.05.65.06.69.27.74.86.19 1.32.42 1.57.8.23.35.28.76.11.9zm6.8 3.13c-.2-.12-.4-.23-.47-.23-.2 0-.51.17-.62.35-.1.15-.09.2.04.28.27.2.84.23 1.13.07.14-.08.25-.17.25-.2 0-.01-.15-.14-.34-.27zm2.61-.36c-.08.36-.38.9-.5.9-.04 0-.18.15-.3.35-.47.74-.98.99-2.2 1.06-.7.04-.82.02-1.19-.16-.9-.44-1.39-1.19-1.27-1.93.07-.46.35-.96.62-1.12.6-.35 1.61-.5 2.2-.33.38.1.4.02.06-.22-.25-.17-.4-.2-.98-.2-.38 0-.94.07-1.25.14-.54.14-.55.14-.9-.05-.4-.21-.63-.58-.63-1.04 0-.32.16-.49 1.19-1.3.3-.24.65-.55.79-.7l.23-.24-.5-.1c-.56-.1-.96-.4-1.11-.8-.14-.37-.11-.56.08-.56.1 0 .17-.04.17-.08 0-.17.92-.26 2.16-.23 1.57.04 1.8.1 2.19.63.36.5.43.87.17.98-.1.04-.26.2-.36.34-.2.29-.54.65-1.1 1.14l-.37.32.53.06c.85.09 1.75.68 2.08 1.37.1.23.3 1.14.28 1.35 0 .05-.05.23-.09.42z"/><path d="M48.8 73.22a7.65 7.65 0 01-.13-1.4l-.13-2.1a72.45 72.45 0 01-.23-6l.01-1 .11-.15a5.99 5.99 0 011.03-1.28l1.27-1.4a142.2 142.2 0 015.18-5.36c.05.04.08 7.24.05 9.52l-.04 2.45-.26.29c-.51.57-2.13 2.15-3.08 3.02-1.31 1.17-3.66 3.36-3.69 3.43-.02.07-.08.06-.1-.02zM36.15 61.41c.04-.04.05-.19.05-.5 0-.5-.05-.67-.31-.97a2.73 2.73 0 00-.85-.58 4.37 4.37 0 00-.69-.04c-.68 0-1.54-.05-1.57-.08a4.88 4.88 0 010-.67l.03-.65 1 .03c2.29.06 3.46.2 4.46.55.44.15.66.16 1.41.07.87-.1 1.77-.06 2.17.11.23.1.76.15 1.47.16h.65l.24-.13c.13-.07.33-.21.45-.32.4-.35 1.36-1.7 1.66-2.32.27-.55.31-.93.18-1.46-.2-.77-.56-1.17-1.26-1.41-.5-.17-1-.23-2.46-.27l-1.55-.06-.16-.02v-.8l.16.08c.15.08.22.09.63.09.25 0 .59-.03.74-.05.62-.1 1.55-.13 5.72-.16 2.4-.02 4.95-.05 5.69-.08 1.24-.05 1.33-.05 1.43.02.15.1.19.23.12.4-.12.28-.47.66-2.46 2.72a90.4 90.4 0 00-3.43 3.63 120.37 120.37 0 01-2.21 2.44l-.18.19-2.75.01c-1.51 0-3.64.04-4.73.07-1.1.04-2.37.06-2.84.07-.8 0-.86 0-.81-.07zM16.36 61.59l-2.74-.03h-.38l.19-.23.5-.66c.17-.25.45-.6.62-.8A181.66 181.66 0 0117 56.79c.6-.75 1.34-1.71 1.64-2.13.57-.81 1.4-1.9 1.52-1.98.04-.03.22-.06.39-.07.3-.02.3-.02.3.06 0 .39.1 2.47.13 2.85.1 1.35.7 1.94 2.23 2.25.79.16 1.3.19 2.44.14a28.8 28.8 0 012.84-.06l.53.03-.01.76c-.01.5-.03.78-.06.8-.02.03-.4.07-.92.1l-1.04.08c-.14.02-.55.17-.74.26-.21.1-.5.72-.44.96l.11.28c.05.1.1.27.12.36l.02.16H22.4l-6.04-.04z" style="marker:none" color="#000" overflow="visible" fill="#fffef2" stroke="#fffef2" stroke-width="1.07" stroke-linecap="round" stroke-linejoin="round" paint-order="stroke markers fill"/><path d="M27.55 61.63c-.1-.15-.09-.61.01-.8.17-.33.83-.52 1.85-.52.41 0 .69-.03.78-.06l.15-.05-.02-.24-.04-.99-.05-.89-.02-.14h1.34l-.02.65c-.01.58 0 .68.07.92.06.19.11.3.2.37.06.05.13.1.15.1.02 0 .12.07.23.17.24.2.32.21.76.09.54-.15 1.26-.1 1.61.12.07.04.15.14.2.21.06.13.06.14-.02.24-.04.06-.2.17-.36.25a5.6 5.6 0 01-2.04.45c-.78.07-4.76.17-4.78.12zM35.74 56.93l-7-.07c-2.82-.02-5.24-.06-5.38-.08-.6-.08-.66-.25-.72-1.94-.1-2.6-.12-3.07-.18-3.97-.1-1.61-.03-5 .11-5.44.04-.1.09-.16.24-.23.18-.1.22-.1.87-.1.78.01 2 .07 3.52.18 1.74.12 2.36.14 5.92.2 3.43.07 5.66.13 5.83.17.2.04.23.06.27.18.14.45.2 1.9.2 4.87 0 3.45-.07 5.7-.2 6a.31.31 0 01-.14.15c-.2.1-.98.12-3.34.08zM35.09 73.61c-.89-.02-2.65-.1-3.08-.13l-1.37-.11a154.5 154.5 0 00-13.44-.27c-2.24.02-4.08.04-4.09.03l-.13-.96a34.8 34.8 0 01-.08-1.7c-.02-.75-.06-1.7-.1-2.11a32.82 32.82 0 01-.05-3.6c.04-.9.08-1.46.13-1.5a95.1 95.1 0 012.66-.05c2.55-.04 2.91-.05 3-.12.02-.02 1.62-.02 3.54 0 5.55.07 13.85 0 20.21-.15.85-.02 2.2-.03 3.01-.02l1.47.03v1.3c0 1.55.05 3.3.15 5.2.08 1.63.18 4.06.15 4.08-.07.07-10 .13-11.98.08zM42.9 57.53l-.17-.06.3-.41.38-.59c.28-.5.33-.53.96-.57l.46-.03c0 .01-.14.25-.34.54-.39.59-.74 1-.96 1.1a.83.83 0 01-.64.02zM41.03 57.5c-.21-.04-.25-.06-.24-.12.02-.1.17-.36.45-.77.14-.2.28-.42.32-.5.08-.15.1-.17.27-.19.16-.02.55 0 .55.04l-.3.47-.48.75c-.1.16-.2.3-.25.32a.76.76 0 01-.32 0zM42.32 55c-.02-.04.04-.18.16-.36.1-.17.22-.36.24-.43.12-.3.16-.32.6-.32.22 0 .4.02.4.03 0 .09-.65.96-.75 1.02a1.2 1.2 0 01-.37.1c-.22.02-.26.01-.28-.04zM44.38 54.99l.21-.47c.23-.46.34-.58.48-.51.08.04.1.15.13.72l.02.28h-.42c-.23 0-.42-.01-.42-.02zM41.07 54.32c0-.33.03-.4.2-.44.14-.03.23.03.2.12-.03.08-.36.59-.38.59-.01 0-.02-.12-.02-.27z" style="marker:none" color="#000" overflow="visible" fill="#fffef2" stroke="#fffef2" stroke-width="1.07" stroke-linecap="round" stroke-linejoin="round" paint-order="stroke markers fill"/><path d="M41.17 49.52c-.03-1.93-.1-3.35-.16-3.66-.1-.54-.28-.8-.7-1.03-.5-.29-.98-.34-4.03-.42-2.07-.06-2.88-.1-2.93-.15a95.3 95.3 0 01-.01-8.23l.04-.14h2.12c2.37 0 4.85-.05 7.76-.14 1.77-.06 3.86-.07 3.9-.02a108.94 108.94 0 01.26 8.25v1.88l-.43-.02a3.1 3.1 0 01-1.16-.24c-.29-.13-.33-.19-.23-.3.27-.29.22-1.1-.09-1.57-.1-.16-.35-.34-.65-.48-.25-.12-.58-.13-1.01-.03-.57.11-.84.3-1.03.72-.13.27-.15.45-.1.83.1.67.27 1.02.6 1.2.26.14.45.19 1 .22.37.03.52.06.71.14.8.34 1.34.47 2.01.51l.46.02V50.55h-.96a70.4 70.4 0 00-5.12.19h-.23zm-.09-6.5c.5-.16.84-.45 1.02-.85.1-.23.13-.52.05-.66-.18-.34-.87-.2-1.24.23-.35.42-.48.53-.59.53-.27 0-.6-.29-.81-.7-.19-.37-.28-.45-.5-.45-.1 0-.26.03-.38.08-.25.1-.28.16-.22.48.22 1.09 1.51 1.74 2.67 1.34zm3.21-2.1a.78.78 0 00.21-.14c.1-.1.11-.1.1-.6 0-.66-.04-.97-.15-1.09-.33-.35-.78-.24-.94.23-.1.28-.07 1.1.04 1.32.13.25.48.38.74.28zm-7.96-.05c.31-.16.41-.47.38-1.13-.03-.48-.1-.8-.2-.9-.3-.26-.89.05-1.03.54-.1.3-.12.65-.07.85.05.19.26.43.5.59.2.12.27.13.42.05zm4.26-.48a.42.42 0 00.25-.36.7.7 0 00-.11-.27c-.16-.25-.45-.38-.8-.38-.47 0-.71.17-.6.4.08.19.41.54.56.61.17.08.47.08.7 0zM49.06 50.4c-.1-.68-.16-3.95-.07-4.06l.25-.16c.24-.12.78-.57.94-.8.27-.36.1-.76-.34-.76-.26 0-.48.1-.72.3l-.22.17-.03-1.32c-.1-5.1-.12-5.59-.26-6.54l-.11-.77-.08-.8-.03-.56.25-.27c.15-.15.42-.45.6-.66.45-.5.77-.82.8-.82.04 0 .19.65.27 1.2.1.7.2 1.92.42 5.3.1 1.6.24 3.42.29 4.06.15 1.89.26 3.8.31 5.7l.03.94h-2.28z" style="marker:none" color="#000" overflow="visible" fill="#f57a74" stroke="#f57a74" stroke-width=".16" stroke-linecap="round" stroke-linejoin="round" paint-order="stroke markers fill"/><path d="M33.78 34.58c-.05-.02 0-.1.36-.49l1.13-1.17.7-.72.79.1c.6.06.94.08 1.4.07h.6l.03.25c.1.61.49 1.07.92 1.07.17 0 .43-.1.49-.2.03-.07.04-.5.05-1.7 0-2.24.07-3.58.19-3.86.06-.15.18-.2.44-.2h.18l-.02.28a4 4 0 00.03.66l.04.37-.1.12c-.1.1-.1.15-.09.36.02.3.14.46.43.63.42.24.99.24 1.47 0 .31-.15.5-.36.58-.63.06-.2.06-.23 0-.4a4.35 4.35 0 01-.13-1.14l.01-.23h.14c.23 0 .24.08.25 1.75 0 .8-.01 1.9-.03 2.45l-.04 1.01.11.15c.07.07.2.2.3.26.17.1.22.11.5.11.42 0 .45-.04.49-.57.01-.21.04-.44.05-.5l.03-.1H47c1.05 0 1.95.02 2 .03.09.02.02.1-.8.94l-.9.91h-1.21a114.5 114.5 0 00-6.26.2l-1.7.05c-1.27.03-2.92.1-3.63.14-.67.04-.61.04-.7 0z" style="marker:none" color="#000" overflow="visible" fill="#fffef2" stroke="#fffef2" stroke-width="1.07" stroke-linecap="round" stroke-linejoin="round" paint-order="stroke markers fill"/><path d="M41.65 25.37c-.01-.27-.09-.85-.13-.98-.07-.2-.03-.27.16-.3l.13-.03-.02.23-.05.66c-.02.24-.04.44-.06.45-.02.01-.03 0-.03-.03zM43.61 26.1l.2-.4.37-.66.15-.27.19.19.19.2-.43.4c-.36.36-.67.6-.67.53zM42.02 28.66c-.03-.05.08-.76.13-.86.02-.04.08-.07.14-.07h.1l-.03.32c0 .17-.04.37-.06.44-.06.16-.23.26-.28.17z" style="marker:none" color="#000" overflow="visible" fill="#f57a74" stroke="#f57a74" stroke-width=".16" stroke-linecap="round" stroke-linejoin="round" paint-order="stroke markers fill"/><path d="M60.83 31.82c-1.2-.08-2.54-.37-3.65-.78-.6-.22-.96-.4-1.31-.7a8.1 8.1 0 01-1.26-1.23 2.15 2.15 0 00-.2-.31 5.28 5.28 0 01-.84-1.82 8.24 8.24 0 01-.09-2.92c.09-.54.1-.56.95-1.97.5-.82.92-1.28 1.76-1.9.54-.4 1.51-.9 2.11-1.08.94-.3 2.46-.48 3.65-.44 1.46.05 2.26.25 3.5.85a6.12 6.12 0 012.72 2.43 6.12 6.12 0 01.9 4.21 8.15 8.15 0 01-1.35 3.39 3 3 0 01-.94.83l-.36.23a.64.64 0 01-.25.12.4.4 0 00-.21.11c-.08.1-.34.2-.65.23-.11.01-.43.1-.7.2-.66.22-1.41.42-1.9.49-.5.07-1.3.1-1.88.06zM55.47 34.8c-.43-.17-.45-.19-.38-.42a.53.53 0 01.73-.34c.16.07.41.33.41.43a.9.9 0 01-.2.38c-.1.12-.18.11-.56-.04z" style="marker:none" color="#000" overflow="visible" fill="#fffef2" stroke="#fffef2" stroke-width="1.07" stroke-linecap="round" stroke-linejoin="round" paint-order="stroke markers fill"/><path d="M59.87 27.98c-.41-.14-1.39-.4-1.78-.47l-.24-.05v-.25a144.51 144.51 0 01.2-4.25v-.13l.3.03c.71.07 1.41.36 1.85.76l.24.21-.03 1.14a60.18 60.18 0 01-.14 3.14c-.01 0-.19-.05-.4-.13zM61.86 27.3c.05-1.24.27-3.09.41-3.36.1-.2.26-.3.99-.61 1.08-.48 1.8-.72 1.88-.63.05.05.05 1.61 0 3.31l-.03 1.18-.6.05a5.86 5.86 0 00-2.65.73v-.66z" style="marker:none" color="#000" overflow="visible" fill="#f57a74" stroke="#f57a74" stroke-width=".16" stroke-linecap="round" stroke-linejoin="round" paint-order="stroke markers fill"/><path d="M60.17 23.56a3.19 3.19 0 00-1.7-.7l-.43-.05-.06 1-.11 2.34-.05 1.33.33.06c.4.07 1.3.31 1.79.48l.36.13v-.23l.07-1.2c.03-.53.06-1.4.07-1.92l.02-.95zm5-.87c-.05-.12-.8.12-1.91.61-1.1.49-1.04.4-1.2 1.59-.17 1.18-.3 3.1-.2 3.1a5.7 5.7 0 012.49-.74l.77-.04.01-.85c0-.47.04-1.15.07-1.5.05-.62.03-1.98-.04-2.17zm1.55 1.58c-.04 1-.08 2.24-.08 2.75 0 .9-.02.94-.22 1.1-.2.13-.27.14-.93.05-1-.15-1.74-.01-2.57.45a49.79 49.79 0 01-1.3.7c-.15.1-.5.1-.73-.01-.12-.06-.26-.09-.31-.07-.06.02-.21-.02-.34-.08-.96-.49-2.25-.74-2.79-.54-.14.05-.25 0-.53-.27-.2-.19-.35-.37-.35-.4 0-.04-.06-.14-.14-.22-.13-.15-.14-.31-.04-2.04.16-2.84.29-3.57.67-3.78.19-.1 1.18-.03 1.88.13.78.19 1.82.6 2.11.85l.25.2.45-.25c.72-.4 2.1-.9 2.94-1.07.73-.14.78-.14 1.37.01.48.13.62.2.68.36.04.1.07.22.06.25l-.08 1.88zm2.32-.21a6.53 6.53 0 00-2.72-4.09c-.2-.18-1.2-.66-1.86-.9a10.33 10.33 0 00-4.62-.3c-1.44.2-1.9.37-3.17 1.07-.43.25-1.22.88-1.58 1.27a7.8 7.8 0 00-.8 1.16 25 25 0 01-.6 1.02c-.22.34-.33 1.18-.3 2.38 0 .6.05.9.2 1.48.16.59.54 1.38.83 1.7.09.1.16.2.16.25a8.1 8.1 0 001.77 1.62c1.92.92 4.74 1.36 6.55 1.04.57-.1 1.8-.46 2.03-.6a1 1 0 01.4-.08c.27 0 .68-.15.68-.26 0-.04.07-.07.16-.07.1 0 .19-.04.22-.1.03-.04.24-.17.47-.29.22-.11.51-.34.65-.51.13-.17.3-.39.39-.48.25-.27.79-1.52.99-2.32.34-1.35.36-1.86.15-3zm1.56 2.45c-.06.35-.15.71-.19.8-.72 1.81-1.24 2.73-1.8 3.2a15 15 0 01-3.21 1.82c-.08.01-.31.08-.51.15-1.89.7-4.1.77-6.38.22-1.92-.47-2.68-.86-3.8-1.94a6.83 6.83 0 01-1.34-1.74c-.8-1.07-1.15-3.48-.78-5.34a7.85 7.85 0 011.83-3.5c1.74-1.84 4.1-2.64 7.49-2.54a9.71 9.71 0 015.32 1.65 8.55 8.55 0 013.18 4.05c.16.36.34 1.44.33 1.98-.01.3-.07.84-.14 1.2z"/><path d="M43.62 45.16a1.53 1.53 0 01-.06-.48c0-.35.01-.39.17-.54.2-.19.26-.2.45-.07.2.14.22.19.22.48 0 .3-.11.57-.28.66-.18.1-.44.07-.5-.05z" style="marker:none" color="#000" overflow="visible" fill="#fffef2" stroke="#fffef2" stroke-width="1.07" stroke-linecap="round" stroke-linejoin="round" paint-order="stroke markers fill"/><path d="M42.16 23.4a2.8 2.8 0 00-1.67.48c-.28.2-.28.21-.23.66a7 7 0 00.4 1.31c.18.47.33.88.33.93 0 .04-.4.07-.89.07-.72 0-.89.03-.89.13 0 .06-.06.15-.13.19-.1.05-.14.36-.2 1.3-.05.67-.09 1.5-.09 1.83v.62l-.28.01c-.15.01-.82.03-1.5.03-1.03 0-1.26.02-1.44.15a.8.8 0 01-.33.14c-.14 0-.98.8-2.04 1.91-1.25 1.33-1.14 1.12-1.32 2.55-.14 1.06-.16 1.8-.15 4.65 0 2.2.04 3.5.1 3.71l.1.33-2.18-.05c-5.96-.16-6.5-.16-7.1-.06-.97.17-1.32.55-1.47 1.6a51.6 51.6 0 00-.24 4.41.63.63 0 01-.15-.12c-.35-.34-.57-.14-2.52 2.25l-1.58 2.07a301.2 301.2 0 01-2.13 2.79c-2.91 3.73-3.28 4.28-3.04 4.56.07.08.06.3-.03.83-.25 1.49-.4 2.68-.4 3.5-.03 1.4.1 5.16.23 6.53.12 1.43.25 1.86.62 1.96.12.03 1.17.05 2.34.03 8.4-.1 16.51.1 17.95.44.3.07 2.4.1 7.91.1 4.13 0 7.6.03 7.72.07.52.16 1.48-.5 3.54-2.44l1.06-.97a172.56 172.56 0 004.67-4.33c.2-.17.37-.4.4-.51.02-.11.14-.55.27-.96.14-.5.24-1.1.29-1.74.1-1.46.1-3.62 0-4.2-.05-.27-.1-1.09-.13-1.81-.02-.72-.08-1.8-.13-2.37a5.35 5.35 0 01.03-1.65c.13-.67.06-1.24-.3-2.41-.14-.5-.24-.66-.42-.76-.13-.08-.23-.16-.23-.2 0-.03-.16-.17-.36-.3l-.36-.23h-3.13v-.46a105.9 105.9 0 00-.39-6.6l-.16-2.25c-.05-.56-.15-1.95-.21-3.1-.15-2.41-.28-3.63-.44-4.1-.06-.18-.17-.64-.24-1.01l-.26-1.38c-.03-.1-.2-.3-.4-.42l-.36-.24h-2.75l-2.75-.01v-.3c.14-3.1.1-3.38-.46-3.54a2.43 2.43 0 00-.48-.08c-.11 0-.05-.07.22-.23a4.2 4.2 0 001.23-1.14l.22-.31-.3-.46c-.35-.55-.94-1.08-1.21-1.08-.32 0-.61.25-.9.73-.13.25-.27.47-.3.5-.04.01-.07-.16-.08-.4-.02-.72-.08-.89-.42-1.04-.12-.07-.28-.1-.46-.11zm-.43.66c.06 0 .1.03.1.06-.02.04-.05.4-.07.83-.04.6-.06.7-.11.47a3.21 3.21 0 01-.07-.57c0-.16-.04-.37-.09-.47-.1-.18 0-.32.24-.32zm2.59.67l.2.19.2.2c0 .09-.73.8-.94.92l-.28.16.18-.29c.1-.16.28-.49.4-.73zm-3.25 2.96v.5c-.02.26 0 .57.04.68.05.14.03.23-.08.3-.1.07-.13.2-.1.4.03.4.54.75 1.12.75.6 0 1.15-.3 1.3-.7.1-.24.1-.36.03-.5a3 3 0 01-.12-.8c-.03-.59-.02-.62.15-.62.15 0 .2.06.24.3.06.28.05 1.92.01 2.58.09.8-.05 1.46-.02 2.4.22.37.73.62 1.11.48.19-.07.22-.14.22-.45 0-.2.03-.44.05-.55l.05-.19h2.03c1.1 0 2.01.03 2 .06 0 .04-.4.48-.9.98l-.9.9h-1.96c-1.07 0-3.03.07-4.36.14a84 84 0 01-2.62.11c-.3-.02-3.41.1-4.08.15-.37.03-.57.01-.57-.05 0-.05.5-.6 1.12-1.23l1.12-1.15.98.12c.53.06 1.17.1 1.4.08l.44-.04.06.39c.1.67.69 1.1 1.18.88.2-.09.22-.14.22-.67v-.58h.02v-1.44h-.04l.05-1.3c.03-.7.08-1.42.12-1.58.06-.27.1-.3.38-.32zm1.2 0c.09 0 .15.06.15.11l-.05.45c-.04.32-.13.46-.33.46-.06 0-.06-.15 0-.5.06-.41.1-.51.23-.51zm.04 1.7c.06 0 .05.1-.06.28-.1.18-.3.2-.36.02-.03-.08.05-.17.2-.24.1-.05.18-.08.22-.07zm13.53 3.66c-.5 0-.95.24-1.26.66-.48.67-.3 1.54.45 2.08.28.2.45.25.92.28.54.03.57.02.57-.15 0-.12.18-.31.51-.57.48-.37.51-.42.5-.74 0-.2-.09-.55-.2-.8-.24-.5-.52-.68-1.27-.75l-.22-.01zm-.24.91c.17 0 .33.08.46.23.24.26.24.25.07.56-.14.27-.22.27-.82.02-.23-.1-.31-.18-.27-.27a.75.75 0 00.05-.2c0-.16.27-.34.51-.34zm-5.55-.67c.03 0 .12.33.2.74.14.74.22 1.66.4 4.3.26 4.04.34 5.15.41 5.88a134.23 134.23 0 01.28 5.27l.03 1.08h-2.32l-.06-.78c-.07-.96-.1-3.09-.06-3.34.02-.1.12-.2.23-.23.11-.03.41-.25.67-.49.36-.33.47-.48.47-.67 0-.48-.66-.57-1.14-.16-.3.27-.3.27-.3.07l-.04-3.11a31.15 31.15 0 00-.3-5.05 8.4 8.4 0 01-.1-1.02l-.05-.7.4-.4.81-.9c.23-.28.44-.5.47-.5zm-4.14 2.38h.53l.75.03.03.5.11 2.13c.05.88.1 2.94.1 4.57l.01 2.96H47c-.25 0-.63-.05-.84-.11-.44-.13-.77-.35-.61-.41.19-.07.3-.67.19-1.06-.14-.51-.31-.73-.76-.96-.34-.17-.46-.2-.85-.14-.75.11-1.05.28-1.26.72-.17.35-.18.44-.1 1 .13.92.51 1.25 1.5 1.27.43 0 .67.06.92.2.4.23 1.4.46 1.94.46h.38V50.56h-.95a77.27 77.27 0 00-5.37.21l-.05-2.34c-.04-2.93-.11-3.22-.92-3.64-.47-.24-1.28-.31-4.17-.37a26.1 26.1 0 01-2.7-.13c-.1-.09-.13-7.9-.04-8.21l.06-.21h3.16c1.74 0 4.51-.06 6.16-.12 1.24-.05 2.5-.08 3.23-.08zm-9.66 3.1c-.25-.02-.56.16-.7.47-.08.16-.15.48-.15.7 0 .34.04.44.3.68.16.16.36.28.44.28.24 0 .46-.21.54-.52.07-.3.02-1.09-.1-1.39-.05-.15-.18-.22-.33-.23zm7.78.11c-.1 0-.2.05-.32.14-.22.18-.3.62-.23 1.24.06.42.1.49.33.6.21.11.31.12.5.04.12-.05.25-.16.27-.23.02-.08.03-.45.01-.82-.03-.58-.06-.69-.23-.82-.12-.1-.23-.14-.33-.15zm-4.07.5c-.38 0-.66.12-.66.29 0 .06.13.26.28.44.24.28.34.33.63.33.18 0 .4-.05.47-.12.38-.31-.1-.94-.72-.94zm-.95 1.74c-.07 0-.15.02-.25.05-.38.1-.41.16-.32.57.27 1.2 1.92 1.79 3.05 1.08.4-.25.6-.53.68-.92.08-.33-.1-.57-.4-.57-.34 0-.77.23-.94.5-.09.16-.24.33-.34.4-.27.2-.75-.11-1-.64-.17-.36-.27-.48-.48-.47zm4.96 2.85c.06 0 .13.02.23.08.16.1.22.2.24.42.02.5-.2.84-.57.84-.28 0-.34-.12-.34-.68 0-.36.03-.44.22-.56.1-.07.16-.1.22-.1zm-20.53 1.11l.68.01c1.22.04 4 .2 4.26.26.11.02 1.35.06 2.75.08 8.06.14 8 .14 8.09.32.05.08.12.69.17 1.34.13 2.05.06 8.63-.12 9.51-.07.4-.15.4-3.44.35-1.7-.03-5.24-.07-7.86-.08-4.64-.02-4.77-.02-5-.19-.3-.22-.32-.43-.39-2.82-.03-1.05-.1-2.44-.14-3.09-.13-1.55-.03-5.17.13-5.43.12-.18.32-.25.87-.26zm31.75 6.8c.23 0 .3.04.34.1.25.33.1.53-2.22 2.9a96.08 96.08 0 00-3.15 3.3 122.87 122.87 0 01-2.67 2.95l-.24.25-1.07-.04c-.6-.02-2.76 0-4.8.05-5.79.16-5.31.16-5.24 0 .03-.06.06-.31.07-.55 0-.53-.25-.92-.8-1.27-.38-.24-.42-.25-1.53-.25-.86 0-1.14-.02-1.14-.1l.02-.71.02-.6 1.58.04c1.92.05 3.3.25 4.05.58.25.11.6.11 1.46 0 .8-.1 1.7-.03 2.07.17.09.04.57.1 1.07.13.88.04.91.03 1.33-.21.34-.2.58-.47 1.18-1.3 1-1.4 1.18-1.92.95-2.78-.34-1.25-1.21-1.6-3.98-1.6a8.4 8.4 0 01-1.43-.07 3.33 3.33 0 010-.81c.02-.04.1-.01.17.06.14.12.75.13 1.46.01.61-.1 2.28-.14 5.88-.14a155.22 155.22 0 006.62-.11zm-34.3.67l.05 1.7c.05 1.5.08 1.76.24 2.14.35.81.96 1.18 2.34 1.41.75.13 1.1.13 2.63.06.97-.05 2.02-.06 2.33-.04l.57.04v.8c0 .56-.03.8-.1.83-.06.01-.56.05-1.1.07-.56.03-1.05.08-1.1.12-.06.05-.21.1-.34.14-.4.1-.75.94-.5 1.2.04.04.1.2.14.36l.05.28-6.44-.03c-3.54-.01-6.44-.05-6.44-.08 0-.02.06-.1.13-.16s.26-.3.42-.54c.3-.43.56-.77.9-1.13.1-.1.4-.5.68-.87a34.84 34.84 0 011.36-1.72l1.02-1.27c.27-.33.7-.9.94-1.28.25-.37.67-.93.92-1.25.26-.3.49-.6.5-.64.02-.05.2-.1.41-.11zm20.51 1.3c.15.02.13.14-.05.41-.13.2-.25.36-.28.36-.03 0-.04-.16-.03-.36.01-.25.06-.36.15-.38a.8.8 0 01.21-.03zm1.92.01c.26 0 .46.01.46.02l-.38.57c-.35.52-.39.56-.75.6-.44.05-.49-.03-.22-.37.1-.12.23-.35.3-.52.12-.3.14-.3.59-.3zm1.7.1c.14.03.17.1.19.55l.02.51-.45.01-.46.01.26-.54c.2-.43.3-.55.43-.53zm10.92.5c.01 0 .03 1.25.03 2.8 0 1.54.02 3.15.03 3.57.02.43 0 1.88-.02 3.23l-.05 2.46-.55.59c-.72.78-1.85 1.88-2.53 2.48a78.1 78.1 0 00-2.16 1.97c-.38.35-.91.85-1.2 1.1-.27.26-.53.51-.57.57-.16.25-.2.03-.26-1.27-.03-.76-.12-2.08-.2-2.94-.07-.87-.14-2.64-.16-3.95-.04-2.08-.02-2.39.1-2.48.07-.06.13-.17.13-.24 0-.07.25-.39.57-.72l.7-.73.96-1.07a45.19 45.19 0 011.78-1.91c.75-.8 3.37-3.47 3.4-3.47zM44.9 55.84l-.42.64c-.64.98-1.02 1.25-1.48 1.09l-.29-.1.31-.44c.17-.23.36-.52.42-.64.23-.45.3-.48.89-.52l.57-.03zm-2.88.04c.23 0 .42.02.42.03a10.44 10.44 0 00-.77 1.22c-.18.31-.3.44-.4.4a1.16 1.16 0 00-.32-.04c-.18 0-.2-.03-.16-.18.04-.1.23-.42.43-.7.2-.28.37-.56.37-.62 0-.07.14-.1.43-.1zm-11.8 2.03h1.37l-.05.66c-.04.72.1 1.25.38 1.35a.6.6 0 01.2.1c.25.3.38.34.71.22.66-.23 1.6-.13 1.88.21.2.25.12.41-.33.63-.77.37-1.73.48-4.4.54l-2.43.04-.06-.21c-.09-.36 0-.67.23-.85.27-.2 1.45-.41 1.85-.33.16.04.4.03.52-.02l.23-.08-.05-1.13zm13.6 4.98h1.29l1.69.02v2.01c0 1.1.05 2.77.1 3.7.06.94.13 2.43.16 3.32l.06 1.62-3.97.06c-5.47.09-9.88.01-11.97-.2-2.6-.26-7.58-.39-13.2-.32l-4.88.05-.1-.78c-.06-.43-.11-1.3-.11-1.93 0-.62-.04-1.56-.1-2.07-.1-1.06-.1-3.58 0-4.53l.06-.63 2.86-.03c2.05-.01 2.85-.05 2.85-.11 0-.08.32-.08 1.17-.03a656.35 656.35 0 0024.1-.16z"/><path style="marker:none" d="M17.18 29.45c-.17-.24-.97-2.1-1.3-3.05-.18-.48-.6-2-.69-2.46-.05-.26-.05-.29.01-.35.13-.14.52-.22 2.13-.42a14.66 14.66 0 002.07-.34c.09 0 .4.76.69 1.65.23.76 1.26 3.5 1.42 3.82.08.15.07.17-.07.22-.33.1-3.42.88-4.1 1.02-.06.01-.1-.01-.16-.09zm1-3.05c.18-.04.49-.09.68-.11.43-.05.63-.12.76-.28.1-.11.1-.18 0-.18-.04 0-.06-.05-.06-.14 0-.16-.05-.2-.36-.23-.27-.03-.68.04-1.46.23-1.07.27-1.3.44-.9.64.38.2.7.21 1.34.07zm-1.01-1.11c.48-.06 1.14-.2 1.68-.38.63-.2.75-.27.75-.45a.06.06 0 00-.05-.06c-.04 0-.06-.05-.07-.16l-.01-.16-.26-.02a6.1 6.1 0 00-1.63.36c-.3.09-.4.1-.73.07-.4-.02-.55.01-.67.16-.06.07 0 .18.28.47.2.23.19.22.7.17zM22.73 27.75c-.21-.26-1.9-5.07-1.85-5.27.03-.1.24-.47.45-.76l.13-.18.05.1.25.63c.1.3.38 1 .61 1.57a90.74 90.74 0 011.1 2.97c-.03.11-.36.61-.55.82-.12.14-.15.16-.19.12z" color="#000" overflow="visible" fill="#005ba0" stroke="#005ba0" stroke-width="1.07" stroke-linecap="round" stroke-linejoin="round" paint-order="stroke markers fill"/><path style="marker:none" d="M15.35 22.49c.03-.1.43-.64.53-.74.12-.11.42-.17 1.62-.35.6-.08 1.33-.2 1.64-.27.7-.15 1.04-.18 1.04-.1 0 .04-.08.23-.18.43-.17.34-.2.37-.32.39l-.9.17c-1.04.2-3.12.54-3.38.54-.06 0-.07-.02-.05-.07z" color="#000" overflow="visible" fill="#fffef2" stroke="#fffef2" stroke-width="1.07" stroke-linecap="round" stroke-linejoin="round" paint-order="stroke markers fill"/><path style="marker:none" d="M14.47 31.85a3.63 3.63 0 01-1.82-.76 7.4 7.4 0 01-1.58-1.9c-.14-.29-.32-.94-.42-1.52a7.12 7.12 0 01-.02-1.7c.17-.96.16-.93.1-1.1-.05-.13-.05-.16.02-.44.17-.65.68-1.53 1.36-2.32 1.03-1.2 1.74-1.67 3.9-2.6a9.37 9.37 0 013.47-.87c.64.05 2.73.9 3.6 1.47a6.37 6.37 0 012.54 3.22c.11.4.18 1.03.18 1.75 0 .5 0 .51-.18 1.02a5.48 5.48 0 01-1.15 2.18c-.36.4-.57.58-.88.73-.15.07-.42.23-.6.35A17.88 17.88 0 0117 31.81c-.48.1-2.06.12-2.53.04zm2.65-1.46c.68-.03 1.05-.11 4.44-.95 1.5-.37 1.82-.47 1.92-.62l.44-.54c.44-.53.7-.9.87-1.26.17-.33.17-.42-.02-.63-.2-.2-.21-.24-.33-.6a4.21 4.21 0 00-.22-.52 29.74 29.74 0 00-.92-2.2 3.7 3.7 0 01-.2-.57.82.82 0 00-.12-.28c-.04-.06-.1-.21-.15-.35a2.15 2.15 0 00-.2-.45c-.06-.1-.17-.31-.23-.46-.24-.56-.57-.9-.92-.96-.36-.05-1.28.06-2.72.32-.97.18-1.65.28-2.74.4-.93.12-.74-.03-1.55 1.15-.86 1.26-.97 1.5-.7 1.52.07.01.15.04.16.06a25.49 25.49 0 001.18 4.14 12.5 12.5 0 001.23 2.63c.13.2.15.22.27.2l.5-.03zm-3.82-.2c.28-.17.5-.65.52-1.18l.02-.33-.2-.34c-.1-.19-.28-.57-.4-.85a4.38 4.38 0 00-.3-.6c0-.04.1-.02.39.09.14.05.3.08.5.08.25 0 .3-.01.37-.08.1-.12.09-.4-.06-.7-.25-.53-.57-.76-1.07-.76-.35 0-.81.09-1.04.2a2.6 2.6 0 00-.66.64c0 .02.04.07.1.1.24.18.36.32.5.66l.32.7.17.35-.27.28c-.3.32-.41.55-.42.92 0 .23.1.46.35.73.16.17.22.19.7.17.26 0 .39-.03.48-.08zM22.97 34.8c-.19-.12-.51-.48-.54-.61a.82.82 0 01.21-.64c.12-.1.46-.22.63-.22.2 0 .4.16.65.53.15.22-.13.72-.51.92-.23.1-.29.11-.44.02zM25.66 37.04a1.82 1.82 0 010-.37c.01-.27.1-.38.31-.38.2 0 .33.14.36.36.03.28-.01.37-.2.45a.9.9 0 01-.3.08c-.14 0-.15-.01-.17-.14z" color="#000" overflow="visible" fill="#fffef2" stroke="#fffef2" stroke-width="1.07" stroke-linecap="round" stroke-linejoin="round" paint-order="stroke markers fill"/><path d="M26.25 36.38c-.16-.16-.42-.16-.55 0-.06.07-.09.28-.08.49.03.33.05.36.24.33.37-.05.51-.17.51-.44 0-.14-.05-.31-.12-.38zm1.2.98c-.15.3-.62.5-1.26.55-.5.04-.58.02-1.05-.23l-.5-.29-.03-.45c-.02-.35.01-.5.16-.72.33-.48.96-.8 1.54-.8.35 0 .9.3 1.08.6.2.32.22 1.01.06 1.34zM14.16 27c-.17.1-.71.05-1-.1-.24-.12-.33-.08-.18.1.04.04.16.3.27.58.11.28.3.64.4.8.17.25.2.37.16.73-.04.48-.33 1.02-.58 1.1a2.2 2.2 0 01-.99 0c-.05-.03-.19-.2-.3-.38-.17-.27-.19-.37-.13-.68.04-.2.12-.42.18-.47.06-.05.2-.18.3-.3l.2-.21-.3-.6a9.3 9.3 0 01-.33-.76.54.54 0 00-.27-.27c-.11-.06-.2-.13-.2-.17 0-.04.14-.21.32-.38.26-.26.42-.34.85-.41.77-.14 1.13-.01 1.45.5.27.4.33.8.15.92zm5.44-5.99c-.36.12-1.62.33-2.72.46-.45.05-.88.15-.96.22-.17.14-.67.85-.63.9a39.33 39.33 0 004.53-.75l.22-.44c.22-.42.22-.42.04-.45-.1-.02-.31.01-.48.06zm-.1 3.63c-.22.17-1.53.54-2.17.61l-.65.07-.29-.3c-.24-.25-.26-.31-.17-.4.14-.14.56-.18.78-.09.1.04.46-.03.98-.2.45-.14.99-.26 1.18-.26.33 0 .36.01.31.17-.03.1-.01.17.04.17.12 0 .11.12-.02.23zm-.07 1.5c-.14.07-.36.13-.5.13s-.51.06-.83.13c-.47.11-.64.12-.93.03-.75-.2-.66-.4.31-.65 1.13-.3 1.4-.34 1.75-.3.3.04.34.07.3.2-.02.1 0 .16.06.16.18 0 .1.17-.16.3zm1.39.34c-.36-.93-.68-1.83-.72-2a8.83 8.83 0 00-.66-1.68l-.38.09c-.18.05-.58.12-.89.16-3.18.4-3.09.37-3.02.83.03.17.13.58.23.9l.2.73c.09.48.64 1.95 1.09 2.92l.4.86c.06.16.16.28.22.28a87 87 0 004.27-1.07c.04-.02.03-.1-.02-.18-.05-.08-.37-.9-.72-1.84zm2.26-.86c-.3-.82-.46-1.23-.82-2.1-.17-.41-.52-1.33-.64-1.68-.06-.17-.13-.31-.16-.3-.02 0-.18.2-.35.47-.24.36-.3.51-.24.65l.58 1.75a39.59 39.59 0 001.15 3.11c.06.16.13.29.16.3.04 0 .23-.21.43-.5.27-.37.35-.54.3-.64-.05-.08-.23-.55-.41-1.06zm1.67 1.45c-.2.4-.5.8-.91 1.28-.17.19-.34.4-.39.49-.05.08-.3.2-.6.26a142.61 142.61 0 00-2.79.69l-1.4.34c-.48.12-1.17.23-1.53.25l-.64.03-.3-.44a4.83 4.83 0 01-.4-.74c-.06-.16-.18-.47-.28-.68-.63-1.42-1.5-4.28-1.5-4.95 0-.15-.05-.21-.16-.21-.3 0-.27-.14.12-.73a50.3 50.3 0 011.25-1.82l1.03-.12c1-.12 1.8-.24 3.14-.5a8.65 8.65 0 012.18-.19c.3.08.62.44.8.89.07.22.19.44.25.5s.15.26.2.45c.04.18.12.35.17.38.04.03.08.13.08.24 0 .1.03.22.07.27.04.04.17.33.29.63.12.3.31.77.43 1.03.13.27.22.52.22.57 0 .05.08.21.16.37.1.16.19.4.22.56.04.15.16.36.27.46.25.21.25.27.02.7zm.97-3.43a4.36 4.36 0 00-.76-1.7c-1-1.45-2-2.14-4.22-2.95-.42-.16-.9-.32-1.06-.35-.56-.13-2.26.23-3.43.74-2.27.97-2.88 1.35-3.82 2.34a6.76 6.76 0 00-1.71 2.72c-.06.23-.06.37 0 .44.05.07.05.25-.02.56-.21 1-.2 1.81.06 2.83.21.87.28 1.02.7 1.57 1.24 1.65 2.15 2.1 4.18 2.1 1.3 0 2.49-.28 4.5-1.08 1.08-.42 2.8-1.35 3.16-1.68.06-.06.24-.15.4-.2.33-.11 1.12-.97 1.4-1.54.2-.38.64-1.55.7-1.85.05-.23 0-1.6-.08-1.95zm1.68 2.17c-.17.78-.74 2-1.2 2.57a5.2 5.2 0 01-2.2 1.9A27.4 27.4 0 0022 31.34c-.05.04-.33.16-.63.29-.3.12-.57.25-.6.28-.12.18-1.34.62-2.58.95-2 .52-4.16.3-5.88-.61a5.7 5.7 0 01-1.85-1.37c-.91-.98-1.17-1.68-1.25-3.4-.08-1.98.01-2.83.43-3.87a8.72 8.72 0 011.69-2.46c.7-.83 2.1-1.82 3.22-2.26.28-.11.55-.23.6-.27.16-.11 1.9-.64 2.6-.78 1-.2 1.95-.25 2.75-.14 1 .15 2.57.78 4.23 1.69.4.22 1.8 1.72 2.15 2.3.65 1.1.83 2.59.5 4.11zM23.74 33.6c-.29-.33-.37-.35-.85-.2-.24.06-.34.15-.41.34-.14.41-.1.54.22.86.36.35.46.37.84.13.25-.15.4-.43.45-.78 0-.03-.1-.2-.25-.36zm1.4.75c-.15.39-.33.6-.64.77a1.7 1.7 0 00-.35.24c-.22.22-.75.39-1.23.39-1.25 0-1.9-1.16-1.34-2.33.27-.55.36-.64.82-.92a1.87 1.87 0 011.88 0c.22.13.4.3.4.35 0 .05.05.13.11.17.14.08.35.48.42.78.02.12-.01.36-.08.55z"/></svg>