<svg xmlns="http://www.w3.org/2000/svg" viewBox="0 0 76.73 76.73" height="290" width="290"><path style="marker:none" color="#000" overflow="visible" fill="none" paint-order="stroke markers fill" d="M0 0h76.73v76.73H0z"/><path d="M73.74 65.72c-.12.15-.57.18-2.93.2-.87 0-1.74.02-1.92.03-1.83.12-4.25.11-7.77-.01-9.79-.34-27.63-.6-28.77-.43-.32.04-1.98.05-4.09 0a67.8 67.8 0 00-3.62-.03c-.04.02-1.07.04-2.28.04-2.17-.01-4.92.05-5.48.11-.17.02-1.25.05-2.42.06-1.16.02-2.7.05-3.41.08s-2.6.02-4.2-.03c-2.86-.1-2.9-.1-3.2-.3-.33-.24-.75-.82-.7-.97.03-.09 1.07-.08 4.52.01 2.47.07 4.91.11 5.44.09.53-.02 2.72-.07 4.87-.1 2.15-.04 4.75-.11 5.78-.17 1.06-.05 2.69-.06 3.74-.02 1.77.06 2.82.04 4.83-.12.47-.03 1.84-.05 3.03-.04h3.34c.64 0 3.8.04 7.02.1 3.22.07 7.38.13 9.23.13 1.85 0 4.74.07 6.42.14 2.3.1 3.55.12 5.03.06 1.09-.05 2.92-.1 4.08-.1 1.15-.01 2.13-.05 2.17-.07.16-.1.94.26 1.02.48.05.1.11.2.15.2.13 0 .22.52.12.66z"/><path d="M55.04 53.8a7.94 7.94 0 01-1.24-.6l-.78-.39-2.53-1.25a34.22 34.22 0 00-4.06-1.9c0-.05 1.3-.5 1.92-.66l.2-.05.18.08c.1.05.36.2.57.34.22.13.47.28.56.31.24.11.25.13.24.59 0 .43.02.58.13.69.15.14.89.44 1.04.43.07 0 .08-.02.1-.1.05-.12.13-1.31.16-2.23l.05-.75c.02-.02.13.03.27.13.06.04.17.1.25.12.24.08.24.08.09.18l-.28.17a.48.48 0 00-.2.18c-.1.2-.12.6-.02.8.05.1.27.28.45.37.22.11.53.1.77-.03.1-.06.13-.1.2-.23.04-.08.1-.23.12-.31.05-.2.03-.3-.1-.6a.7.7 0 01-.07-.2c.03-.02.22 0 .36.03.14.05.15.05.18.16.03.1.02.12-.03.31-.03.11-.09.38-.12.6l-.15.82c-.12.61-.16.9-.17 1.24l-.02.3.17.16c.1.1.23.2.35.25.17.08.2.09.4.09.17 0 .21-.01.3-.07.16-.08.21-.17.25-.42.04-.3.1-.56.14-.56.02 0 .05.02.06.06.03.04.17.13.57.33l.7.37c.73.46 1.2.77 1.2.81a6.3 6.3 0 01-1.97.51l-.24-.07z" style="marker:none" color="#000" overflow="visible" fill="#fffef2" stroke="#fffef2" stroke-width="1.1208847999999998" stroke-linecap="round" stroke-linejoin="round" paint-order="stroke markers fill"/><path d="M54.05 47.22c-.09-.02-.08-.05.05-.21a2 2 0 01.44-.43c.06 0 .24.37.25.49.01.13 0 .14-.38.15h-.36z" style="marker:none" color="#000" overflow="visible" fill="#f57a74" stroke="#f57a74" stroke-width="1.1208847999999998" stroke-linecap="round" stroke-linejoin="round" paint-order="stroke markers fill"/><path d="M48.8 58.49c-.2-.05-.36-.15-.4-.24-.06-.16-.08-.63-.03-.66.07-.05 1.05.47 1.07.56.02.11-.2.33-.35.35a.88.88 0 01-.3-.01z" style="marker:none" color="#000" overflow="visible" fill="#fffef2" stroke="#fffef2" stroke-width=".1987776" stroke-linecap="round" stroke-linejoin="round" paint-order="stroke markers fill"/><path d="M41.7 54.14c-.17-.07-.22-.17-.22-.39 0-.32.25-.6.6-.7.1-.02.12 0 .14.1.05.2.03.68-.02.81-.05.12-.22.24-.33.24a.7.7 0 01-.18-.06zM44.53 69.22l-.14-.03.31-.31c.26-.27.32-.31.37-.27.08.07.09.44.01.54-.05.08-.34.11-.55.07zM51.48 71.52c-.1-.13-.08-.24.1-.4a.92.92 0 01.53-.22c.12 0 .25.12.25.22 0 .21-.38.5-.66.5-.1 0-.16-.02-.22-.1zM59.13 63.62a.97.97 0 01-.02-.25c.02-.14.03-.16.12-.16s.1.02.11.16c.01.15-.07.35-.15.35-.02 0-.05-.05-.06-.1z" style="marker:none" color="#000" overflow="visible" fill="#fffef2" stroke="#fffef2" stroke-width="1.1165022000000002" stroke-linecap="round" stroke-linejoin="round" paint-order="stroke markers fill"/><path d="M52.26 45.81c-.08-.24-.05-.37.06-.26.03.03.05.16.04.28l-.02.22zM52.6 67.64a51.6 51.6 0 00-4.13-1.71l-2.2-.83c-.28-.1-.65-.36-1.17-.8l-.25-.21v-1.9c0-1.03.04-2.2.07-2.6.04-.38.12-1.88.18-3.32a143.9 143.9 0 01.38-5.75l.02-.13.16.11a317.38 317.38 0 017.85 3.93c.42.22.8.45.84.5.08.1.07.33-.1 1.37-.17 1-.43 3.11-.71 5.78a105.95 105.95 0 01-.71 5.6c0 .05-.07.04-.23-.04zm-2.78-8.56c.34-.17.65-.6.78-1.1.09-.3.01-.4-.37-.52-.18-.05-.7-.26-1.15-.46-.45-.2-.91-.37-1.02-.37-.26-.01-.47.25-.6.72-.14.52-.09.71.3 1.12.68.72 1.43.94 2.06.61zm2.55-1.5c.05-.1.1-.4.1-.8.03-.61.02-.64-.1-.73-.18-.12-.3-.11-.57.03-.28.14-.4.38-.4.83 0 .43.1.58.4.74.32.16.46.15.57-.07zm-2.57-1.34c.18-.18.16-.3-.1-.5-.46-.37-.82-.42-1-.15-.12.18-.01.38.32.6.31.2.6.22.78.05zm-2.57-.76c.24-.22.4-.63.4-1.03 0-.54-.21-.7-.68-.5-.24.1-.34.25-.46.7-.11.43-.08.63.12.83.18.18.42.18.62 0zM54.56 67.7l.15-1.4.36-3.33a192.86 192.86 0 01.9-7.57c0-.36.02-.37.63-.46.25-.04.6-.12.78-.18.4-.13.4-.13.36.02a39.84 39.84 0 00-.6 5.3c-.03.66-.07 1.3-.09 1.43l-.04.24-.1-.21a.77.77 0 00-.24-.3 1.46 1.46 0 01-.32-.32c-.17-.24-.2-.26-.39-.23-.26.05-.3.12-.28.5.02.4.18.7.68 1.37.22.29.42.59.45.66.03.08.03.32 0 .6-.08.59-.22 2.25-.27 3.13l-.04.69-.42.07c-.23.04-.65.15-.94.24l-.57.16c-.03 0-.03-.18-.01-.4z" style="marker:none" color="#000" overflow="visible" fill="#f57a74" stroke="#f57a74" stroke-width="1.1165022000000002" stroke-linecap="round" stroke-linejoin="round" paint-order="stroke markers fill"/><path d="M52.78 44.67c-.15 0-.34.05-.65.13-.4.1-.77.23-.8.29-.11.17-.08.58.1 1.42.1.44.16.8.14.83-.02.01-.23-.04-.48-.12-.25-.08-.5-.13-.57-.1-.12.05-.33.8-.33 1.17 0 .12-.02.22-.05.22l-.64-.29a2.18 2.18 0 00-1.3-.28c-.48.01-.86.07-1.23.2-.89.33-1.93.63-2.17.63-.27 0-.49.22-.56.53-.04.2-.21 1.9-.37 3.76l-.19 1.99c-.08.8-.14 1.58-.14 1.74.02.46-.11.34-.4-.36-.28-.67-.45-1.56-.3-1.56.17 0 .47-.34.58-.67.1-.29.1-.42 0-.83-.16-.61-.3-.75-.84-.93-.37-.13-.5-.13-.9-.03-1.17.29-1.48.86-.99 1.83.2.4.62.72.92.72.06 0 .13.1.16.24a6.78 6.78 0 001.1 2.59c.55.6.53.54.44 1.2-.05.33-.1 1.52-.1 2.64a13.06 13.06 0 01-.13 2.4c-.1.32-.1.4.07.74.28.6.46.74 1.3 1.06l.8.3v.4c0 .22-.03.6-.06.86l-.05.47h-.48c-1.12 0-1.69.65-1.32 1.53.3.74.96 1 2.08.83.5-.08.7-.16.9-.35l.27-.25-.06-.73c-.08-.85-.1-2.26-.02-2.32.02-.03.18.01.34.08.16.08.73.3 1.27.5 1.2.44 1.6.62 2.76 1.18.75.36.92.48.96.67.02.12.12.37.22.55.1.17.17.36.17.4 0 .05-.23.12-.51.14-1.06.11-1.17.16-1.4.62-.2.39-.1.96.26 1.33.78.84 2.72.63 3.1-.32.17-.42.17-.81 0-.98a.5.5 0 01-.13-.3c0-.08-.1-.37-.22-.63-.25-.54-.23-.66.07-.39.25.24.94.35 1.22.2.12-.07.79-.3 1.49-.54 1.2-.4 1.3-.46 1.67-.85.42-.46.54-.78.54-1.53 0-.27.03-.8.06-1.16l.05-.66.32.07c.9.2 1.55 0 1.89-.61.14-.25.23-.56.24-.8 0-.38-.2-.98-.33-.98-.04 0-.16-.09-.27-.2-.18-.15-.28-.17-.75-.14-.3.03-.62.08-.71.12-.16.06-.16.04-.11-.32.05-.38.09-.92.19-2.95.02-.54.1-1.37.18-1.86.47-3.2.49-3.41.39-3.72a.97.97 0 00-.34-.45 3.5 3.5 0 01-.48-.4c-.14-.13-.52-.38-.84-.56a9.76 9.76 0 01-.87-.54c-.15-.12-.5-.3-.75-.41-.26-.1-.68-.3-.94-.42l-.46-.21.06-.72c.06-.88-.01-1.04-.62-1.3l-.46-.21.25-.1c.14-.06.4-.1.58-.1.17-.01.56-.1.85-.22.57-.21.64-.33.53-.9-.07-.4-.82-1.33-1.11-1.4-.31-.07-.62.06-1.05.45l-.36.32v-1.49l-.3-.1a.84.84 0 00-.38-.06zm-.51.83c.1 0 .13.1.13.38v.38l-.13-.36c-.16-.43-.16-.4 0-.4zm2.28 1.08l.13.23c.12.22.14.37.04.38-.34.03-.73.03-.72 0 0-.07.53-.65.55-.61zm-2.97 1.7c.04 0 .2.07.32.2.2.08.43.14.43.17s-.33.23-.5.31c-.28.2-.24.86-.07 1.02.13.12.34.26.45.3a.9.9 0 00.78-.11c.09-.08.3-.5.25-.73-.04-.24-.18-.47-.2-.53.09-.12.32 0 .48.03.03 0 .06.03.06.04 0 .03.11.18 0 .41-.14.46-.15.9-.25 1.33-.06.29-.25 1.27-.2 1.64.68.79 1.42.47 1.41.13.05-.4.13-.71.17-.71.04 0 .08.03.08.08 0 .04.17.14.37.22a10.3 10.3 0 012.1 1.3c0 .1-1.59.5-1.99.5-.1 0-.39-.1-.65-.23a2.32 2.32 0 01-.31-.17l-1.26-.65c-.04 0-3.82-1.87-4.24-2.1-.43-.24-1.54-.72-1.95-.86a1.44 1.44 0 01-.46-.21c0-.07 1.94-.71 2.15-.71.08 0 .38.15.66.34.27.19.59.37.7.4.2.07.23.18.2.74-.02.32.04.5.24.6.18.1.89.44 1 .34a25.81 25.81 0 00.19-2.7c0-.23 0-.39.04-.39zm.93 1.03c.1 0 .14.16.03.3-.12.17-.13.17-.19.02-.03-.09-.01-.2.04-.26.04-.04.08-.06.12-.06zm-7.04 1.07c.02-.02.15.05.3.15.14.1.28.19.3.19.17 0 5.65 2.72 7.98 3.96.35.18.38.23.38.53a122.4 122.4 0 00-.93 7.48c-.2 2.07-.59 4.95-.67 5.04-.05.04-.4-.11-1.93-.83-.22-.1-.73-.31-1.15-.47a442.46 442.46 0 01-3.2-1.19 4.09 4.09 0 01-1.56-1c-.21-.19-.22-.2-.2-1.8.02-1.5.06-2.36.15-3.33.03-.22.1-1.78.17-3.46a57.37 57.37 0 01.27-4.23c.03-.56.07-1.02.09-1.04zm-3.31 2.64h.04c.07.07.1.49.07.77-.05.35-.28.5-.6.37-.4-.15-.25-.86.22-1.06l.27-.08zm5.16.88c-.47 0-.64.14-.8.67-.11.42-.12.54-.02.72.26.5.72.39 1-.24.23-.57.15-1.15-.18-1.15zm10.44.7c.05 0 .04.23 0 .28-.03.02-.07.26-.1.52-.03.27-.1.84-.18 1.26-.16 1.05-.3 2.6-.31 3.51-.01.41-.04.97-.08 1.24l-.06.48-.11-.28c-.06-.16-.18-.3-.26-.33-.08-.03-.22-.17-.3-.32-.13-.22-.2-.27-.4-.24-.2.02-.25.07-.27.33-.04.43.15.82.73 1.54.42.52.48.66.44.89a56 56 0 00-.3 3.71v.48l-.42.05a5.7 5.7 0 00-.91.22c-.66.23-.75.24-.73.12l.07-.76c.02-.35.1-1.05.17-1.56l.26-2.35a199.06 199.06 0 01.95-7.71.47.47 0 00-.01-.37c-.13-.23.03-.32.66-.4a4.02 4.02 0 001.16-.3zm-8.79.82c-.06 0-.11.04-.19.11-.21.2-.11.42.3.67.34.2.53.22.71.03.08-.07.14-.17.14-.2 0-.12-.39-.42-.69-.54a.64.64 0 00-.27-.07zm3.16.55a.39.39 0 00-.2.06c-.4.21-.5.36-.5.79 0 .57.06.68.43.84.3.12.33.12.45-.03.09-.1.15-.4.16-.82.02-.58 0-.67-.15-.77a.37.37 0 00-.19-.07zm-4.07.67c-.28 0-.47.25-.6.82-.13.47-.06.65.45 1.15.91.89 2.04.78 2.5-.23.33-.69.3-.78-.3-.93a6.99 6.99 0 01-1.1-.46c-.4-.2-.82-.35-.95-.35zm.3.91c.03-.02.3.09.59.24.3.16.54.31.54.34a.8.8 0 01-.13.24c-.1.14-.2.18-.46.16a.87.87 0 01-.45-.16c-.12-.11-.18-.72-.09-.82zm10.9 5.62c.16 0 .16.39 0 .52-.1.09-.13.06-.17-.14-.05-.28-.01-.38.17-.38zm-14.22 5.4c.16 0 .16.6 0 .66-.07.03-.26.04-.41.02l-.28-.02.28-.34c.16-.18.34-.33.4-.33zm7.04 2.32h.11c.28.08.27.35-.02.58-.39.3-.86.2-.76-.18.05-.2.4-.4.67-.4z"/><g><path d="M25.37 56.67c-.06-.05-.11-.12-.11-.17 0-.09.21-.3.47-.48.18-.13.2-.1.24.34.03.27.03.28-.1.33-.19.07-.38.06-.5-.02z" style="marker:none" color="#000" overflow="visible" fill="#fffef2" stroke="#fffef2" stroke-width=".1987776" stroke-linecap="round" stroke-linejoin="round" paint-order="stroke markers fill"/><path d="M23.13 68.35c-.14-.42-.9-4.74-.93-5.27 0-.17.01-.26.06-.27.1-.04 1-.72 1.74-1.32 1.24-1.01 1.65-1.33 3.04-2.41a66.11 66.11 0 002.25-1.8c.11 0 1.04 4.79 1.04 5.34 0 .11-.03.25-.07.3-.08.1-2.03 1.72-3.27 2.73-.72.59-3.1 2.4-3.62 2.76l-.18.12z" style="marker:none" color="#000" overflow="visible" fill="#f57a74" stroke="#f57a74" stroke-width="1.1165022000000002" stroke-linecap="round" stroke-linejoin="round" paint-order="stroke markers fill"/><path d="M16.9 61.81l-.08-.79a22.4 22.4 0 00-.2-1.47c-.37-2.12-.6-3.47-.6-3.6 0-.12.03-.13.47-.16l1.5-.12c.55-.05 1.16-.09 1.33-.09h.32l.1.87c.05.48.23 1.85.4 3.05.17 1.2.29 2.2.28 2.21-.09.09-1.65.23-2.5.23-.98 0-.99 0-1.01-.12zM21.87 61.05l-.2-1.35c-.3-1.84-.48-3.15-.52-3.8l-.05-.66.47-.37c.68-.54 1.45-1.25 3.19-2.93 2.3-2.23 2.95-2.8 3.04-2.71.04.04.95 5.06 1.13 6.22.06.38.05.42-.05.53-.15.17-3.11 2.59-4.8 3.92l-1.72 1.37c-.18.15-.35.27-.37.27-.03 0-.08-.22-.12-.5zm4.3-3.7c.12-.06.36-.26.54-.47l.33-.37v-.42c0-.73-.1-1.2-.26-1.35a.5.5 0 00-.27-.12c-.17 0-1 .46-1.33.73-.15.12-.36.27-.47.33-.1.05-.26.16-.33.23a.45.45 0 01-.3.13c-.18 0-.18 0-.15.22.05.35.26.73.5.89.42.28 1.33.38 1.73.2zM23 56.89a.87.87 0 00.34-.2c.12-.13.14-.2.13-.51-.02-.5-.11-.82-.27-.89-.1-.05-.19-.03-.42.09-.41.2-.47.28-.46.62 0 .42.08.73.23.85.14.11.18.11.45.04zm2.38-2.12c.25-.12.38-.22.39-.3.02-.15-.3-.53-.46-.53-.18 0-.67.24-.82.4-.12.13-.13.17-.07.31.16.42.32.44.96.12zm1.79-1.09c.3-.12.33-.24.23-.8-.12-.64-.18-.76-.37-.76-.18 0-.57.18-.68.3-.1.13-.06.94.07 1.14.13.2.44.25.75.12zM17.93 53.62c1.24-1.3 1.99-2.01 3.14-3a17.54 17.54 0 011.98-1.6c.1-.05.75-.17 1.56-.28.75-.11 1.39-.22 1.41-.23.03-.02.05-.01.05.02s-.6.62-1.32 1.32l-2.94 2.87c-.89.88-1.67 1.62-1.74 1.66-.1.06-2.17.21-3.05.24-.02 0 .39-.45.91-1zM15.26 67.95c-.11-.14-.17-.68-.09-.84.1-.18.6.02.67.27.03.14-.07.35-.26.5-.16.13-.25.15-.32.07zM32.47 57.61c-.1-.1.1-.6.29-.73.1-.07.32-.11.32-.06s-.18.37-.33.59c-.14.22-.22.27-.28.2zM22 72.93c-.2-.22-.19-.52.02-.58.16-.04.43.01.49.1.1.14.02.49-.13.55-.13.05-.29.02-.37-.07zM30.19 68.85c0-.11.63-.85.72-.85.12 0-.02.22-.41.63-.23.24-.31.3-.31.22z" style="marker:none" color="#000" overflow="visible" fill="#fffef2" stroke="#fffef2" stroke-width="1.1165022000000002" stroke-linecap="round" stroke-linejoin="round" paint-order="stroke markers fill"/><path d="M18.3 69.4l-.38-1.66-.31-1.32.14-.24c.08-.13.34-.45.58-.71.5-.55.72-.98.73-1.38 0-.36-.16-.53-.5-.53-.3 0-.59.2-.86.59l-.3.4-.11.14-.08-.62-.08-.62.4-.1c.24-.06.72-.11 1.22-.13l1.34-.06c.43-.02.53 0 .55.06.02.05.09.5.15 1 .19 1.44.27 1.97.52 3.27.23 1.2.23 1.21.14 1.52l-.1.31a276.06 276.06 0 00-2.93.4c-.03 0-.1-.15-.13-.32z" style="marker:none" color="#000" overflow="visible" fill="#f57a74" stroke="#f57a74" stroke-width="1.1165022000000002" stroke-linecap="round" stroke-linejoin="round" paint-order="stroke markers fill"/><path d="M15.68 67.15c-.45-.32-.67-.11-.54.5.1.44.2.49.5.2.29-.26.3-.52.04-.7zm4.49-7.64c-.17-1.2-.35-2.58-.41-3.08l-.1-.9-.77.05-1.83.13-1.08.1.04.32c.04.43.28 1.83.66 3.9.05.27.11.8.14 1.2l.07.72c.03.04 1.82.04 2.08 0 .12-.02.5-.07.86-.1.35-.04.64-.1.64-.12l-.3-2.22zm1.1 7.63a38 38 0 01-.48-3.13c-.1-.85-.12-.93-.28-.9-.1.03-.67.05-1.27.05-.64 0-1.33.06-1.63.13l-.51.13.07.5.07.64c0 .24.1.18.33-.18.45-.73.95-.99 1.35-.68.32.24.01 1.2-.54 1.67l-.46.52c-.26.3-.35.48-.32.62l.35 1.47c.17.7.32 1.4.34 1.55.03.17.08.25.16.23a432.6 432.6 0 002.14-.3l.79-.11.1-.31c.06-.2.08-.44.03-.66l-.24-1.24zm1.18 5.22c-.4-.15-.69 0-.6.34.08.31.33.44.56.3.22-.14.24-.56.04-.64zm3.52-23.87c-.09.03-.6.11-1.13.19l-1.36.19c-.22.03-.5.14-.63.24a58.66 58.66 0 01-.93.75l-.72.62-.95.8c-.36.31-1.85 1.8-2.82 2.81l-.53.55.97-.05 1.57-.08c.57-.03.64-.05.96-.37l2.22-2.18c1.03-1.01 2.24-2.18 2.69-2.6.8-.74.97-.96.66-.87zm-2.64 8.2c-.26.22-.69.28-.83.1-.13-.15-.18-.78-.07-.92.03-.04.18-.38.36-.47.32-.16.35-.16.49-.03.08.1.15.34.18.66.03.42 0 .54-.13.66zm2.15-1.98c-.17.1-.43.2-.57.24-.24.05-.3.02-.4-.2-.13-.25-.13-.27.05-.43.27-.24.67-.4.86-.34.12.04.35.38.35.52 0 .02-.13.11-.3.21zm.42 1.18a1.3 1.3 0 00-.38.25c-.3.25-.34.31-.25.45.1.17.37.22.63.12.12-.05.14-.13.09-.42-.03-.2-.07-.38-.09-.4zm.79.98c-.44.53-.72.63-1.49.52-.7-.1-.9-.22-1.05-.74-.13-.54-.05-.54.27-.73.02-.07.08-.13.13-.13.09 0 .61-.35.7-.46.1-.14 1.08-.69 1.22-.69.38 0 .48.21.52 1.03l.04.8zm.52-3.21a.9.9 0 01-.42.06l-.23-.04c-.34-.7-.46-1.1.1-1.42.47-.26.6.17.7.58.14.75-.07.58-.15.82zm1.65 1.2l-.7-3.95c-.14-.87-.3-1.63-.33-1.7-.08-.15-.7.38-2.33 1.99a50.9 50.9 0 01-4.16 3.82l-.27.2.06.83a17.15 17.15 0 00.27 2.17l.13.8c.04.19.15.84.23 1.45.08.6.16 1.12.18 1.14.01.02.16-.08.33-.22.4-.35.46-.4 1.96-1.56a130.26 130.26 0 003.87-3.14c1-.79.95-.74.89-1.12l-.13-.7zm1.42 7.07a48.87 48.87 0 00-.71-3.71c-.11-.54-.22-.99-.23-1.01-.02-.02-.16.08-.32.24l-.6.52a7914.96 7914.96 0 01-3.35 2.6c-.17.13-.45.36-.62.52-.17.16-.6.51-.97.78l-.84.65c-.09.09-.24.18-.33.2-.09.04-.16.13-.16.22 0 .37.79 4.9.95 5.41l.07.24 1.29-.95a63.12 63.12 0 003.65-2.88c.22-.2 1.44-1.2 2.09-1.73.18-.15.2-.35.08-1.1zm.63 6.05c-.09 0-.48.42-.67.73-.25.38-.01.28.38-.17.36-.4.44-.56.3-.56zm2.06-11.22c-.31 0-.7.7-.5.9.07.07.17-.03.37-.33.3-.48.32-.57.13-.57zm1.42.75c-.07.2-.32.53-.58.78-.64.61-1.08.74-1.5.44-.14-.1-.4-.16-.66-.16l-.45-.01.15.62c.09.35.24 1.12.35 1.71l.19 1.08c.33.76.32 1.22-.21 1.56-.08.04-.33.24-.57.43l-2.04 1.69c-.21.16-.22.2-.1.4l.42.82.3.58.37-.22c.5-.29 1.4-.39 1.78-.2.58.31.71.92.35 1.64-.29.55-.62.85-1.2 1.08-.58.23-1.13.2-1.51-.08a.95.95 0 00-.37-.19c-.07 0-.27-.15-.45-.34-.3-.3-.36-.45-.56-1.3-.3-1.32-.27-1.24-.45-1.04-.09.1-.41.35-.73.58-2.07 1.52-2.73 2.04-3.04 2.41-.36.45-.76.66-1.2.66-.47 0-.62.14-.62.57v.39l.6.1c1.45.25 1.92 1.2 1.03 2.1l-.37.37h-.87c-1.02-.01-1.33-.11-1.67-.55-.34-.46-.37-1.3-.08-2.15.12-.32.2-.6.18-.63-.03-.02-.56.05-1.55.22a5.96 5.96 0 01-2.1-.3c-.32-.21-.54-.79-.58-1.54-.02-.3-.04-.34-.2-.3-.49.16-1.07.2-1.37.07-.58-.23-.69-.3-.82-.63-.36-.84-.27-1.27.36-1.69.42-.28.71-.33 1-.17.12.06.17.06.17-.02 0-.05.06-.14.13-.2.13-.1.14-.06-.18-1.73a36 36 0 01-.4-3.4c-.06-.9-.65-5.13-.74-5.44-.05-.15-.1-.1 2.12-2.41a50.3 50.3 0 014.46-4.19c.9-.77 1.22-1 1.42-.98.2 0 1.22-.14 3.53-.5 1.27-.2 1.76-.18 2.12.09.16.12.37.22.45.22.22 0 .4.3.5.84l.2.8c.17.63.25.96.3 1.32.2 1.48.58 3.61.9 4.97.06.3.12.63.12.73 0 .1.06.2.14.23.08.03.18.16.23.29.09.22.1.22.2.06.42-.7.8-.93 1.67-1 .79-.06 1.2.14 1.42.69.17.41.17.39 0 .83z"/></g><g><path d="M30.46 41.37c-.1-1.4-.24-4.25-.36-7.52a94.8 94.8 0 010-7.12c.07-2.14.14-3.9.16-3.92.24-.24 3.48-.38 10.18-.43l5.01-.05-.06 6.6c-.05 4.6-.04 7 .04 7.92.06.73.14 2.1.17 3.05l.06 1.72-.23.05c-.13.03-2.41.08-5.07.1a175.49 175.49 0 00-9.53.35h-.3z" style="marker:none" color="#000" overflow="visible" fill="#fffef2" stroke="#fffef2" stroke-width=".3965148" stroke-linecap="round" stroke-linejoin="round" paint-order="stroke markers fill"/><path d="M45.56 38.07l-.14-1.9c-.07-.93-.08-2.52-.05-4.68l.1-6.27.05-2.99-1.83.08c-1.01.04-4 .08-6.65.09-4.52 0-5.54.05-6.54.28l-.31.07-.13 3.97c-.1 3.26-.1 4.46-.01 6.67a658.3 658.3 0 01.22 5.65c.02.17.07.92.1 1.65.04.74.1 1.38.12 1.42.03.04.51.05 1.07.01 4.74-.3 6.1-.34 9.9-.34 2.26 0 4.15-.03 4.18-.06.07-.06.01-2.38-.08-3.65zm1.92 4.35a.81.81 0 01-.27.29c-.37.14-2.58.22-6.33.22a101.99 101.99 0 00-9.8.4c-.28.03-.61 0-.89-.09a3.17 3.17 0 00-.63-.13c-.1 0-.27-.1-.39-.23-.2-.2-.22-.33-.31-1.92-.06-.93-.13-2.6-.17-3.68-.03-1.1-.1-2.75-.14-3.67-.1-1.63-.06-3.37.1-5.92.03-.68.08-2 .1-2.92.01-1.53.02-1.9.06-2.62.01-.26.22-.35 1.24-.52 1.7-.28 2.98-.34 6.75-.3a114.36 114.36 0 007.83-.14c1.6-.02 1.99.04 2.07.35.12.42.14 1.38.18 7.17.05 6.54.09 8 .23 9.27.05.42.12 1.42.17 2.24.06 1.14.11 1.53.22 1.64.17.19.16.25-.02.56z"/><path d="M32.04 38.7a2.03 2.03 0 010-.4c.01-.04.25-.06.95-.1.9-.05 1.5-.1 1.73-.15l.12-.02v.3c0 .27-.01.31-.1.36-.1.07-.46.12-1.45.23l-1 .1-.22.03z" style="marker:none" color="#000" overflow="visible" fill="#f57a74" stroke="#f57a74" stroke-width="1.1165022000000002" stroke-linecap="round" stroke-linejoin="round" paint-order="stroke markers fill"/><path d="M32.53 25.3c-.2.18-.59.13-.76-.11-.21-.29.03-.99.34-.99.5 0 .6.09.6.53 0 .3-.05.46-.18.57z" style="marker:none" fill="#f57a74" paint-order="stroke markers fill"/><path d="M34.38 29.82a2.1 2.1 0 01-.3.08c-.05 0-.2.04-.32.08-.13.03-.48.02-.79-.04-.44-.08-.57-.07-.62.01-.06.1-.15.08-.42-.05-.34-.17-.35-.18-.4-.75-.03-.32-.06-1-.06-1.52 0-.9 0-.94.2-.99.52-.14 1.87 0 2.35.24.34.16.47.62.52 1.8.05 1.06.05 1.07-.16 1.14zM34.72 25.24a.38.38 0 01-.23.1c-.06 0-.18.07-.25.14-.12.12-.16.12-.38 0-.27-.13-.34-.33-.28-.8.05-.46.72-.65 1.07-.3.2.2.24.7.07.86z" style="marker:none" fill="#005ba0" paint-order="stroke markers fill"/><path d="M36.43 27.69c-.32.1-.88-.25-.72-.44.1-.13.72-.09.81.06.12.19.08.32-.09.38z"/><path d="M36.53 25.02c-.2.31-.34.36-.65.2-.27-.15-.32-.35-.2-.92.05-.24.09-.28.34-.28.21 0 .35.07.48.24.22.28.23.44.03.76z" style="marker:none" fill="#f57a74" paint-order="stroke markers fill"/><path d="M36.9 28.9c-.17.08-.26.06-.5-.08-.42-.24-.38-.42.1-.45.28-.02.4.01.5.13.17.23.15.28-.1.4zM37.1 29.74c-.38.18-1.06-.07-.9-.32.07-.12.7-.12.93 0 .22.12.22.2-.03.32zM37.88 27.58c-.47.09-.86-.13-.7-.38.08-.15.62-.1.77.08.2.21.19.25-.07.3zM38.19 29c-.24.12-.28.11-.57-.09-.45-.3-.43-.4.1-.5.22-.06.31-.03.5.16.13.13.23.25.23.27 0 .01-.12.09-.26.16z"/><path d="M38.37 25.17c-.24.29-.26.3-.53.18-.32-.13-.42-.41-.3-.87.07-.3.1-.33.45-.35.3-.02.42.01.5.13.2.25.15.58-.12.9z" style="marker:none" fill="#005ba0" paint-order="stroke markers fill"/><path d="M39.25 28.92c-.24.08-.61-.03-.71-.21-.1-.2-.03-.27.3-.27.47 0 .78.37.41.48zM39.28 30.05c-.18.08-.27.07-.48-.05a.82.82 0 00-.59-.1c-.39.06-.82-.07-.82-.25 0-.07.06-.15.14-.18.22-.09.65-.07.65.03 0 .05.18.06.43.03.33-.04.49-.01.67.1.29.2.29.29 0 .42zM39.54 27.59c-.11.1-.72.06-.82-.07-.19-.23-.06-.36.3-.33.4.04.67.24.52.4z"/><path d="M40.47 25.08c-.16.17-.25.2-.6.16-.47-.06-.64-.24-.56-.63.07-.42.18-.5.65-.5.34 0 .45.04.56.2.19.27.17.53-.05.77z" style="marker:none" fill="#f57a74" paint-order="stroke markers fill"/><path d="M40.87 27.67c-.2.1-.27.1-.48 0-.25-.12-.38-.32-.29-.41.03-.03.22-.06.42-.06.26 0 .39.05.47.18.1.15.08.19-.12.3zM40.87 28.8c-.36.14-.83-.1-.83-.4 0-.21.67-.17.88.04.23.23.23.25-.05.36zM42.29 27.68c-.27.07-.78-.19-.82-.41-.02-.12.04-.15.31-.15.6 0 1 .44.5.56z"/><path d="M42.44 25.18c-.16.2-.19.2-.54.08-.67-.22-.86-.84-.34-1.1.4-.2.65-.17.86.1.23.29.23.65.02.92z" style="marker:none" fill="#005ba0" paint-order="stroke markers fill"/><path d="M44.17 24.83c-.25.37-.54.42-.83.16-.15-.15-.2-.3-.2-.57v-.37l.41-.06c.28-.04.43-.02.45.04.02.06.11.17.2.24.21.18.21.2-.03.56z" style="marker:none" fill="#f57a74" paint-order="stroke markers fill"/><g paint-order="stroke markers fill"><path style="marker:none" d="M33 41.15c-.1.27-.34.45-.56.45-.28 0-.44-.14-.44-.4 0-.1-.06-.24-.13-.3-.17-.14-.02-.48.28-.61.27-.13.82.04.82.25 0 .08.02.22.04.31a.6.6 0 01-.01.3z" fill="#f57a74"/><path style="marker:none" d="M34.69 41.2c-.12.12-.23.14-.47.1-.42-.08-.52-.2-.56-.62-.02-.3 0-.35.2-.4.31-.1.77-.1.83-.01a2 2 0 01.1.42c.04.27.02.39-.1.5z" fill="#005ba0"/><path style="marker:none" d="M36.63 41.37a.94.94 0 01-.47-.04c-.72-.23-.71-.22-.71-.65 0-.36.02-.4.24-.45a12 12 0 00.38-.1c.08-.01.24 0 .36.05.16.06.21.15.22.37 0 .17.04.4.08.53.04.18.02.25-.1.3z" fill="#f57a74"/><path style="marker:none" d="M38.52 41.14a.44.44 0 01-.26.11c-.1 0-.16.06-.16.13 0 .17-.1.17-.5 0-.3-.12-.3-.13-.26-.54.02-.22.1-.44.15-.48.17-.11.64-.19.88-.15.18.02.22.08.24.42.01.24-.02.45-.09.51z" fill="#005ba0"/><path style="marker:none" d="M40.83 40.92c-.05.08-.15.15-.22.15s-.13.04-.13.1c0 .04-.14.08-.31.08-.35 0-.45-.15-.47-.72 0-.29.02-.32.28-.37l.46-.1c.1-.03.23-.01.3.03.15.1.2.62.09.83z" fill="#f57a74"/><path style="marker:none" d="M42.68 41.17c-.23.12-.39.1-.79-.1-.32-.18-.36-.23-.32-.45.03-.13.02-.27-.03-.3-.3-.18.34-.5.91-.46l.36.02.02.6c0 .5-.02.62-.15.69z" fill="#005ba0"/><path style="marker:none" d="M44.5 41.1c-.29.2-.43.2-.75-.1a1.5 1.5 0 01-.44-1c0-.18.59-.36.93-.26.22.05.27.12.32.41l.11.57c.04.17 0 .26-.16.38z" fill="#f57a74"/></g><path d="M44.8 36.3c-.1.56-.26.89-.4.89a.25.25 0 00-.18.1c-.1.15-.71.41-1.88.8-1.2.4-2.29.87-2.84 1.22-.39.25-.49.28-.93.24-.35-.03-.54-.09-.64-.21-.1-.12-.42-.25-.92-.37l-.85-.2c-.05 0-.06.15-.03.32.07.46-.15.67-.63.6-.2-.02-.74 0-1.2.06-1.78.22-2.1.22-2.54 0-.21-.1-.41-.26-.44-.34a4.36 4.36 0 00-.12-.32c-.08-.2-.2-1.59-.22-2.79-.01-.4-.03-.83-.05-.92-.03-.15.02-.18.28-.2a7.95 7.95 0 001.23-.17c.1-.04.1-.08-.07-.2-.19-.17-.2-.24-.25-1.97-.05-1.75-.05-1.8.14-2 .25-.26.42-.24 1.54.12.61.2 1.26.34 1.8.4a5.98 5.98 0 012.17.44c.1 0 .36.1.6.23l.42.23.43-.19a17.6 17.6 0 014.62-1.69c.43 0 .73.25.87.72.14.46.22 4.63.1 5.2zm-1.74-4.8c-.48.03-2.79 1-3.25 1.39-.35.29-.83.5-1.14.5-.1 0-.34-.08-.53-.17-.32-.15-1.55-.55-3.07-1-.4-.1-.79-.16-1.19-.14l-.6.03.03 1.37c.02.75.05 1.4.08 1.44.03.05.39.06.8.04.89-.06 1.41.08 1.73.47.21.24.22.29.19 1.4l-.04 1.13.33.05a11.53 11.53 0 012.23.55c.05.03.22 0 .38-.07l1.78-.82a16.53 16.53 0 012.37-.77l.23-.11.03-1.72.02-2.65v-.93zm-.43 1.8c-.22.09-.22.1-.08.26.23.25.1.38-.33.32a.99.99 0 00-.62.08c-.34.18-.44.17-.57-.04-.08-.13-.08-.23-.02-.35.06-.12.04-.2-.08-.3-.4-.37-.24-.73.3-.72.28 0 .36-.03.36-.15 0-.38.63-.46.79-.1.04.1.17.24.28.29.3.13.29.6-.03.71zm-.24 1.35c-.15.2-.52.2-.7-.01-.3-.34-.08-.67.32-.48.1.05.26.12.35.14.18.06.19.14.03.35zm-.08 1.52c-.1.13-.19.15-.44.1-.3-.06-.33-.09-.33-.37 0-.26.03-.3.21-.3.12 0 .24.06.27.13.02.07.13.13.23.13.2 0 .22.08.06.3zm-1.21.2c-.22.24-.36.25-.6.04-.27-.23-.29-.5-.03-.53.11-.02.25.01.3.06.06.06.2.1.3.1.25 0 .26.08.03.34zm-.27-1.55c-.05.1-.2.16-.35.16-.27 0-.4-.16-.4-.49 0-.22.46-.3.54-.1.03.08.11.15.18.15.14 0 .15.07.03.28zm-1.39.1c-.33.17-.58.03-.53-.3.04-.3.3-.32.57-.05l.22.22zm.05 1.45c-.38.3-.68.18-.62-.24.05-.33.26-.35.54-.06.15.16.17.23.08.3zm-1.32.23c-.23.17-.55.06-.59-.2-.05-.38.4-.63.5-.27.02.1.1.17.16.17.18 0 .15.15-.07.3zm-.36-1.58c-.46.15-.61.08-.58-.28.03-.41.29-.5.53-.19.18.24.2.42.05.47zm-1.58-.67c-.2.2-.52.25-1.45.27-.55.01-.64 0-.83-.2-.26-.29-.2-.45.18-.47.16 0 .48-.06.7-.1.65-.16 1.27-.13 1.44.05.19.21.19.24-.04.45zm-.1-1c-.19.16-.9.28-1.76.3-.35 0-.64-.2-.73-.5-.05-.18-.02-.2.85-.26 1-.08 1.44-.07 1.68.07.2.1.2.18-.04.38zM34.3 35.8c-.65-.02-2.57.12-2.64.18-.01.02.02.12.07.22.06.1.12.28.13.39l.1.57.06.38 1.03-.06c.56-.03 1.21-.09 1.44-.14l.42-.09.03-.59c.05-.92.1-.85-.64-.86zm.23.98c-.11.15-.13.16-.27.02-.25-.25-.23-.86.03-.86.2 0 .23.04.3.4.05.17.02.33-.06.44zm-.67.44c-.33.17-.53.17-.78 0-.24-.17-.26-.48-.04-.48.1 0 .2.04.26.1.08.07.14.06.25-.05.2-.2.4-.15.5.1.05.16.02.22-.2.33zm-.26-.67c-.22.12-.63-.02-.63-.2 0-.19.27-.3.53-.24.28.07.33.32.1.44zm-1.05.45c-.4 0-.6-.62-.26-.83.2-.13.3 0 .37.46.06.33.04.37-.1.37zm2.03 1.09c-.18.03-.81.08-1.4.11l-1.1.06v.44c0 .37.03.43.16.39.09-.03.46-.07.82-.1.82-.08 1.1-.11 1.52-.18.32-.06.34-.07.34-.41v-.36z"/></g><g><path d="M69.3 35.37c-.15-2.4-.2-8.25-.1-11.32.04-.8.03-1.5 0-1.55-.07-.1-14.63-.1-14.73 0-.13.12-.2 2.43-.16 5.05l.08 6.85a119 119 0 00.19 7.25c.07.12 9.57-.03 11.37-.18a69.4 69.4 0 012.3-.14l1.32-.06-.06-1.78c-.03-.98-.12-2.83-.2-4.12zm1.95 6.44c-.1.26-.34.43-.69.53-.32.08-.79.11-3.49.23l-2.2.13c-2.4.16-8.9.24-10.65.14-.82-.05-1.12-.24-1.27-.81-.13-.49-.29-16.42-.2-19.16.04-1.06.14-1.55.35-1.68.04-.02.17.02.3.08.17.09.33.1.67.03.25-.05.52-.06.6-.02.1.03 3.73.07 8.09.08 7.6.01 7.93.02 8.1.18.18.16.19.23.15 1.85l-.11 2.57c-.13 1.66-.07 7.81.1 9.23.03.27.13 2.48.18 3.84 0 .25.04.94.07 1.55.03.6.03 1.16 0 1.23z"/><path d="M55.18 41.63l-.55-.04-.06-.6a535 535 0 01-.2-16.9c.04-.76.11-1.43.17-1.5.07-.1 1.63-.12 7.2-.12 3.91 0 7.18.03 7.26.06.14.05.16.63.16 5.53a178.41 178.41 0 00.33 11.95l.06 1.18-.8.06c-2.95.2-4.3.26-7.16.3l-4.54.08c-.72.02-1.56.02-1.87 0z" style="marker:none" color="#000" overflow="visible" fill="#fffef2" stroke="#fffef2" stroke-width=".3975552" stroke-linecap="round" stroke-linejoin="round" paint-order="stroke markers fill"/><path d="M56.6 38.8c-.12-.78-.19-1.7-.17-2.36l.02-.65.4-.08c.21-.04.82-.09 1.34-.1l.95-.04v.18c0 .12-.02.17-.09.17-.15 0-.47.23-.5.35-.03.09 0 .17.15.32.16.17.21.2.4.17l.2-.03.03.32.07 1.09c.03.6.02.79-.04.86-.06.08-.28.1-1.24.16l-1.31.06c-.14 0-.15-.03-.21-.42zm1.76-1.57c.3-.22.34-.28.25-.46-.08-.17-.38-.21-.58-.08-.1.07-.16.08-.25.02-.13-.09-.5 0-.59.13-.08.14 0 .38.18.47.08.05.29.09.45.09.25 0 .34-.03.54-.17zm-1.24-.52c.14-.2.12-.48-.04-.59-.27-.17-.55 0-.55.35 0 .33.41.5.6.24zm.93-.23c.1-.1.09-.38-.02-.42a.82.82 0 00-.32.01c-.2.04-.25.08-.26.2-.01.08.02.16.08.2.13.1.43.1.52.01z" style="marker:none" color="#000" overflow="visible" fill="#f57a74" stroke="#f57a74" stroke-width="1.1165022000000002" stroke-linecap="round" stroke-linejoin="round" paint-order="stroke markers fill"/><path d="M57.29 40.87c-.18.27-.26.28-.86.08-.35-.12-.45-.2-.5-.4-.08-.28.05-.56.29-.64.17-.05.95.12 1.11.25.15.12.14.42-.04.7z" style="marker:none" fill="#f57a74" paint-order="stroke markers fill"/><path d="M59.06 29.96c-.24.13-.65.19-1.8.24l-1.04.05-.18-.3c-.14-.23-.18-.52-.24-1.6l-.08-1.46c0-.28 1.85-.27 2.78 0 .6.18.6.18.66 1.65.06 1.25.06 1.34-.1 1.42zM59.57 40.94c-.16.16-.31.24-.4.2a.3.3 0 00-.27.06c-.1.08-.2.07-.44-.09-.27-.16-.31-.24-.31-.53 0-.4.03-.43.61-.5.48-.06.8.08.98.41.08.15.05.23-.17.45z" style="marker:none" fill="#005ba0" paint-order="stroke markers fill"/><path d="M60.84 27.5c-.24 0-.48-.2-.48-.42 0-.08.1-.1.33-.09.29.03.33.06.36.27.02.21 0 .25-.21.25zM61.36 29.92c-.1.1-.5.06-.68-.07-.29-.22-.12-.42.32-.38.3.02.38.06.4.2.01.1 0 .21-.04.25zM61.38 28.93c-.16.07-.28.06-.52-.05-.47-.23-.58-.4-.37-.55.26-.19.7-.15.91.09.25.26.24.4-.02.51z"/><path d="M61.48 40.83c-.3.27-.6.31-.95.12-.24-.13-.32-.24-.36-.5-.05-.3-.03-.33.18-.42.34-.13.97-.12 1.1.03.23.24.24.57.03.77z" style="marker:none" fill="#f57a74" paint-order="stroke markers fill"/><path d="M62.68 27.48c-.07.19-.58.13-.86-.1-.23-.18-.25-.23-.15-.35.16-.18.37-.18.76.01.3.15.34.22.25.44zM62.65 29.89c-.13.07-.22.06-.4-.05-.26-.18-.28-.36-.03-.44.18-.06.61.16.61.31 0 .05-.08.13-.18.18zM63.01 28.96c-.19.17-.4.13-.75-.14-.18-.15-.21-.21-.13-.3.14-.17.36-.16.74.02.36.18.37.21.14.42z"/><path d="M63.53 40.86c-.05.09-.25.17-.52.2-.35.05-.48.03-.66-.1-.2-.14-.22-.2-.17-.51.03-.2.1-.38.14-.4.1-.07 1.06.07 1.14.16.11.12.15.5.07.65z" style="marker:none" fill="#005ba0" paint-order="stroke markers fill"/><path d="M63.87 30.03c-.22.05-.63-.07-.72-.22-.07-.1.21-.27.46-.27.15 0 .46.25.46.38 0 .03-.1.08-.2.1zM64.16 28.92c-.26.14-.8-.14-.8-.41 0-.19.65-.16.83.04.18.2.18.25-.03.37zM64.36 27.53c-.2.21-.9-.15-.8-.41.08-.2.52-.18.7.03.17.2.2.3.1.38zM65.14 28.92c-.3 0-.57-.26-.46-.43.05-.09.15-.1.33-.06.44.1.54.49.13.49z"/><path d="M65.33 40.4c-.1.26-.49.6-.65.58a1.4 1.4 0 01-.39-.18c-.26-.17-.31-.65-.09-.84.23-.19 1.22.02 1.19.26l-.06.18z" style="marker:none" fill="#f57a74" paint-order="stroke markers fill"/><path d="M66.3 28.87c-.1.04-.22-.02-.36-.16-.2-.2-.2-.22-.05-.3.23-.12.56.02.56.23 0 .1-.06.2-.15.23zM66.28 27.68c-.31.13-.53.07-.8-.22-.4-.43.01-.63.7-.33.43.18.47.4.1.55z"/><path d="M67.07 40.64a.5.5 0 01-.31.26c-.33.08-.77-.34-.73-.71.02-.22.08-.28.32-.34.44-.11.81.06.8.37 0 .12-.04.32-.08.42z" style="marker:none" fill="#005ba0" paint-order="stroke markers fill"/><path d="M68.01 30.36c-.33 0-.85.09-1.76.3-1.27.28-2.26.6-3.06.98l-.67.31-.75-.16c-.41-.08-.9-.23-1.08-.32-.21-.1-.68-.2-1.28-.26-.52-.05-1.23-.14-1.57-.2a4.51 4.51 0 00-1.58-.03c-.33.06-.44.6-.32 1.65l.12 1.48c.01.43.05.57.19.68.16.12.16.13.02.14l-.24.04c-.05.01-.17.03-.26.03-.33.03-.43.22-.36.75.04.27.06 1.07.04 1.78-.04 1.43.01 1.65.47 1.97.2.15 1.27.32 1.87.3l.67-.01c.59-.02 1.5-.17 1.74-.29.1-.04.16-.18.16-.34 0-.14.03-.26.07-.26.13 0 1.12.37 1.52.58.38.19.47.2.93.13.28-.05.57-.14.65-.21a11.6 11.6 0 012.92-1.25c1.05-.34 1.65-.62 1.71-.8.03-.08.06-.28.06-.46 0-.17.06-.39.14-.47.11-.13.15-.46.19-1.73.02-.87.06-1.6.08-1.61.02-.02.03-.58.03-1.24 0-1.18 0-1.2-.22-1.36a.71.71 0 00-.43-.12zm-.71.96c.15.16.03 3.6-.18 4.85l-.15.93-.86.3c-1.64.55-2.1.73-2.78 1.08-.69.35-.7.35-1 .2a5.46 5.46 0 00-.55-.22l-.58-.21c-.2-.08-.48-.14-.64-.14h-.28l-.03-1.45c-.02-1-.06-1.48-.14-1.58-.14-.17-.6-.24-1.68-.25-.52-.01-.84-.05-.86-.12-.08-.72-.24-1.47-.35-2.02l-.07-.44-.06-.42h.66c.36 0 .88.06 1.16.12l1.08.23c.3.06.87.26 1.26.45.47.23.88.36 1.26.4.55.06.57.05.9-.25.57-.5 1.05-.7 2.72-1.18a8.3 8.3 0 011.17-.28zm-1.4.77c-.58-.02-.88.1-.85.3v.43c-.01.31-.04.34-.54.57-.6.26-.67.43-.33.78.13.14.34.23.64.27.4.05.48.03.77-.2.33-.24.4-.4.24-.5-.05-.04-.08-.28-.08-.54 0-.27.03-.48.08-.48s.1.07.1.17c0 .16.31.45.61.55.07.03.22.02.33-.02.23-.09.24-.13.1-.64-.14-.52-.37-.67-1.08-.69zm-6.36.27a9.1 9.1 0 00-1.74.23c-.39.05-.41.22-.32.45.1.23.41.07.76.1l1.27-.03a.82.82 0 01.3-.04c.42 0 .73-.27.58-.51-.09-.14-.4-.21-.85-.2zm-1.16.9a3.8 3.8 0 00-.6.11c-.3.06-.37.17-.17.41.2.25.75.23 1.7.2.85-.02 1.1-.05 1.24-.17.35-.32.08-.57-.64-.6-.5 0-1.07.04-1.53.05zm4.36 1.49c-.42 0-.49.1-.26.34.2.21.44.24.6.08.12-.12.12-.1.05-.28-.04-.1-.16-.14-.4-.14zm-1.65.1c-.17-.01-.22.03-.26.12-.04.11 0 .21.14.32.25.2.8.23.8.03 0-.07.05-.13.1-.13.08 0 .07-.05-.03-.14a1.14 1.14 0 00-.54-.19l-.21-.02zm4.53.02c-.1 0-.14.04-.14.15 0 .09.08.2.17.26.2.1.57.12.66.03.2-.2-.03-.38-.54-.43l-.15-.01zm-1.35.02c-.12 0-.21.03-.23.08-.12.3.48.56.77.32.12-.1.13-.15.04-.23-.12-.1-.38-.17-.58-.17zm-6.65.72c.72 0 1.36.03 1.39.06.02.02.05.2.07.42.04.38.04.38-.05.09-.08-.25-.13-.29-.33-.27-.2.03-.24.08-.25.28-.01.29.29.54.53.45.12-.05.14.01.14.37 0 .24.03.76.06 1.15l.05.72-.38.05c-.63.1-2.03.1-2.11 0-.05-.04-.1-.53-.13-1.09a8.15 8.15 0 00-.28-2.05c-.05-.14.01-.16.55-.17h.74zm-.65.22c-.2-.01-.41.17-.41.38 0 .27.3.46.49.3.16-.13.16-.6 0-.67a.27.27 0 00-.08-.01zm6.16.08a.7.7 0 00-.17.02c-.17.05-.22.11-.2.25.03.24.55.4.74.24.27-.22 0-.52-.37-.5zm-5.46.09c-.26 0-.37.12-.23.3.13.16.59.17.65.02.08-.2 0-.29-.3-.32h-.12zm4.07.02c-.21 0-.42.07-.47.2-.13.33.7.64.91.34.17-.23.15-.28-.1-.45a.67.67 0 00-.34-.09zm2.87.05c-.18 0-.35.05-.41.1-.11.12.45.61.7.61a.6.6 0 00.33-.14c.2-.18.21-.38.03-.44l-.29-.1a.73.73 0 00-.2-.03h-.16zm-7.18.48c-.1 0-.17.08-.17.23 0 .46.97.57 1.26.14.1-.15.08-.21-.1-.3-.11-.07-.2-.06-.34.04-.17.11-.22.11-.41-.02a.48.48 0 00-.24-.09z"/><path d="M68.63 40.58c-.14.41-.45.46-.83.12-.35-.32-.44-.7-.2-.82.23-.13.91-.12 1.04.01s.13.29 0 .69zM55.89 25.07c-.2.18-.6.12-.77-.12-.2-.29.04-.99.35-.98.5 0 .59.08.59.52 0 .3-.05.46-.17.58z" style="marker:none" fill="#f57a74" paint-order="stroke markers fill"/><path d="M58.07 25a.38.38 0 01-.22.11c-.07 0-.18.06-.26.14-.11.11-.16.11-.38 0-.26-.14-.33-.34-.28-.81.05-.46.73-.65 1.07-.3.2.2.24.7.07.87z" style="marker:none" fill="#005ba0" paint-order="stroke markers fill"/><path d="M59.88 24.78c-.2.32-.33.36-.65.2-.27-.14-.31-.34-.2-.92.05-.24.1-.27.35-.27.2 0 .34.06.47.23.22.28.23.44.03.76z" style="marker:none" fill="#f57a74" paint-order="stroke markers fill"/><path d="M61.72 24.93c-.24.3-.26.3-.53.19-.32-.14-.42-.42-.3-.88.07-.3.1-.32.46-.35.29-.02.41.02.5.14.2.25.15.57-.13.9z" style="marker:none" fill="#005ba0" paint-order="stroke markers fill"/><path d="M63.82 24.84c-.16.17-.25.2-.59.16-.48-.05-.64-.24-.57-.63.08-.41.18-.5.65-.5.34 0 .45.05.56.2.2.27.18.53-.05.77z" style="marker:none" fill="#f57a74" paint-order="stroke markers fill"/><path d="M65.79 24.94c-.16.2-.18.2-.54.09-.66-.22-.86-.85-.34-1.1.4-.2.65-.18.86.1.23.28.24.65.02.91z" style="marker:none" fill="#005ba0" paint-order="stroke markers fill"/><path d="M67.52 24.6c-.25.36-.54.42-.82.15-.16-.15-.21-.3-.21-.57v-.37l.41-.06c.28-.03.43-.02.46.05.02.05.1.16.2.24.2.18.2.19-.04.55z" style="marker:none" fill="#f57a74" paint-order="stroke markers fill"/></g><g><path d="M21.53 22.76c-.1-.4-.15-.48-.3-.47-1 .1-5.03.2-8.82.25a90.97 90.97 0 00-5.3.16c-.07-.02-.14 0-.17.05-.16.25-.01 15.3.17 17.1.2 2 .21 2.1.38 2.03.08-.04.56-.08 1.06-.1a99.1 99.1 0 016.38-.25 60.92 60.92 0 003.8-.17c2.47-.13 2.87-.16 2.91-.18.02-.02.04-4.06.02-8.98-.01-7.1-.04-9.05-.13-9.44zm1.7 19.5c-.1.11-.26.2-.35.2-.1 0-.2.04-.22.09-.05.08-.48-.06-.58-.19a8.45 8.45 0 00-1.37.02l-3.49.16c-3.84.17-5.68.28-6.5.37-.43.06-1.37.12-2.09.15-1.08.04-1.33.02-1.5-.1a2.78 2.78 0 00-.6-.24c-.24-.07-.4-.18-.44-.31-.04-.1-.12-.21-.18-.23-.19-.06-.36-2.75-.4-6.39-.06-4.7-.07-9.8-.04-12.17l.03-1.93.23-.12c.15-.07.3-.09.43-.04.11.05.89.06 1.72.04l3.78-.09c3.16-.06 5.92-.13 6.8-.18 2.72-.14 3.7-.15 4.03-.04.42.14.65.33.65.55 0 .09.06.26.14.38.12.17.13.37.1 1.08a220.36 220.36 0 00-.02 16.59c.05 2.14.04 2.22-.13 2.4z"/><path d="M7.33 41.4c-.04-.24-.1-.85-.16-1.36-.13-1.25-.33-14.58-.24-16.07L7 22.8l.8-.06c.43-.04 2.92-.1 5.52-.16 2.6-.05 5.47-.12 6.37-.16l1.63-.06.12.28c.1.21.13 2.45.16 9.38l.04 9.1-.23.04c-.31.07-5.78.33-9.55.46-1.7.05-3.4.13-3.78.16l-.7.05z" style="marker:none" color="#000" overflow="visible" fill="#fffef2" stroke="#fffef2" stroke-width=".3975552" stroke-linecap="round" stroke-linejoin="round" paint-order="stroke markers fill"/><path d="M9.45 39.38c-.17-.02-.2-.04-.22-.1-.02-.07-.06-.48-.09-.8l-.02-.21H11.65l.03.5.03.5c-.01.01-.16.04-.34.06-.31.04-1.72.08-1.92.05z" style="marker:none" color="#000" overflow="visible" fill="#005ba0" stroke="#005ba0" stroke-width="1.1165022000000002" stroke-linecap="round" stroke-linejoin="round" paint-order="stroke markers fill"/><path style="marker:none" color="#000" overflow="visible" paint-order="stroke markers fill" d="M8.52 37.6h4.03v.46H8.52z"/><path d="M10.78 30.18l-.73.12a.72.72 0 00-.23.09c-.06.04-.37-.06-.76-.24-.65-.32-.65-.32-.7-.73a9.39 9.39 0 01.03-2.33c.07-.14.2-.16 1.24-.13.86.01 1.2.05 1.29.15.14.14.47 1.93.47 2.56v.4l-.6.11z" style="marker:none" fill="#005ba0" paint-order="stroke markers fill"/><path d="M13.33 28.02c-.28.18-.58.12-.9-.17-.18-.17-.33-.34-.33-.39 0-.2.72-.27 1.1-.1.16.08.22.18.22.36 0 .13-.04.27-.1.3zM13.24 30.31c-.37.12-1.05-.19-.9-.41.01-.04.23-.07.47-.07.33 0 .45.04.52.17.13.23.12.25-.09.31zM13.75 29.07c-.52.17-1.12.07-1.38-.24-.15-.19-.01-.25.65-.29.52-.03.58-.01.7.19.17.25.18.3.03.34zM14.15 30.18c-.41 0-.75-.21-.55-.34.1-.08.45-.06.77.04.06.02.11.1.11.17 0 .1-.09.13-.33.13zM14.4 27.8c-.49 0-.9-.3-.74-.55.07-.13.7-.03.87.13.22.23.16.42-.13.42zM15.05 28.91c-.17.07-.75-.02-.86-.13-.05-.05-.06-.15-.03-.23.06-.15.5-.18.76-.05.22.12.3.35.13.41zM15.42 27.62c-.27 0-.4-.04-.44-.14-.08-.2.01-.3.3-.3.36 0 .53.08.53.27 0 .14-.07.17-.39.17zM15.61 30.29c-.26.04-.67-.11-.73-.27-.07-.2.04-.28.3-.23l.43.09c.12.02.2.1.2.2 0 .12-.07.19-.2.2zM16.1 28.8c-.2.2-1.01-.15-.86-.39.07-.12.69-.1.82.02.11.12.13.28.04.37zM16.86 27.68c-.68-.09-.81-.5-.17-.5.25 0 .37.04.44.17.17.32.12.38-.27.33zM17.25 28.9c-.24.09-.73-.12-.73-.32 0-.24.66-.24.79 0 .12.23.11.25-.06.31zM17.27 30.24c-.13.05-.75-.03-.75-.1l-.06-.17c-.04-.11.01-.14.27-.14.52 0 .88.28.54.4zM18.03 27.62c-.4 0-.7-.25-.52-.43.23-.23.86-.05.86.26 0 .14-.06.17-.34.17zM18.41 30.27c-.2.08-.3.07-.54-.06-.28-.15-.37-.32-.22-.42.11-.07.74.1.88.25.12.12.11.14-.12.23zM18.92 28.99c-.39.15-1.11-.3-.8-.5a.37.37 0 01.25-.04l.37.09c.26.06.4.37.18.45zM19.69 27.6c-.77-.07-.96-.51-.22-.51.25 0 .42.05.52.16.27.3.19.4-.3.35zM20.8 32.58c-.03.03-.08.99-.12 2.13-.07 2.18-.1 2.36-.47 2.36-.12 0-.16.05-.13.12.02.07-.02.23-.1.37-.13.2-.38.32-1.65.75-2.1.7-2.37.8-2.52.92-.3.22-.54.32-.78.32-.26 0-1.1-.31-1.8-.66-.23-.12-.43-.2-.45-.17-.07.59.43.75-.17 1.48h-.68l-1.1-.05-1.2.06-.93-.05-.36-.08-.26-.2s-.4-2-.4-3.19c0-1.43.15-1.64 1.17-1.65.26 0 .3-.08.14-.24-.14-.14-.33-1.71-.33-2.73 0-.84.03-.94.48-1.15.36-.17 3.6.15 4.09.4.08.05.33.15.55.24a6 6 0 01.74.38c.35.2.36.2.75.06.22-.09.76-.26 1.2-.38l1.41-.39c1.36-.37 2.58-.4 2.84-.04.1.14.17 1.3.08 1.39zm-1.37 1.78c0-2.25-.01-2.51-.15-2.56-.15-.06-2.43.56-3.34.9-.4.16-.68.2-1.2.18a2.28 2.28 0 01-1.32-.37c-.36-.19-.88-.4-1.15-.45-.45-.1-.73-.13-1.92-.26l-.46-.04v.82c.01.9.11 2.16.18 2.23.02.02.46.06.98.09.58.02 1.05.1 1.2.18.26.13.26.13.33 1.22l.07 1.35.01.26h.54c.43 0 .65.06 1.19.32l.65.33.63-.27c.85-.36 3.1-1.1 3.57-1.17.28-.05.36-.1.29-.16-.07-.07-.1-.9-.1-2.6zm-.99-.07c-.14.42-.78 1.03-1.02.99-.11-.02-.22 0-.25.04-.17.28-.76-.16-1.52-1.15-.31-.42-.24-.9.17-1.08.3-.13.88-.05 1.01.14.13.17.23.17.49-.03.29-.22.57-.28.87-.18.35.12.46.67.25 1.27zm-.64 2.04c-.07.03-.2 0-.3-.05-.32-.17-.22-.7.12-.7.06 0 .3.5.3.6 0 .06-.05.12-.12.15zm-1.17 1.16c-.05.14-.4.15-.54 0-.06-.05-.1-.21-.1-.35 0-.2.03-.24.2-.24s.53.33.5.46l-.06.13zm-.57-1.23c-.15.14-.42.13-.48-.02-.03-.07 0-.23.08-.36l.12-.24.2.2c.21.24.22.28.08.42zm-1.22 1.43c-.27.15-.55-.04-.52-.34.04-.3.4-.38.58-.14.16.23.14.37-.06.48zm0-1.33c-.25.14-.47-.08-.4-.38.09-.32.4-.29.5.06.04.18.02.26-.1.32zm-1-.1c-.17.18-.5.13-.6-.1-.13-.27.04-.72.24-.64a.8.8 0 00.22.05c.04 0 .08.08.08.18 0 .1.04.17.08.17.13 0 .12.21-.01.34zm-.8-2.31c-.08.15-.24.2-.98.33-1.13.18-1.14.18-1.41-.06-.2-.17-.22-.22-.12-.4.1-.18.2-.21.77-.25.95-.08 1.62-.04 1.73.08.07.08.07.17 0 .3zm-.06-.8c-.06.16-.18.2-.76.25-1.36.14-1.83.04-1.78-.37.02-.21.06-.23.47-.25.24 0 .77-.04 1.18-.07.9-.07 1.07.01.9.44zm-1.3 4.2c-.03-.5-.08-.7-.13-.6-.04.08-.14.15-.2.15-.15 0-.49-.31-.49-.44 0-.15.37-.44.5-.39.08.04.12-.02.12-.18v-.23h-.77c-.43.01-1.05.06-1.4.12l-.61.11v.88c0 .48.05 1.27.12 1.74l.13.87 1.2-.07 1.4-.07c.18 0 .2-.04.2-.58 0-.31-.03-.9-.06-1.3zm-.95-.08c-.12.05-.22.13-.22.17 0 .1-.6.1-.8-.01-.2-.12-.29-.35-.16-.5.12-.15.6-.16.6-.02 0 .06.07.04.17-.04.19-.18.38-.2.52-.04.17.16.13.33-.11.44zm-.42-.66c-.18.13-.55 0-.55-.2 0-.14.07-.18.33-.2.28-.03.33 0 .33.14 0 .1-.05.2-.11.26zm-.84.1c-.12.33-.52.29-.6-.05-.08-.28.1-.49.4-.45.23.02.31.23.2.5z"/><path d="M9.5 40.57c-.13-.25-.38-.42-.6-.4-.27.02-.42.18-.4.44 0 .1-.04.24-.1.3-.16.16.02.48.32.6.29.1.82-.11.8-.32 0-.08 0-.22.02-.32a.6.6 0 00-.04-.3z" style="marker:none" fill="#f57a74" paint-order="stroke markers fill"/><path d="M11.18 40.4c-.12-.11-.24-.13-.48-.06-.4.1-.5.23-.5.65 0 .31.03.36.22.4.33.06.79.03.83-.06a2 2 0 00.07-.44c.02-.27-.01-.39-.14-.5z" style="marker:none" fill="#005ba0" paint-order="stroke markers fill"/><path d="M13.1 40.07a.94.94 0 00-.46.08c-.7.29-.7.28-.66.7.03.36.05.4.27.43l.4.07c.07.01.23-.02.34-.07.16-.07.2-.17.2-.4 0-.16 0-.4.03-.53.03-.18 0-.25-.11-.28zM17.32 40.2c-.05-.09-.16-.15-.23-.14-.07 0-.13-.03-.13-.08s-.15-.08-.32-.07c-.35.03-.43.2-.4.76 0 .29.03.32.3.35l.46.06c.1.02.23 0 .3-.05.14-.12.16-.64.02-.84z" style="marker:none" fill="#f57a74" paint-order="stroke markers fill"/><path d="M19.15 39.8c-.24-.1-.4-.07-.78.17-.3.2-.34.24-.28.46.04.13.03.27-.01.3-.28.2.38.48.95.4l.35-.06-.03-.6c-.03-.5-.06-.61-.2-.67z" style="marker:none" fill="#005ba0" paint-order="stroke markers fill"/><path d="M20.98 39.73c-.31-.2-.45-.16-.74.15-.24.25-.4.7-.37 1.03.01.19.61.31.95.2.21-.08.26-.15.29-.45l.06-.57c.03-.17-.02-.26-.2-.36zM8.59 25.1c-.2.17-.59.12-.77-.12-.2-.29.04-.99.35-.99.5 0 .6.09.6.53 0 .3-.06.46-.18.57z" style="marker:none" fill="#f57a74" paint-order="stroke markers fill"/><path d="M10.78 25.03a.38.38 0 01-.23.11c-.07 0-.18.06-.25.13-.12.12-.16.12-.39 0-.26-.13-.33-.33-.28-.8.05-.46.73-.65 1.08-.3.2.2.23.7.07.86z" style="marker:none" fill="#005ba0" paint-order="stroke markers fill"/><path d="M12.58 24.8c-.2.32-.33.37-.64.2-.28-.14-.32-.34-.2-.9.04-.25.08-.29.34-.29.21 0 .34.07.47.24.23.28.23.44.03.76z" style="marker:none" fill="#f57a74" paint-order="stroke markers fill"/><path d="M14.43 24.96c-.25.29-.27.3-.53.18-.33-.13-.43-.41-.31-.87.07-.3.1-.32.46-.35.29-.02.41.01.5.13.2.25.15.58-.12.9z" style="marker:none" fill="#005ba0" paint-order="stroke markers fill"/><path d="M16.52 24.87c-.16.17-.25.2-.59.16-.47-.06-.64-.24-.57-.63.08-.42.19-.5.65-.5.34 0 .46.04.57.2.19.27.17.53-.06.77z" style="marker:none" fill="#f57a74" paint-order="stroke markers fill"/><path d="M18.5 24.97c-.17.2-.19.2-.54.08-.67-.22-.86-.84-.35-1.1.4-.2.66-.17.86.1.23.29.24.65.02.92z" style="marker:none" fill="#005ba0" paint-order="stroke markers fill"/><path d="M20.22 24.62c-.25.37-.54.43-.82.16-.16-.15-.21-.3-.21-.57v-.37l.42-.06c.28-.04.43-.02.45.04.02.06.1.17.2.24.2.18.2.2-.04.56z" style="marker:none" fill="#f57a74" paint-order="stroke markers fill"/><path d="M15.6 40.9c-.04.09-.25.17-.51.2-.35.06-.49.03-.67-.1-.2-.14-.22-.2-.17-.51.03-.2.1-.38.14-.4.1-.07 1.06.07 1.14.16.11.13.16.5.08.65z" style="marker:none" fill="#005ba0" paint-order="stroke markers fill"/></g><g><path d="M13.97 6.95l-.6.14c-.59.13-.93.75-.75 1.36.12.38.14.39.5.2.33-.16 1.31-1.55 1.21-1.71-.02-.03-.18-.03-.36.01zm7.13 1.97c-.16.37-.33.48-.77.52-.47.04-.94-.18-1.21-.56-.2-.29-.36-.35-.36-.14 0 .23-.59 1.14-1.03 1.6-.47.47-.7.56-1.26.49-.67-.25-.95-1-.83-1.3-.05-.14.1-.43.35-.7l.62-.74c.34-.44.4-.56.3-.62-.19-.13-.72-.2-.75-.12-.06.19-1.1 1.68-1.36 1.97-.16.18-.45.37-.64.43-.2.06-.42.15-.5.19-.08.04-.42.07-.75.07-.62 0-1.2-.2-1.36-.48-.04-.07-.1-.13-.15-.13-.04 0-.25-.17-.46-.38-.34-.32-.4-.44-.4-.72 0-.61.24-1.37.54-1.69.7-.75 1.43-1.03 2.88-1.12l.95-.06V5.1c0-.19-.07-.46-.14-.61l-.14-.27-.87.06c-.78.05-.9.04-1.15-.12-.32-.19-.9-.8-.76-.8.04 0 .08-.13.08-.28 0-.3.28-.65.44-.55.05.03.14.02.2-.04.42-.34 1.73-.23 2.89.26.66.28.91.53.98.94.02.13.1.42.16.65.07.22.12.6.1.86l-.02.46.36.15c.36.16.37.16.42-.03l.2-.66c.14-.45.53-1.15.69-1.22.03-.01.06-.07.06-.13 0-.2.64-.42 1.01-.36.85.14.94.53.51 2.36-.07.34-.17.68-.22.77-.06.12-.01.18.21.3.55.28.89.6 1.1 1.04.22.5.24.68.08 1.05zM66.18 5.87c-.01.14-.06.24-.11.24s-.12.1-.16.2a.72.72 0 01-.3.32c-.2.1-.27.1-.73-.14-.48-.24-.54-.3-.98-1.1-.5-.92-.54-1.24-.17-1.65.17-.17.24-.18.76-.13.7.07.9.2 1.25.84.15.26.3.53.35.59.05.05.06.14.03.2-.03.04-.02.15.02.24.04.08.06.26.04.4zM64.9 8.94c-.12.18-.22.38-.22.46 0 .48-1.65 1.45-2.78 1.63-1.34.21-2.9-.32-2.94-1-.01-.2-.08-.29-.31-.38-.16-.07-.35-.1-.42-.08-.39.15-1.83-.52-1.93-.9-.03-.1-.08-.19-.1-.19-.04 0-.07-.2-.08-.44-.01-.24.02-.44.07-.44.04 0 .08-.16.08-.37 0-.25.05-.42.15-.51.09-.08.22-.23.29-.33.07-.11.3-.31.52-.46.33-.22.47-.26 1.05-.27h.66l-.48-.07c-.26-.04-.59-.11-.72-.16-.13-.06-.3-.08-.37-.05-.1.04-.14 0-.14-.17 0-.12-.06-.26-.13-.32-.37-.32.1-.74.98-.9l.62-.1.1-.45c.1-.43.12-.46.52-.6.23-.08.52-.15.65-.14.32 0 .6.4.6.86 0 .35 0 .36.26.36.63 0 1.12.41 1.01.84-.06.26-.62.65-1.01.7a.84.84 0 00-.37.11c-.05.05-.07.64-.06 1.39.04 1.46.13 1.76.6 1.96.41.17.74.05 1.55-.56.68-.5.8-.56 1.29-.61.57-.06 1.1.04 1.21.23.14.21.07.64-.15.96zm-6.56-2.1c-.07-.07-.3.1-.5.35l-.2.27.17.31c.18.34.45.45.58.26.07-.1.03-1.1-.05-1.19zm-4.3 1.86c-.41.6-.75.9-1.43 1.23-.76.37-1.56.48-2.31.3-1.42-.32-2.01-1.53-2.06-4.2-.02-1.1-.01-1.18.19-1.5.26-.4.7-.64 1.28-.64.77-.02.94.4.96 2.31 0 .7.03 1.49.06 1.76.06.45.08.48.31.5.2.03.34-.05.7-.4.77-.73 1.75-1 2.2-.6.35.3.39.8.1 1.24zm-8.68-2.78c-.26.77-1.46.85-2.37.16a1.7 1.7 0 01-.46-.57l-.13-.32-.13.44c-.18.62-.27.69-.94.7-.62.01-.85.13-.68.34.06.07.08.18.06.26-.08.2.05.24 1.03.28 1.73.08 2 .18 2 .73 0 .28-.05.35-.34.54-.2.13-.5.22-.78.25-.26.02-.46.07-.46.11 0 .04.32.23.72.43.6.29.73.38.72.55-.01.32-.13.59-.27.59-.07 0-.12.04-.12.1 0 .18-.89.02-1.67-.3-.4-.17-.77-.3-.8-.27-.04.02-.07.3-.07.63 0 1.08-.3 1.57-.87 1.45-.31-.06-.48-.41-.58-1.2-.05-.47-.07-.5-.25-.45-.1.03-.24.1-.31.16-.24.19-1.01.38-1.25.3-.34-.11-.49-.45-.33-.74.14-.28.53-.7.9-.98l.28-.2-.32.06c-.92.16-1.56-.94-.84-1.45.4-.28.6-.34 1.41-.4.8-.06.84-.07.84-.26 0-.17-.04-.2-.4-.2-.35 0-.45-.03-.62-.25a.95.95 0 01-.2-.37c0-.06-.04-.1-.07-.08-1.56.8-2.1.9-2.51.43-.1-.1-.22-.19-.29-.19-.32 0 .06-.85.45-1 .14-.07.58-.17.97-.22 1.02-.15 1-.14 1-.54 0-.24-.03-.34-.12-.34-.07 0-.15.03-.17.07-.07.1-.72-.02-1.08-.2-.15-.08-.3-.23-.32-.35a1.49 1.49 0 00-.27-.47c-.2-.22-.2-.3-.13-.56.07-.28.12-.31.44-.36.56-.07.82.07 1.12.6.15.25.3.49.36.52.05.03.09.14.1.25 0 .23.55-.81.64-1.22.09-.4.33-.65.89-.88a4.02 4.02 0 011.86-.45c.5.02.5.03.47.28a1.4 1.4 0 01-.45.8c-.1.09-.05.12.26.17.21.04.47.15.58.27l.2.2.2-.25c.1-.14.3-.3.46-.36.15-.06.32-.15.38-.2.06-.04.48-.1.93-.11.77-.04.84-.02 1.06.17.31.26.26.57-.2 1.13-.26.33-.43.44-.9.6-.59.2-.94.2-1.5-.04-.12-.05-.14 0-.13.43.01.44.03.48.2.42.09-.04.44-.06.78-.06.66 0 1.24.2 1.76.6.33.26.4.44.26.82zm-4.99-.95c-.21 0-.5-.02-.65-.05-.24-.05-.26-.03-.3.22-.03.2 0 .27.1.28.85.05 1.23-.04 1.23-.28 0-.14-.06-.17-.38-.17zm-.25-1.64c-.53-.03-.6-.01-.6.14 0 .14.08.16.47.18.25 0 .53.04.62.06.13.04.15.01.13-.15-.03-.2-.08-.2-.62-.23zm-9.37 6.55c-.36.38-1.02.62-1.74.62-1.25 0-2.42-.47-3.02-1.2-.48-.58-.58-1.03-.36-1.68a5 5 0 01.9-1.53c.13-.13.21-.26.19-.28-.02-.02-.4 0-.83.04a9.6 9.6 0 01-1.56 0c-.67-.05-.8-.1-1-.3-.2-.19-.24-.3-.24-.69 0-1.02.39-1.1 5.1-1.02 1.56.03 2.16.07 2.24.15.06.06.1.27.1.47 0 .38.01.37-.77 1-.43.34-.96.8-1.03.89l-.38.43c-.31.37-.36.56-.25 1.18l.05.3.9.02c1.07.01 1.47.12 1.7.46.25.34.24.87 0 1.14z"/></g></svg>