<svg xmlns="http://www.w3.org/2000/svg" viewBox="0 0 76.73 76.73" height="290" width="290"><path style="marker:none" color="#000" overflow="visible" fill="none" paint-order="stroke markers fill" d="M0 0h76.73v76.73H0z"/><path d="M11.43 3.96c-.23.65-.31.74-.95 1.01a2.1 2.1 0 01-2.1-.16c-.35-.23-.6-.6-.8-1.2-.27-.8 0-1.48.83-2.06.5-.35.5-.35 1.17-.35.94 0 1.41.3 1.86 1.16.25.48.24.89-.01 1.6zM9.89 2.53c-.23-.14-.62-.17-.72-.05-.15.18-.13 1.09.02 1.25.18.17.52.07.67-.2.13-.24.15-.92.03-1zM8.45 5.74c-.02.02-.06.32-.08.67-.06.81-.18 1.7-.25 1.9l-.34.74a6.64 6.64 0 01-1.86 2.1c-.4.3-.51.35-.83.35-.6 0-1.16-.2-1.39-.5-.35-.46-.27-.66.43-1.12A8.49 8.49 0 005.9 8.26c.2-.28.38-.85.38-1.2 0-.23-.12-.26-1.15-.34-1.43-.1-2.3-.22-2.5-.33a1.38 1.38 0 01-.54-.9c0-.12.1-.34.2-.5.1-.15.2-.32.2-.35 0-.04.2-.15.43-.24.31-.13.5-.16.65-.12.12.03.57.06 1 .05 1.28-.02 3.17.21 3.47.43.24.18.53.86.42.98zM18.54 6.29c-.2 1.98-.82 3.73-1.59 4.53-.49.5-1.52.77-2 .51a1.28 1.28 0 01-.58-.73c-.06-.3.26-.78.65-.97.38-.2.86-.97 1.06-1.7.09-.35.2-1.22.27-2.23.09-1.25.14-1.67.23-1.72.06-.03.1-.1.07-.16-.04-.12.39-.3.75-.3.54 0 .91.42 1.15 1.27.1.36.1.43 0 1.5zm-3.99.12c-.2.7-.41.9-1 .9-.23 0-.52-.05-.65-.12-.4-.2-.48-.51-.46-1.93.01-.7.05-1.26.09-1.26.03 0 .06-.03.06-.07 0-.19.44-.72.59-.72.09 0 .23-.02.32-.04.26-.07.82.35 1.03.77.17.32.2.48.19 1.14 0 .53-.06.95-.17 1.33zM27.76 7.44a5.45 5.45 0 01-1.57 2.45 4.72 4.72 0 01-2.25 1.4 4.43 4.43 0 01-1.59-.31c-.27-.13-.53-.5-.53-.75 0-.2.22-.55.35-.55.19 0 2.13-1.22 2.55-1.6.43-.4.76-.97 1.36-2.34.26-.6.38-.74.69-.77.1 0 .24-.05.32-.09.25-.13.63.1.8.48.24.52.2 1.06-.13 2.08zm-3.35-1.2c-.19.34-1.19.5-1.65.26a4.63 4.63 0 01-1.23-1.16c-.06-.08-.16-.16-.22-.16-.24 0-.26-.74-.03-1.02.14-.16.24-.2.7-.23.33-.01.66.01.8.07.3.12 1.21.97 1.38 1.3.23.43.33.8.25.94zM36.9 7.36c-.05.08-.22.25-.38.38-.32.25-.42.25-1.85.05a3.4 3.4 0 00-.73-.06c-.02.02-.04.51-.04 1.1 0 .58-.02 1.29-.04 1.57l-.05.52-.53.25-.54.25-.4-.13c-.36-.12-.43-.18-.66-.57-.2-.34-.26-.54-.26-.87-.01-.28.02-.43.1-.46.12-.05.13-1.93.02-4.08-.06-1.17-.05-1.39.07-1.7.15-.41.43-.61.97-.68.48-.07.7 0 .96.26.34.34.45.75.43 1.6 0 .73 0 .75.2.85.1.06.4.14.66.18 1.42.25 1.97.55 2.1 1.18.02.1 0 .27-.04.36zM45.48 9.16c-.14.46-.44.84-.97 1.24-.87.65-1.67.92-2.38.8-1.16-.2-1.9-1.01-2.2-2.37-.05-.27-.12-1.2-.14-2.08-.05-1.55-.05-1.6.1-1.86.08-.15.15-.3.15-.35 0-.18.5-.49.85-.53.34-.04.36-.03.68.29.37.38.42.56.33 1.22-.1.65 0 2.65.14 3.24.1.39.17.52.32.61.2.12.2.11.66-.36a4 4 0 00.58-.71c.19-.39.6-.69 1.03-.75.34-.04.39-.03.6.16.16.15.23.3.29.59.08.47.08.47-.04.86zM53.11 9.7c-.03.17-.56.53-1.05.72-.66.25-1.45 0-2.06-.62-.64-.66-.78-.82-.82-1l-.12-.47c-.16-.62-.1-1.04.32-2.07.05-.12-.02-.13-.8-.13-1.05 0-1.66-.1-1.89-.3a1.94 1.94 0 01-.44-.94c0-.5 1.33-.9 3.02-.87 1.02.01 2.67.2 2.92.32.18.09.4.46.4.69 0 .31-.3.75-.89 1.33-.61.62-.85 1.04-.84 1.56 0 .56.41.8 1.42.8.4 0 .48.03.67.22.2.2.24.37.16.76zM66.2 6.97c-.13.1-.24.22-.24.27 0 .05-.09.17-.2.27-.16.15-.24.17-.53.14a3.7 3.7 0 01-1.84-1.06c-.4-.38-.53-.59-.7-1.15a1.52 1.52 0 00-.2-.5c-.17-.1-.08-.47.17-.7.25-.2.53-.25 1.37-.2.3 0 1.35.7 1.68 1.1.43.51.73 1.07.73 1.4 0 .2-.06.3-.24.43zm-3.55 1.97c-.1.96-.25 1.34-.68 1.6-.2.11-.44.2-.55.2-.1 0-.27.05-.38.1-.16.07-.25.06-.46-.07-.14-.08-.3-.24-.36-.34-.15-.3-.12-1.12.06-1.58.16-.4.2-.9.1-1.43-.03-.2-.1-.31-.24-.38-.24-.1-.25-.1-.34.33-.04.19-.16.62-.27.97-.1.35-.25.88-.32 1.18-.18.72-.48 1.02-.94.96-.38-.05-.7-.27-.78-.57a3.1 3.1 0 00-.19-.45c-.1-.19-.1-.27.02-.67.07-.25.2-.6.28-.78.09-.18.15-.38.15-.44 0-.07.06-.25.13-.41.12-.3.1-.45-.05-.3-.14.13-.8-.03-1.01-.25a.87.87 0 01-.22-.53c-.04-.33-.03-.35.24-.48.16-.08.58-.16.94-.19l.66-.05.1-.4c.12-.55.46-1.22.77-1.53.21-.22.3-.26.64-.26.93 0 1.3.92.81 2.01l-.16.36.18.07.63.2c.34.11.53.23.75.49.52.59.63 1.16.49 2.64zM74.46 10.54c-.1.1-.22.17-.28.17a.8.8 0 00-.3.13c-.24.16-.73.15-1.07-.02-.66-.34-3.9-2.98-3.93-3.2a2.73 2.73 0 01-.02-1c.04-.03.37-.4.73-.84a25 25 0 011.56-1.68c.83-.8.96-.9 1.32-.96.49-.1.98 0 1.17.23.4.5-.09 1.42-1.55 2.97l-.68.72.8.54c.7.47 1.8 1.4 1.97 1.65l.26.32c.27.3.28.73.02.97z"/><g><path style="marker:none" d="M64.75 32.93a98.4 98.4 0 01-3.51-.27 341.75 341.75 0 00-14.55-1.03c0-.07.28-.4.71-.85.25-.27.47-.53.49-.58.01-.06.07-.13.14-.16.06-.03.53-.47 1.04-.97a69.9 69.9 0 012.81-2.64l.3-.23h.72c.4 0 .77.02.83.03l.1.03-.21.35c-.29.47-.31.57-.25.93.07.38.17.65.3.78.21.2.38.23 1.5.26 2.2.07 3.48.2 5.2.53 1.46.27 2.83.42 4.53.5l1 .04.09-.2c.04-.1.16-.34.27-.52.1-.19.2-.37.2-.4 0-.04.04-.12.1-.18.06-.06.15-.19.2-.3.08-.18.2-.34.51-.71l.18-.21.39.02c1.2.08 3.88.45 3.88.53 0 .02-.35.41-.79.86l-1.43 1.54c-.35.39-.82.88-1.03 1.1-.39.38-1.83 1.57-2.07 1.7-.1.06-.22.07-.77.07l-.88-.02z" color="#000" overflow="visible" fill="#005ba0" stroke="#005ba0" stroke-width="1.0882465000000001" stroke-linecap="round" stroke-linejoin="round" paint-order="stroke markers fill"/><path style="marker:none" d="M62.88 28.4a52.5 52.5 0 01-2.93-.39 27.8 27.8 0 00-3.72-.48c-.33 0-.4-.03-.4-.12 0-.04.16-.49.37-.99.8-1.98 1.6-4.53 2.13-6.69.1-.45.22-.83.24-.84.13-.09 1.5-.02 2.51.13.67.09 2.29.24 3.75.34 1.37.1 2 .16 2.1.2.06.02.06.05-.08.47l-.63 1.7-.73 2a26.65 26.65 0 00-1.22 4.4l-.02.33h-.43c-.24 0-.66-.03-.94-.06zM67.65 42.4c-.01-.25-.01-1.27.01-2.28.02-1 .04-2.6.04-3.51 0-.93.02-1.88.04-2.12.02-.43.03-.43.16-.57a7.42 7.42 0 011.38-1.38c.32-.2 2.18-2.12 2.33-2.4.09-.17.11-.07.11.48 0 .91-.07 2.74-.1 2.84l-.04.1-.05-.09c-.08-.15-.42-.22-1-.22-.47 0-.52 0-.74.1-.47.22-.76.66-.8 1.19 0 .24 0 .3.12.58.2.47.38.76.63 1l.22.22-.18.29c-.48.78-.94 1.2-1.44 1.29-.39.07-.42.15-.14.42.25.24.44.33.75.35.23.01.28 0 .57-.15.36-.18.95-.64 1.03-.8l.27-.48c.24-.4.28-.53.25-.75-.02-.16-.02-.17.27-.21.14-.03.15-.03.17.12a49 49 0 01-.06 3.3c-.02.24-.05.33-.12.4-.12.14-.84.68-1.47 1.1a39.6 39.6 0 00-2.06 1.53l-.13.08zM64.07 43.63l.4-.87c.62-1.28.67-1.46.44-1.71l-.13-.15-.01-.94c-.02-.88-.02-.95-.1-1.03-.16-.18-.6-.28-1.5-.35l-1.3-.12c-.93-.1-1.43-.13-4.03-.27-2.37-.14-4.39-.3-6.13-.5-1.62-.17-2.1-.2-3.14-.2-.98 0-1.16.01-1.21.11a8.3 8.3 0 00-.14 1.8v.88l.12.2c.25.4.24.36.13.43-.18.12-.72.7-1.08 1.17-.38.5-.54.67-.59.62a46.9 46.9 0 01-.05-4.61l.07-3.74.02-1.31.65-.03c.83-.04 4.16 0 4.85.06l1.1.1 1.5.12c1.89.12 7.06.56 8.02.68.82.1 1.7.18 2.85.25.53.04 1.02.08 1.1.1l.13.02v1.56c0 .86-.03 2.46-.07 3.56l-.09 3.05-.02 1.06-.57.02-.9.05h-.32zm-.94-6.67c.13-.07.28-.34.28-.51 0-.2-.11-.53-.22-.68a1.57 1.57 0 00-.6-.48 1.42 1.42 0 00-.88-.13.86.86 0 00-.48.15c-.2.14-.8.71-.97.93-.2.28-.05.43.43.43.35 0 .5-.07.67-.34.15-.23.35-.4.45-.4.1 0 .46.41.6.7.07.14.17.29.22.32.11.08.35.08.5 0zm-6.82-.44c.31-.19.4-.6.18-.85-.17-.19-.4-.26-.93-.28-.5-.02-.63 0-.73.16-.14.22.07.8.34.94.29.15.9.17 1.14.03zm-4.13-.7c.1-.16.06-.5-.1-.77a2.44 2.44 0 00-.67-.71c-.2-.12-.8-.1-1.07.02-.25.12-.63.51-.77.8-.1.2-.11.23-.07.37.06.22.18.35.32.35.1 0 .14-.03.24-.18.07-.1.22-.29.34-.41.18-.18.25-.23.35-.23.15 0 .33.18.5.5.16.3.27.36.62.36.22 0 .25 0 .31-.1z" color="#000" overflow="visible" fill="#fffef2" stroke="#fffef2" stroke-width="1.0882465000000001" stroke-linecap="round" stroke-linejoin="round" paint-order="stroke markers fill"/><path style="marker:none" d="M62.62 40.82l-1.07-.13c-1.08-.14-2.1-.24-3.8-.37l-2.86-.24a169.11 169.11 0 00-6.2-.43l-.28-.02v-.32c0-.5.05-.89.12-.93.09-.06 1.33.03 1.93.14.47.08 1.83.23 3.75.4 2.6.24 2.73.25 4.8.34 2.35.1 4.03.25 4.09.34.1.15.1 1.07 0 1.18-.05.06-.1.07-.47.04z" color="#000" overflow="visible" fill="#fffef2" stroke="#fffef2" stroke-width="1.0882465000000001" stroke-linecap="round" stroke-linejoin="round" paint-order="stroke markers fill"/><path style="marker:none" d="M59.42 46.76c0-.13.85-1.42 1.24-1.88.42-.5 1.42-2.24 1.63-2.85.1-.28.15-.3.47-.27.15.01.36.04.46.07.18.03.2.04.17.14a31.21 31.21 0 01-1.23 2.46c0 .08-.93 1.42-1.4 2-.24.3-.36.35-.9.35-.24 0-.44-.01-.44-.02z" color="#000" overflow="visible" fill="#005ba0" stroke="#005ba0" stroke-width="1.0882465000000001" stroke-linecap="round" stroke-linejoin="round" paint-order="stroke markers fill"/><path style="marker:none" d="M55.01 50.18c-.88-.04-2-.14-4.01-.36l-3.46-.37a6.33 6.33 0 01-1.47-.2c0-.07.54-1.36.68-1.6.27-.5.92-1.48 1.6-2.42 1.33-1.8 1.85-2.53 2.19-3.01.19-.28.37-.5.4-.5.02 0 .17-.2.31-.45.15-.25.31-.45.35-.45l1.8.15a334.16 334.16 0 006.55.5c.8.04 1 .07 1 .14a17.03 17.03 0 01-1.72 2.92 48.55 48.55 0 00-2 3.07 26.31 26.31 0 00-1.3 2.58c-.05.03-.22.03-.92 0z" color="#000" overflow="visible" fill="#fffef2" stroke="#fffef2" stroke-width="1.1349323999999998" stroke-linecap="round" stroke-linejoin="round" paint-order="stroke markers fill"/><path style="marker:none" d="M45.78 45.6a.87.87 0 01-.17-.05l.3-.43a3.76 3.76 0 00.43-.65 16.6 16.6 0 001.64-2.37l.42-.7c.23-.4.28-.46.52-.52.1-.02.2-.07.25-.1.08-.06.32-.07.43-.03.1.04.06.14-.23.52-.15.2-.49.68-.74 1.06a19.9 19.9 0 01-1 1.4 4 4 0 01-.32.44l-.56.73-.46.62c-.13.14-.22.15-.51.08z" color="#000" overflow="visible" fill="#005ba0" stroke="#005ba0" stroke-width="1.0882465000000001" stroke-linecap="round" stroke-linejoin="round" paint-order="stroke markers fill"/><path style="marker:none" d="M42.49 35.26c-.14-.08-.25-.22-.25-.31 0-.03-.05-.17-.12-.3-.1-.21-.12-.3-.13-.57 0-.37.04-.43.3-.43.25 0 .42.1.54.36.06.12.15.23.21.26.1.06.1.06.08.31-.01.15-.04.3-.07.34-.05.11-.35.42-.4.42a.55.55 0 01-.16-.08zM70.36 35.41c-.12-.05-.28-.19-.28-.25 0-.13.33-1.1.4-1.17.07-.07.07-.07.17.02.28.26.35.69.18 1.08-.09.2-.24.37-.33.36a.76.76 0 01-.14-.04z" color="#000" overflow="visible" fill="#fffef2" stroke="#fffef2" stroke-width="1.0882465000000001" stroke-linecap="round" stroke-linejoin="round" paint-order="stroke markers fill"/><path d="M58.12 17.63l-.22.01-.38.06-.18.57c-.09.32-.17.66-.17.76 0 .1-.04.2-.08.23-.05.03-.09.14-.09.25 0 .1-.02.22-.05.25-.05.05-.6 1.57-.72 2-.1.34-.64 1.82-.97 2.64-.24.6-.28.67-.44.6-.1-.03-.88-.06-1.73-.07-1.76 0-1.7-.03-2.8.9-.82.7-5.2 5.14-5.5 5.58-.19.3-.25.49-.25.82-.02.84-.18 4.05-.24 4.69l-.06.64-.15-.23a.96.96 0 01-.15-.32c0-.05-.03-.1-.07-.1-.08 0-.27-.56-.27-.78 0-.07.1-.17.22-.23.33-.15.5-.63.44-1.34-.04-.7-.26-1.2-.68-1.55-.26-.22-.32-.23-.97-.2-.59.03-.74.07-1.06.28-.4.27-.7.76-.7 1.15 0 .47.38 1.15.8 1.45.23.16.43.28.46.28.13 0 .46.4.46.55 0 .42 1.09 2.1 1.45 2.21.08.03.1.62.12 2.39l.02 2.35.3.25c.16.13.34.24.4.24s.11.04.11.08c0 .07-.58.92-.92 1.33-.16.2-.19.3-.14.6.07.51.37.76.88.74.8-.02.82-.02.68.2-.07.1-.17.3-.22.45l-.4.98c-.17.4-.3.8-.3.88 0 .24.27.76.4.76.06 0 .18.04.26.08.19.11 1.57.3 3.67.52l3.05.33c1.5.18 3.6.32 4.38.29.4-.02.5-.06.66-.26.2-.24.8-1.4.8-1.54 0-.05.12-.24.25-.43.14-.19.34-.54.45-.79l.19-.44.44.07c.64.1 1.6.07 2.15-.06.43-.1.5-.16.79-.6.56-.84 1.12-1.77 1.28-2.15.14-.3.2-.35.34-.3.1.04.57.08 1.06.1.5 0 1.03.06 1.2.1.18.06.57.1.88.1.58 0 .87-.12 1.3-.53.27-.27.81-.7 1.34-1.1l1.27-.95a8.75 8.75 0 011.68-1.19c.02-.03.32-.29.68-.56.35-.28.67-.57.7-.65.16-.37.03-.57-.4-.62l-.26-.03.02-1.25c0-1.17.07-3.28.15-5.33.1-2.56.16-3.4.24-3.56.05-.1.1-.47.09-.83 0-.54-.04-.7-.22-.98a2.8 2.8 0 00-.38-.48c-.2-.18-1.9-.54-3.38-.72l-1.63-.2a7.4 7.4 0 00-1.05-.06c-.32 0-.58 0-.58-.02a19.76 19.76 0 00.56-1.36l.51-1.28c.07-.14.37-.9.66-1.68.3-.78.61-1.55.7-1.71.1-.17.2-.43.2-.59.02-.26-.01-.3-.34-.45-.2-.09-.44-.16-.54-.16a.44.44 0 01-.25-.08c-.21-.2-2.3-.47-5.06-.66-1.09-.07-2-.15-2.03-.17-.1-.06-1.96-.17-2.66-.17zm.95 1.2c.55 0 1.4.07 2.1.18.69.1 2.44.26 4.96.43.46.03.86.08.87.11.02.03-.11.46-.3.96-.81 2.16-.97 2.59-1.3 3.52-.5 1.47-1.1 3.6-1.12 4.06l-.02.4h-.34c-.54 0-3.28-.31-3.96-.45-.56-.12-.97-.19-2.42-.4-.34-.05-.87-.09-1.18-.09-.42 0-.56-.03-.56-.11 0-.07.11-.39.25-.71a50.3 50.3 0 002.46-7.83c.01-.05.23-.07.56-.07zm-6.03 7.36c.69 0 .87.02.8.1-.05.06-.19.28-.3.5-.22.38-.22.43-.13.89.16.74.39.88 1.49.89 2 0 3.86.19 5.52.53 1.18.24 2.83.43 4.27.49l1.2.05.12-.3c.07-.15.2-.39.28-.51a.87.87 0 00.16-.36c0-.07.06-.15.13-.17a.22.22 0 00.13-.2c0-.07.16-.32.36-.56l.36-.43.57.03c.3.02 1.28.13 2.17.25.88.11 1.6.23 1.6.27 0 .03-.4.48-.91 1a42.8 42.8 0 00-1.4 1.48c-.78.9-1.22 1.33-1.8 1.79-.61.47-.96.75-1.19.95-.12.11-.37.12-1.6.07-.81-.03-2.07-.12-2.8-.2a365.06 365.06 0 00-14.75-1.07h-.66c-.1 0 .37-.6.83-1.02.22-.21.4-.44.4-.5s.05-.11.1-.11.51-.43 1.02-.95c.5-.52.95-.94.98-.94.03 0 .35-.3.72-.67.36-.37.84-.81 1.05-.98l.39-.31zm18.65 3.86c.05 0 .08.12.07.27a60 60 0 00-.05 1.77 5.9 5.9 0 01-.1 1.48.08.08 0 01-.09-.08c0-.14-.7-.29-1.17-.25-.65.06-1.09.37-1.26.91-.1.29-.12.5-.07.67.14.5.46 1.07.71 1.28l.26.22-.22.36c-.45.77-1.04 1.27-1.5 1.27-.3 0-.3.19 0 .44.37.31.72.38 1.11.21.39-.16 1.2-.79 1.2-.93 0-.06.12-.28.26-.5.2-.28.25-.44.22-.62-.03-.15-.01-.23.06-.23l.27-.05c.17-.05.17-.01.15 1.83a9.04 9.04 0 01-.13 1.99 16 16 0 01-1.66 1.23c-.18.12-.71.51-1.17.87-.47.36-.88.66-.92.66-.04 0-.05-1.1-.02-2.56.03-1.4.06-3.4.06-4.42 0-1.71.01-1.88.15-1.92.08-.03.15-.1.15-.16 0-.12 1.14-1.25 1.27-1.25.13 0 2.33-2.28 2.34-2.43 0-.04.04-.06.08-.06zm-23.45 2.92c1.83 0 3.2.06 4.42.2l1.25.1a194.1 194.1 0 016.83.55l1.24.13c.33.07 1.99.21 3.05.27.52.03.98.07 1.01.1.08.04.07 1.57-.02 4.06-.04.97-.08 2.53-.1 3.48l-.04 1.72-.9.05c-.49.03-.9.04-.93.02-.01-.01.2-.5.5-1.08.54-1.08.6-1.38.3-1.56-.1-.05-.12-.2-.1-.56v-1c-.02-.52-.02-.53-.34-.67a5.11 5.11 0 00-1.22-.19 68.11 68.11 0 00-4.57-.34 156.06 156.06 0 01-5.49-.38c-.59-.06-1.55-.16-2.14-.24-1.24-.16-3.48-.2-3.61-.06-.05.05-.12.66-.15 1.37-.04 1.28-.04 1.29.18 1.61.2.28.2.33.08.38a5.1 5.1 0 00-1.08 1.15c-.37.52-.57.72-.63.66-.08-.08-.1-3.9-.02-6.47l.07-2.7V33l.4-.01 2.01-.03zm-5.93.65c.26 0 .5.17.56.42.03.12.11.22.18.22.11 0 .13.18.06.56a.9.9 0 01-.25.38c-.2.19-.21.19-.42.05-.12-.08-.22-.2-.22-.29a.68.68 0 00-.13-.31c-.07-.1-.13-.35-.13-.57 0-.37.02-.41.24-.45l.11-.01zm28.26.3c.06.02.13.08.2.19.2.3.23.5.13.83-.14.53-.37.65-.71.4-.15-.1-.16-.16-.07-.41.06-.16.14-.45.2-.65.06-.26.15-.37.25-.36zm-19.68.34c-.48 0-.87.24-1.21.74-.21.31-.22.38-.13.62.12.32.35.35.5.07.15-.3.52-.66.67-.66.2 0 .39.18.55.53.13.27.19.31.5.34.3.03.36 0 .42-.14.11-.25.02-.55-.27-.92-.37-.47-.58-.58-1.03-.58zm11.04.89h-.1c-.08.02-.24.04-.35.04-.22.01-1.3 1.05-1.3 1.26 0 .3.98.28 1.1-.03.05-.17.42-.53.52-.53.14 0 .5.43.66.77.13.3.19.34.42.34.2 0 .3-.06.4-.23.08-.13.13-.3.12-.37l-.09-.35c-.1-.46-.85-.93-1.38-.9zm-6.5.23c-.53-.01-.68.12-.61.5.08.47.31.67.84.72.49.04.8-.1.9-.4.17-.46-.14-.75-.87-.8l-.26-.02zm-6.77 2.96c.4 0 1.71.1 1.8.17a54.2 54.2 0 004.1.43c1.66.17 2.59.23 4.33.3 1.78.06 3.88.22 4.19.3.07.03.1.23.1.64 0 .48-.02.62-.13.66-.08.03-.72-.02-1.44-.12a62.6 62.6 0 00-4.6-.44c-.6-.05-1.72-.14-2.5-.22a170.1 170.1 0 00-5.44-.37l-.66-.03v-.63c0-.5.03-.64.13-.68l.12-.01zm.73 2.36c.37 0 .4.12.08.47-.16.2-.51.69-.78 1.1-.28.43-.62.91-.78 1.1-.15.17-.28.35-.28.39 0 .04-.1.2-.24.33-.13.14-.45.56-.7.94-.45.65-.47.67-.76.62a1.11 1.11 0 01-.34-.09c-.02-.02.12-.23.32-.47.2-.23.35-.46.35-.5 0-.06.03-.1.06-.12.14-.06 1.4-1.88 1.4-2 0-.04.1-.2.24-.37.13-.17.33-.5.45-.75.16-.32.27-.44.43-.46a.64.64 0 00.3-.11c.04-.04.16-.08.25-.08zm2.14.1c1.92.13 2.93.27 4.72.37l1.96.16c.25 0 .5.02.67.04l.07.01.76.06h.53c.37.03.7.08.72.1.08.09-.84 1.76-1.34 2.47-.84 1.2-1.9 2.76-2.12 3.13a16.65 16.65 0 00-1.47 2.94c.01.16-.05.16-1.2.11-.67-.03-1.69-.1-2.25-.17a196.54 196.54 0 00-5.16-.56c-1.41-.13-1.44-.14-1.34-.32.04-.08.16-.38.25-.65.31-.88 1.02-1.98 2.81-4.36.48-.63 1.08-1.47 1.33-1.87.36-.53.54-.71.48-.55zm11 .94c.13-.01.33 0 .6.05.17.03.31.07.3.1-.03.19-.24.64-.48 1.05-.15.27-.28.52-.28.55 0 .04-.11.26-.26.49-.14.23-.25.46-.25.51 0 .09-1.13 1.66-1.5 2.1-.15.17-.27.2-.74.22-.32.01-.54-.01-.53-.06.13-.33 1-1.62 1.3-1.93.37-.38 1.64-2.67 1.64-2.97 0-.06.06-.1.2-.11z"/><path d="M459.05 172.02c-.12.35-.33.77-.52 1.06l-.19.3h-.3c-.18 0-.64-.02-1.02-.05l-.7-.05.04-.08c.04-.06.07-.08.12-.08.1.01.4-.06.46-.12.05-.03.04-.07-.02-.15-.08-.09-.1-.1-.25-.1h-.15l.06-.15.25-.5c.14-.26.2-.34.26-.37.07-.03.23-.03.95.02l.97.06c.1.01.1.02.04.2zm-1.71.57c-.28.08-.33.1-.31.19.01.08.22.12.4.08.1-.03.14-.03.19 0 .07.05.36.04.46-.01.1-.06.1-.17 0-.23a1.1 1.1 0 00-.3-.07.97.97 0 00-.44.04zm.76.32c-.16.08-.22.2-.13.27.15.1.4.03.5-.12.09-.15-.17-.25-.37-.15zm-.74.04c-.1.03-.17.16-.1.19.03.01.14.02.24.01.15 0 .2-.01.24-.06.03-.04.03-.08 0-.1-.07-.05-.29-.08-.38-.04z" style="marker:none" color="#000" overflow="visible" fill="#f57a74" stroke="#f57a74" stroke-width=".66" stroke-linecap="round" stroke-linejoin="round" paint-order="stroke markers fill" transform="matrix(.92396 0 -.10385 .92396 -347.25 -115.75)"/><path d="M59.2 42.28c.2-.1.25-.1.6.02.19.08.23.12.2.2-.03.12-.2.23-.38.25-.13 0-.6-.12-.66-.18-.07-.06.03-.18.24-.29z" style="marker:none" fill="#f57a74" paint-order="stroke markers fill"/><path d="M54.75 46.67c.2-.04.49-.03 1.28.02l.7.05.03.13c.02.1-.03.23-.32.69l-.39.6c-.08.12-1.3 0-1.85-.19-.34-.11-.34-.1.05-.72.34-.52.37-.56.5-.58zM57.7 42.1c.15-.06.27-.08.32-.06.05.02.13.02.2 0 .1-.03.15-.02.27.06.13.09.13.12.04.24-.12.17-.15.18-.55.17-.34 0-.51-.09-.53-.24-.01-.06.03-.1.24-.17z" style="marker:none" fill="#005ba0" paint-order="stroke markers fill"/><path d="M52.83 47.57c.16.01.25.11.19.2-.02.04-.1.04-.25.02-.18-.03-.2-.05-.16-.14.05-.09.08-.1.22-.08zM53.2 46.54c.1-.04.36 0 .43.07.13.1-.04.18-.32.14-.2-.03-.24-.06-.2-.12a.21.21 0 01.09-.1zM52.89 46.94c.13-.02.2 0 .33.06.25.12.27.2.09.25-.23.06-.51.01-.59-.1-.08-.12-.04-.18.17-.2z"/><path d="M56.38 42.02c.29-.1.5-.1.67.01.13.07.15.12.1.23-.06.13-.08.14-.25.16-.26.04-.68-.01-.73-.08-.08-.12.01-.25.21-.32z" style="marker:none" fill="#f57a74" paint-order="stroke markers fill"/><path d="M51.59 47.45c.1-.07.43-.01.55.1.1.1.1.11-.01.16-.16.06-.3.05-.5-.06-.16-.08-.17-.11-.04-.2zM52.33 46.46c.1-.02.17-.01.25.05.12.09.08.16-.1.18-.15.01-.37-.1-.32-.17.01-.02.09-.05.17-.06zM51.8 46.82c.2-.06.32-.03.47.1.08.08.08.1 0 .14-.15.06-.3.04-.49-.06s-.18-.1.03-.18z"/><path d="M55.03 41.87c.06-.03.22-.05.4-.05.25 0 .34.02.42.08.09.08.08.1-.04.23a.7.7 0 01-.22.16c-.08.02-.68-.1-.7-.15-.05-.06.04-.22.14-.27z" style="marker:none" fill="#005ba0" paint-order="stroke markers fill"/><path d="M51.56 46.32c.16 0 .4.07.42.14 0 .05-.23.1-.4.08-.1 0-.23-.13-.19-.19l.17-.03zM51.03 46.76c.22-.04.5.11.41.22-.05.08-.48.02-.53-.07-.07-.1-.05-.12.12-.15zM50.48 47.32c.2-.07.56.12.41.22-.11.08-.4.05-.46-.06-.05-.09-.04-.13.05-.16zM50.38 46.7c.2.02.3.14.18.2-.06.04-.14.04-.24 0-.26-.07-.21-.23.06-.2z"/><path d="M53.7 41.94c.13-.1.5-.22.6-.2l.2.1c.12.1.02.3-.19.36-.2.06-.8-.1-.71-.19a1 1 0 01.1-.07z" style="marker:none" fill="#f57a74" paint-order="stroke markers fill"/><path d="M49.59 46.64c.07-.01.14.02.2.09.07.1.07.1-.06.13-.19.03-.37-.05-.31-.14.03-.04.1-.07.17-.08zM49.25 47.13c.24-.03.37 0 .46.14.15.21-.2.27-.57.1-.22-.1-.18-.2.1-.24z"/><path d="M52.6 41.72a.65.65 0 01.29-.08c.24-.01.4.19.27.34-.08.09-.13.1-.32.12-.32.01-.52-.08-.42-.2a.96.96 0 01.18-.18z" style="marker:none" fill="#005ba0" paint-order="stroke markers fill"/><path d="M55.09 42.43c-.2 0-.42.02-.5.04-.3.1-1.13.21-2.32.32-.8.08-1.29.15-1.38.22a.98.98 0 00-.18.19.63.63 0 01-.23.18c-.12.05-.24.18-.65.7-.27.36-.51.66-.53.66l-.4.51c-.34.49-.35.5-.25.58.12.1.44.11 1.5.08.94-.04 1.7-.1 2.35-.2l.53-.1.46.12c.25.06.53.16.62.2.11.07.4.14.78.2.33.06.78.14.98.19.35.08.72.12 1.05.12.24 0 .47-.23.71-.66l.36-.62c.12-.18.14-.25.08-.3-.07-.06-.07-.06.03-.06h.35c.23.02.35-.06.46-.28.06-.11.29-.45.51-.74.46-.59.49-.68.28-.84-.1-.08-.75-.22-1.16-.25l-.45-.04a7.67 7.67 0 00-1.25 0 .34.34 0 00-.2.13c-.05.06-.1.1-.13.1-.09 0-.63-.23-.84-.34-.2-.1-.26-.11-.58-.11zm-.13.36c.1 0 .14.02.22.06.09.05.22.1.3.13l.32.12c.11.05.28.1.38.1l.19.02-.41.6c-.3.42-.4.62-.38.66.04.08.33.14 1.05.22.34.04.54.08.53.1 0 .03-.06.14-.12.24-.08.15-.12.19-.15.16-.15-.1-.43-.15-1.1-.21a2.7 2.7 0 00-.88 0c-.33.1-.23.22.25.28.33.04.35.1.02.06-.28-.02-.57.07-.54.18.03.13.73.19 1.73.16h.43l-.09.18-.09.18-.43-.05a5.55 5.55 0 01-.75-.12l-.65-.17c-.19-.04-.5-.16-.7-.27-.25-.13-.48-.2-.73-.25-.35-.06-.36-.06-.67.04-.53.17-.92.23-2.17.31-.46.03-.85.05-.86.04-.06-.08 1.06-1.5 1.57-2l.38-.37.66-.06c1.26-.12 1.62-.17 2.18-.26.28-.05.42-.08.51-.08zm2.34.18h.28c.44.01 1.37.1 1.4.14.02.03-.09.23-.24.47-.26.4-.42.72-.43.86 0 .06-.05.07-.41.04-.66-.06-1.4-.15-1.4-.17-.02 0 .02-.09.07-.17.09-.16.09-.16.06-.04-.02.11 0 .13.14.13s.19-.01.25-.1c.1-.11-.03-.24-.22-.22-.1.02-.09-.01.02-.16l.3-.48zm.32.78c-.15 0-.3.02-.43.08-.11.05-.12.08-.03.13.06.04.13.04.25 0 .15-.03.17-.03.27.04.11.08.23.07.3-.03.1-.12-.11-.2-.36-.22zm-.22.33a.22.22 0 00-.1.03c-.12.08-.09.12.1.15.23.04.37 0 .32-.1-.03-.06-.2-.1-.32-.08zm.71 0l-.06.02c-.15.04-.3.24-.2.27.11.05.37-.02.44-.11.07-.1-.04-.19-.18-.18zm-7.7.69l-.02.03zm6.52.55l-.05.11c-.04.1-.07.1-.13.08-.04-.02-.3-.07-.56-.11-.36-.06-.4-.07-.18-.05h.61z"/><path d="M51.54 41.64c.22-.16.44-.15.59.01.14.16.09.32-.1.35-.2.04-.65 0-.7-.07-.05-.06 0-.13.21-.29zM55.4 48.9c.19-.06.43 0 .47.1.06.13-.31.4-.52.39-.33-.04-.37-.08-.24-.26.1-.13.17-.19.29-.23z" style="marker:none" fill="#f57a74" paint-order="stroke markers fill"/><path d="M53.92 48.78a.51.51 0 01.18-.03.6.6 0 00.21-.03c.12-.04.15-.04.26.02.14.08.12.16-.06.35-.17.19-.67.22-.8.05-.07-.09.05-.3.21-.36z" style="marker:none" fill="#005ba0" paint-order="stroke markers fill"/><path d="M52.65 48.76c.22-.12.33-.13.49-.04.14.07.1.16-.14.39-.1.1-.14.1-.31.09-.14-.01-.21-.05-.25-.13-.06-.13-.02-.2.2-.31z" style="marker:none" fill="#f57a74" paint-order="stroke markers fill"/><path d="M51.46 48.57c.25-.1.27-.1.41-.04.18.08.16.2-.05.38-.14.12-.17.13-.42.11-.2 0-.27-.03-.3-.08-.04-.12.08-.25.36-.37z" style="marker:none" fill="#005ba0" paint-order="stroke markers fill"/><path d="M50.04 48.47c.16-.06.22-.07.44-.03.3.06.36.14.2.3-.18.17-.28.2-.59.16-.23-.02-.3-.05-.32-.12-.04-.12.05-.23.27-.31z" style="marker:none" fill="#f57a74" paint-order="stroke markers fill"/><path d="M48.76 48.3c.16-.08.18-.08.38 0 .38.13.32.4-.1.47-.33.06-.49.03-.55-.1-.06-.13.04-.28.27-.38z" style="marker:none" fill="#005ba0" paint-order="stroke markers fill"/><path d="M47.5 48.32c.27-.13.48-.14.6 0 .05.07.05.13-.04.24l-.1.16h-.3c-.2-.01-.3-.03-.3-.06.01-.02-.02-.07-.05-.1-.09-.1-.09-.1.19-.24z" style="marker:none" fill="#f57a74" paint-order="stroke markers fill"/><path d="M18.9 58.15l-3.37-.04c-.37 0-.7-.03-.73-.05-.1-.06.09-.42.6-1.18.63-.94 1.04-1.66 1.47-2.6l.57-1.26c.1-.2.36-.82.58-1.35.22-.54.42-.96.45-.95.03 0 .1.1.15.2.14.26.4.42.66.43.11 0 .34.03.5.06.22.06.32.06.4.02.23-.11.26-.26.23-1.08a6.7 6.7 0 00-.05-.84c-.03-.07 0-.08.23-.04 1.51.24 3.7.3 4.66.13a5.28 5.28 0 013.15.48c0 .03-.03.12-.08.2-.06.13-.07.2-.02.4l.06.23-.64 1.5a44.04 44.04 0 01-2.46 4.8c-.5.9-.52.93-.7.96-.22.03-1.59.03-5.66-.02z" style="marker:none" color="#000" overflow="visible" fill="#fffef2" stroke="#fffef2" stroke-width="1.17" stroke-linecap="round" stroke-linejoin="round" paint-order="stroke markers fill"/><path d="M19.7 47.43c-.2-.33-.74-1.39-1.03-2.04l-.24-.54-.03-5.14c-.02-2.83-.02-5.15-.01-5.16.05-.06 2.3 0 4.55.13.6.04 2.26.05 4.89.05h3.97l.03 1.34c.04 2.04.03 8.61-.01 9.7-.03.52-.07 1.02-.09 1.11a3.45 3.45 0 01-.98 1.12c-.06.03-.23.06-.38.09a4.7 4.7 0 00-.72.2c-.52.2-.58.2-1.62.09a30.98 30.98 0 00-4.66-.13l-2.45.07c-1.62.2-.8-.03-1.21-.9z" style="marker:none" color="#000" overflow="visible" fill="#f57a74" stroke="#f57a74" stroke-width=".17" stroke-linecap="round" stroke-linejoin="round" paint-order="stroke markers fill"/><path d="M23.38 33.48a234.4 234.4 0 00-4.14-.21l-.3-.03.29-.3 1-1.07.72-.78.97-.02c.92-.02 1-.02 1.26-.13l.28-.08c0 .29.1 1.35.13 1.53.1.6.33.85.78.81.24-.02.35-.1.4-.32.02-.06.05-1.04.06-2.18.02-1.57.04-2.09.08-2.16.07-.11.25-.12.66-.05.33.06.35.08.3.3-.04.17-.02.66.03.78.01.04-.03.1-.11.15-.18.11-.29.4-.31.85-.03.32-.02.35.07.45.24.25 1 .5 1.48.35.28-.08.77-.4.78-.58 0-.14.06-.25.12-.2.02.03.04.41.05.86.01.81.01.82.13 1.03.16.3.47.6.66.65.31.1.59-.05.7-.38.03-.08.07-.43.08-.77.01-.35.04-.67.06-.72.03-.1.04-.1.92-.1 1.46 0 3.08.1 3.18.2.03.04-.02.14-.18.38-.28.4-.98 1.27-1.2 1.49l-.18.17-.5.03c-.5.03-7.81.07-8.27.05z" style="marker:none" color="#000" overflow="visible" fill="#fffef2" stroke="#fffef2" stroke-width="1.17" stroke-linecap="round" stroke-linejoin="round" paint-order="stroke markers fill"/><path d="M27.86 29.99c-.07-.12 0-1 .11-1.28.05-.13.16-.13.2.01.03.13-.06 1.06-.11 1.2-.05.12-.15.15-.2.07z" style="marker:none" color="#000" overflow="visible" fill="#fffef2" stroke="#fffef2" stroke-width="1.17" stroke-linecap="round" stroke-linejoin="round" paint-order="stroke markers fill"/><path d="M27.64 26.72c0-.01.15-.29.34-.61.34-.6.4-.65.56-.53.1.07.13.02-.46.68-.38.43-.44.5-.44.46zM25.81 25.47a1.31 1.31 0 01-.18-.4c0-.1.13-.04.2.08.07.15.06.42-.02.32zM26.93 29.22c0-.2.07-.4.14-.38.1.03 0 .57-.1.57-.03 0-.04-.09-.04-.19zM34.93 48.33l-.97-.06-.38-.02-.02-.38a5.13 5.13 0 01.02-1.3l.16-.3c.2-.3.8-1.67.9-2.05.07-.28.08-.57.02-.69-.06-.11-.38-.3-.52-.3-.07 0-.2.07-.32.16-.12.08-.22.14-.24.12-.02-.01-.03-1.37-.03-3.02 0-2.97 0-3 .1-3.35.07-.29-.4.24-.37-.52.05-1.1-.11-1.84 0-2.08.04-.1.08-.27.08-.38 0-.17.7-.36.9-.6a23.7 23.7 0 011.14-1.34c.02.02.1 1.7.16 3.33l.16 5.08c.12 3.56.18 6.64.13 7.3l-.03.45h-.15l-.74-.05z" style="marker:none" color="#000" overflow="visible" fill="#f57a74" stroke="#f57a74" stroke-width=".17" stroke-linecap="round" stroke-linejoin="round" paint-order="stroke markers fill"/><path d="M20.55 62.65a70.73 70.73 0 01-2.82-.21c-2.43-.23-4.92-.48-5.5-.56-1.8-.25-3.2-.67-4.57-1.36-1.69-.86-2.84-1.74-3.18-2.43-.14-.28-.14-.3-.14-.77 0-.41.02-.52.12-.81.17-.5.45-1.07.7-1.43.33-.48 1.36-1.52 1.77-1.8.35-.23 2.24-1.17 3.11-1.55 1.03-.44 2.47-.94 3.36-1.16.9-.22 1.3-.28 1.48-.22.18.06.39.23.39.33 0 .18.55.55 1.17.77.31.11.33.13.2.26-.06.06-.15.2-.2.3l-.41.7c-.18.27-.53.94-.8 1.48-.26.54-.67 1.3-.9 1.67-.79 1.27-.98 1.69-.9 2 .07.21.24.54.35.66.15.14.34.18 1.47.24 2.78.17 3.2.17 9.18.02 1.83-.04 1.96-.06 2.03-.26a.44.44 0 01.11-.15c.04-.03.14-.2.22-.36.08-.16.25-.44.37-.62.12-.19.26-.45.3-.58.09-.23.42-.79.5-.84.07-.04.28-.45.35-.67.03-.1.12-.3.2-.46.2-.34.53-1.16.84-2.03.27-.74.44-1.12.54-1.16.04-.02.18-.05.33-.07.3-.03.67-.15 1.05-.34.7-.35.82-.53.88-1.44.02-.33.05-.6.06-.61l.39.1c.24.09.55.15.85.18.71.06 1.39.18 2.2.38.51.12 2.98.94 3.53 1.17a16.54 16.54 0 013.96 2.3c.36.35.48.81.48 1.85 0 .6 0 .71-.11 1.09-.22.77-.33.95-1.12 1.73-.75.76-1.44 1.3-2.15 1.72a4 4 0 00-.65.46c-.35.35-1.22.68-3.25 1.25-1.28.36-1.65.44-3.19.73-2.37.43-3.2.48-8.42.5h-4.18z" style="marker:none" color="#000" overflow="visible" fill="#fffef2" stroke="#fffef2" stroke-width="1.17" stroke-linecap="round" stroke-linejoin="round" paint-order="stroke markers fill"/><path d="M16.23 50.3c-.3-.3-.32-.45-.07-.82.13-.2.14-.2.35-.21.27-.02.65.08.77.2.12.12.1.25-.12.59-.23.35-.36.45-.58.45-.12 0-.18-.03-.35-.2zM29.48 50.44c-.2-.16-.1-.61.2-.98.1-.1.17-.22.17-.24 0-.08.06-.04.15.09.1.16.36.31.6.35.2.03.22.08.19.32-.03.2-.15.28-.55.4-.42.14-.64.15-.76.06zM19 49.75c-.1-.1-.18-.2-.18-.21 0-.02.08-.05.17-.07.12-.04.2-.09.25-.18l.08-.14v.21c0 .28-.05.53-.1.55-.03.01-.13-.06-.22-.16zM20.01 66.49c-.73-.07-4.03-.45-4.45-.52a99.8 99.8 0 01-3.62-.69 31.31 31.31 0 01-3.61-.98c-2.56-.86-3.03-1.18-3.36-2.31-.1-.32-.3-1.34-.38-1.83l-.03-.18.12.1a16.54 16.54 0 006.79 2.88c1.19.26 1.27.27 2.9.42a129.02 129.02 0 013.84.42c2.7.31 3.48.33 9.55.2 3.31-.06 3.46-.07 5.6-.47 2.3-.44 3.15-.65 5.04-1.27a12.57 12.57 0 004.6-2.61c.18-.14.47-.39.64-.55l.32-.29v1.37l.02 1.37-.23.28c-.4.5-.63.66-1.57 1.14a28.42 28.42 0 01-5.77 2.14 57.6 57.6 0 01-5.45.99c-2.33.24-9.7.5-10.95.39zM23.2 73.68c-2.46-.14-4.06-.39-4.9-.76-.5-.23-.52-.26-.63-.73a1.03 1.03 0 00-.22-.33l-.19-.2.11-.16a5.86 5.86 0 012.2-1.8 5.67 5.67 0 012.12-.62l.39-.04v.38c0 .51.05.67.29.9.24.24.47.35.71.35.31 0 .4-.04.46-.21.06-.18.05-.4-.1-1.82-.07-.55-.11-1-.1-1.01.01-.02 1.67-.13 3.05-.2l.23-.02.05.96c.02.53.06 1.04.09 1.13.1.31.59.74.87.74.16 0 .33-.08.45-.21.07-.08.08-.17.1-.68v-.58h.78c1.22 0 2.01.14 2.95.52.75.3 1.14.62 1.25 1.01.09.31-.16.99-.48 1.32-.47.5-1.19.83-2.65 1.25l-1.2.36c-1 .31-2.03.43-4 .45h-1.62z" style="marker:none" color="#000" overflow="visible" fill="#fffef2" stroke="#fffef2" stroke-width="1.17" stroke-linecap="round" stroke-linejoin="round" paint-order="stroke markers fill"/><g><path style="marker:none" d="M387.74 144.44a1.95 1.95 0 010-.38c0-.04.24-.07.9-.1.88-.05 1.45-.1 1.67-.15l.1-.02v.3c0 .25 0 .29-.08.34-.1.06-.45.12-1.4.21l-.95.1-.21.03z" color="#000" overflow="visible" fill="#f57a74" stroke="#f57a74" stroke-width="1.07" stroke-linecap="round" stroke-linejoin="round" paint-order="stroke markers fill" transform="matrix(-.69067 0 .27661 -.4791 255.24 120.32)"/><path style="marker:none" d="M23.51 57.28c.19-.09.43-.06.48.05.06.13-.28.45-.49.45-.33 0-.37-.04-.25-.24a.57.57 0 01.26-.26z" fill="#f57a74" paint-order="stroke markers fill"/><path style="marker:none" d="M23.5 55.2l.21-.04.23-.03c.1-.02.33-.01.51.01.28.04.36.04.42 0s.12-.04.26.03c.19.07.19.08.07.34-.06.14-.23.46-.36.7-.24.4-.26.43-.4.45-.38.06-1.24 0-1.5-.1-.17-.08-.14-.3.14-.83.25-.5.25-.5.41-.53zM22.05 57.3a.5.5 0 01.18-.05c.04 0 .13-.02.2-.06.11-.05.14-.05.26 0 .14.07.13.16-.03.37s-.65.3-.8.14c-.07-.1.04-.32.2-.4z" fill="#005ba0" paint-order="stroke markers fill"/><path d="M21.57 56.18c.23-.05.52.11.36.2-.1.06-.5.04-.52-.03-.03-.08.03-.14.16-.17z"/><path style="marker:none" d="M20.8 57.4c.2-.14.31-.16.48-.08.14.06.12.15-.11.42-.1.1-.14.12-.3.12-.14 0-.21-.03-.26-.1-.07-.13-.03-.2.18-.35z" fill="#f57a74" paint-order="stroke markers fill"/><path d="M21.57 55.62c.14-.03.2-.03.32.04.21.11.14.2-.18.2-.2.02-.27 0-.3-.05-.05-.1-.03-.13.16-.19zM21.67 55.24c.3-.08.69.03.51.15-.08.05-.5.05-.62 0-.11-.06-.08-.1.1-.15zM20.58 56.23c.33-.04.54.06.37.18-.1.06-.44.04-.5-.04-.07-.1-.05-.12.13-.14zM20.75 55.58c.2-.06.22-.05.36.04.21.14.17.18-.2.23-.16.02-.22.01-.3-.08-.04-.05-.08-.1-.07-.12l.21-.07z"/><path style="marker:none" d="M19.62 57.34c.23-.14.25-.14.4-.09.17.06.17.2-.03.4-.13.14-.16.15-.4.16-.2.01-.27 0-.3-.06-.06-.11.06-.26.33-.41z" fill="#005ba0" paint-order="stroke markers fill"/><path d="M20.03 55.61c.18-.03.4.02.41.1.02.1-.05.12-.27.12-.3 0-.41-.17-.14-.22zM20.3 55.1c.15-.04.2-.04.31.02.1.05.2.06.37.04.27-.03.52.04.47.12-.02.03-.08.07-.14.08-.16.04-.45.03-.42-.01.01-.02-.1-.03-.28-.02-.22.02-.32 0-.41-.04-.14-.1-.12-.13.1-.2zM19.48 56.23c.1-.06.5-.03.53.03.06.1-.06.16-.29.15-.26-.02-.38-.11-.24-.18z"/><path style="marker:none" d="M18.2 57.38c.15-.08.22-.1.44-.07.3.02.36.1.2.28-.15.2-.25.23-.55.23-.23 0-.3-.02-.33-.09-.05-.12.03-.24.24-.35z" fill="#f57a74" paint-order="stroke markers fill"/><path d="M18.63 56.19c.16-.05.2-.05.31 0 .13.05.17.14.08.19l-.29.02c-.17 0-.24-.02-.26-.08-.02-.07 0-.09.16-.13zM18.93 55.67c.27-.06.52.04.43.19-.05.09-.48.07-.57-.03-.09-.1-.08-.11.14-.16zM17.7 56.18c.19-.03.45.09.42.2-.02.05-.06.06-.25.06-.39 0-.53-.2-.18-.26z"/><path style="marker:none" d="M16.93 57.33c.15-.09.17-.09.37-.04.39.1.35.39-.06.5-.32.1-.48.09-.55-.03-.07-.14.02-.3.24-.43z" fill="#005ba0" paint-order="stroke markers fill"/><path style="marker:none" d="M15.69 57.5c.26-.18.47-.2.59-.08.06.07.06.13-.01.26l-.1.17-.3.03c-.2.01-.29 0-.28-.02 0-.03-.03-.08-.07-.11-.1-.09-.09-.1.17-.26zM27.4 50c.15-.12.35-.21.5-.21.18 0 .25.07.18.19-.03.04-.02.1 0 .13.08.07-.1.22-.34.28-.21.06-.53-.02-.48-.11l.06-.15c.01-.04.05-.1.09-.13z" fill="#f57a74" paint-order="stroke markers fill"/><path style="marker:none" d="M26.3 49.98a.5.5 0 01.34-.05c.25.04.3.09.2.28-.06.14-.09.17-.23.2-.24.03-.54.03-.55 0 0-.02.01-.11.04-.2.05-.13.1-.18.2-.23z" fill="#005ba0" paint-order="stroke markers fill"/><path style="marker:none" d="M25.06 49.9a.8.8 0 01.3.02c.42.1.42.1.3.3-.1.16-.12.18-.28.2l-.28.04a.59.59 0 01-.22-.01c-.09-.03-.1-.07-.05-.18l.1-.24c0-.08.04-.11.13-.13z" fill="#f57a74" paint-order="stroke markers fill"/><path style="marker:none" d="M23.75 50a.56.56 0 01.2-.05c.06 0 .13-.03.15-.06.04-.08.1-.08.32 0 .17.06.17.06.03.25-.07.1-.18.2-.23.22a2 2 0 01-.62.07c-.11-.01-.12-.04-.04-.2.05-.1.13-.2.19-.23z" fill="#005ba0" paint-order="stroke markers fill"/><path style="marker:none" d="M22.17 50.1a.4.4 0 01.18-.07c.05 0 .1-.02.1-.04.02-.02.12-.04.24-.04.23 0 .26.07.12.33-.07.14-.1.15-.28.17a7.9 7.9 0 00-.33.05c-.08.01-.16 0-.2-.02-.07-.04.03-.28.17-.38z" fill="#f57a74" paint-order="stroke markers fill"/><path style="marker:none" d="M21 50c.2-.07.29-.06.5.04.17.08.18.1.1.2-.06.06-.09.13-.06.14.14.08-.37.23-.73.21h-.23l.15-.29c.12-.22.17-.28.27-.3z" fill="#005ba0" paint-order="stroke markers fill"/><path style="marker:none" d="M19.78 50.02c.25-.1.34-.09.47.05.1.1.12.3.03.45-.05.1-.48.17-.69.13-.13-.03-.14-.06-.1-.2l.08-.25c.02-.08.06-.12.2-.18z" fill="#f57a74" paint-order="stroke markers fill"/><path d="M18.3 52.22c.23-.25.42-.4.5-.4a8.01 8.01 0 011.61-.42c.9-.18 1.75-.4 2.2-.56.33-.11.4-.13.69-.1.22 0 .33.03.36.1.03.04.22.1.51.16l.52.09c.03 0 .07-.07.1-.15.07-.2.28-.3.58-.27.12 0 .49 0 .8-.03 1.24-.1 1.46-.1 1.68 0 .12.05.21.12.2.16v.15c0 .08-.3.72-.59 1.27-.1.2-.2.38-.21.43-.02.07-.06.08-.24.09-.3.01-.74.05-.86.08-.08.01-.08.03-.01.1.08.07.07.1-.35.9-.43.8-.45.82-.62.9-.24.13-.35.12-1-.04-.35-.1-.74-.16-1.09-.18a4.27 4.27 0 01-1.31-.2c-.06 0-.21-.06-.33-.11l-.22-.11-.33.09-.8.23c-.6.17-2.42.54-2.71.54-.29 0-.42-.11-.4-.33.04-.2 1.1-2.12 1.33-2.39zm-.11 2.2c.33 0 2.11-.45 2.52-.63.3-.13.68-.23.89-.23a2.95 2.95 0 002.82.6l.4-.01.35-.63.33-.66c0-.02-.24-.03-.52-.02-.6.03-.91-.04-1.03-.21-.07-.12-.06-.14.25-.64l.33-.53-.2-.02a8.2 8.2 0 01-1.34-.25c-.02-.02-.14 0-.26.03l-1.4.37a20.77 20.77 0 01-1.77.36l-.19.05-.47.8-.72 1.2-.25.43zm.76-.82c.17-.04.18-.04.12-.12-.08-.11.04-.17.31-.14.15.01.3 0 .43-.04.27-.08.33-.08.36.02.02.06 0 .1-.07.16-.08.05-.09.09-.03.14.16.16-.03.33-.4.33-.17 0-.23.01-.27.07-.1.17-.54.2-.55.04 0-.05-.05-.1-.11-.13-.16-.06-.03-.27.21-.33zm.52-.62c.15-.09.4-.09.46 0 .11.16-.12.31-.34.23a1.78 1.78 0 00-.2-.07c-.1-.03-.08-.06.08-.16zm.46-.7c.1-.05.16-.06.32-.04.18.03.19.04.11.17-.07.12-.1.14-.22.14-.08 0-.14-.03-.14-.06 0-.04-.05-.06-.11-.06-.14 0-.13-.04.04-.14zm.85-.09c.2-.1.3-.11.41-.02.12.1.05.23-.13.25-.08 0-.16 0-.18-.03-.02-.02-.1-.04-.17-.04-.17 0-.15-.04.07-.16zm-.23.71a.52.52 0 01.27-.07c.18 0 .22.08.13.23-.06.1-.38.14-.38.04 0-.04-.03-.07-.08-.07-.1 0-.08-.03.06-.13zm.94-.04c.27-.08.4-.02.28.14-.1.13-.29.14-.4.02l-.08-.1zm.35-.66c.33-.14.5-.09.35.1-.12.15-.27.17-.37.03-.06-.07-.05-.1.02-.13zm.94-.11c.2-.08.38-.03.34.09-.07.17-.43.29-.4.12 0-.04-.02-.08-.07-.08-.11 0-.05-.06.13-.13zm-.18.72c.34-.07.42-.03.3.13-.12.2-.31.23-.39.09-.06-.11-.03-.2.09-.22zm.87.31c.18-.09.4-.12 1.03-.12.37-.01.42 0 .49.09.1.13.02.2-.24.21-.11 0-.33.03-.49.05-.47.07-.88.06-.94-.02-.07-.1-.06-.11.15-.21zm-.2.46a4.4 4.4 0 011.24-.14c.23 0 .38.1.35.23 0 .09-.03.09-.63.12-.68.04-.97.03-1.1-.03-.1-.05-.08-.08.14-.18zm1.86-1.13c.43 0 1.74-.05 1.8-.08.01-.01.02-.06 0-.1 0-.05 0-.13.02-.18l.1-.26.05-.18-.7.03c-.38.01-.82.04-.99.06l-.3.04-.17.27c-.28.43-.3.4.2.4zm.1-.45c.12-.07.14-.07.2-.01.09.11-.09.4-.26.4-.13 0-.14-.02-.1-.19a.35.35 0 01.17-.2zm.57-.2c.26-.08.4-.08.51 0 .12.08.05.22-.1.22-.06 0-.12-.02-.14-.05-.03-.03-.08-.02-.18.03-.18.08-.3.07-.3-.05 0-.08.04-.1.21-.15zm0 .3c.17-.05.4.01.35.1-.04.08-.25.14-.4.1-.17-.03-.14-.14.04-.2zm.8-.2c.28 0 .24.28-.04.38-.17.06-.2 0-.13-.2.06-.16.08-.18.18-.18zm-1.05-.5c.13-.01.56-.04.96-.05l.74-.03.11-.2c.1-.17.1-.2 0-.18l-.56.05c-.56.03-.76.05-1.06.08-.23.02-.24.03-.33.19l-.1.16z"/></g><path d="M25.9 24.27c-.4 0-1.23.27-1.28.41-.08.2.24 1.52.53 2.16.14.32.25.6.23.62-.02.01-.4.04-.85.05l-.82.02-.06.51c-.03.28-.06.82-.07 1.21v.7h-1.6c-1.05-.01-1.7.02-1.92.1-.3.1-1.34 1.12-2.57 2.54-.76.87-.7.46-.7 4.78-.02 2.12-.05 3.89-.1 3.93-.04.04-.26.1-.5.15-.4.08-1.24.5-1.38.7-.13.2-.06.5.34 1.3l.4.83-.29.33c-.48.55-.6.73-.75 1.2-.3.88-.06 1.91.57 2.53.26.25.26.28.02.56-.17.21-.2.22-.5.11-.24-.08-.36-.09-.45-.01a.29.29 0 01-.25.05c-.18-.07-1.68.27-2.65.6a35.73 35.73 0 00-4.18 1.77 10.86 10.86 0 00-1.86 1.2 6.26 6.26 0 00-1.65 2.02c-.57 1.13-.64 1.5-.66 3.24-.02 1.4.01 1.73.26 3.04.34 1.81.57 2.38 1 2.53.17.06.52.26.77.45.65.5 1.54.91 3.39 1.6.63.25 2.3.62 5.92 1.34.42.08 2.93.4 5.12.64.49.05 1.23.1 1.65.1.41 0 .73.01.71.04-.02.02-.55.12-1.18.23-1.72.28-1.92.35-2.63.88-.36.27-.75.55-.88.61a3.2 3.2 0 00-1.2 1.3 2.5 2.5 0 00-.2 1.12c0 .58.02.69.3 1.1.33.46 1.02.97 1.34.97.1 0 .37.12.6.27.23.16.46.28.5.28a9.59 9.59 0 003.26.65c.74.05 1.8.14 2.35.2 1.3.15 3.5.13 4.33-.02 1.09-.2 2.82-.63 3.3-.82.56-.22 1.8-.9 2.29-1.27 1.08-.8 1.3-1.1 1.45-1.97.2-1.27.2-1.3-.06-1.65a8.06 8.06 0 00-4.09-2.15l-.41-.12.55-.06a34.1 34.1 0 004.69-.7c1.54-.25 2.05-.38 3.59-.87a31.7 31.7 0 004.8-2.11c.56-.32.94-.93.93-1.52 0-.08.06-.3.14-.5.18-.48.18-.65.01-.91-.12-.18-.12-.6-.06-3.06.07-2.32.06-2.9-.04-3.2-.07-.2-.13-.46-.13-.59 0-.72-2.52-2.69-5.01-3.9l-.63-.33c-.15-.07-.65-.27-1.1-.43l-.85-.3-.05-3.8c-.07-3.96-.12-5.62-.27-8.18-.05-.83-.1-1.9-.1-2.38-.02-1.38-.25-3.13-.45-3.4-.21-.3-.95-.53-2.11-.65l-1.52-.18c-.35-.05-1.29-.11-2.07-.15l-1.44-.07.08-.79c.08-.7.07-.79-.09-1-.14-.2-.3-.27-.72-.33l-.66-.11c-.07-.02.14-.35.56-.89.9-1.12.93-1.19.7-1.43-.3-.33-.96-.66-1.34-.68-.5-.01-.72.13-1.03.67l-.27.47-.06-.68c-.06-.67-.07-.69-.36-.8-.17-.05-.43-.1-.58-.1zm-.18.74c.07 0 .15.12.17.27.05.34-.04.36-.19.04-.13-.3-.13-.31.02-.31zm2.65.48c.03 0 .07.01.1.03.21.08.2.13-.14.5-.17.18-.44.49-.6.69-.18.2-.3.32-.27.27l.85-1.5h.06zm-3.28 2.92c.1 0 .25.03.45.06.33.04.42.09.38.2a1.7 1.7 0 000 .86c.04.12.02.16-.08.16-.21 0-.4.65-.35 1.21.02.24.92.49 1.5.42.9-.1.67-.73.61-1.49.23-.15.34-1.21.44-1.24.17-.04.19.08.12.76 0 .14-.02.25-.04.35h.02L28 30.8v.63c-.02.8-.01.85.25 1.24.3.43.65.58.96.41.24-.13.32-.42.33-1.17 0-.36.02-.7.05-.73.04-.08 1.68-.06 3.24.04.68.04.95.09.95.17 0 .15-1.43 1.95-1.6 2.01-.3.11-7.62.17-9.2.08a149.96 149.96 0 00-4-.2c-.13 0-.13-.02 0-.12.07-.06.42-.42.77-.8l.9-.99.28-.3h.94c.57.04.73.04 1.61-.04-.04.39.02.14.04.55.06 1.21.24 1.6.74 1.6.56 0 .58-.07.56-2.54 0-1.88-.05-2.22.27-2.23zm2 .38c.04.02.06.07.06.14-.02.3-.1.49-.19.49-.13 0-.05-.58.08-.62h.05zm-.61 1.38l.22.03c.2.05.27.11.27.27 0 .28-.06.33-.43.33-.27 0-.3-.03-.3-.27 0-.25.06-.35.24-.36zm8.94 2l.05.67c.03.37.1 2.16.15 3.98l.18 5.56c.1 2.8.12 6.1.02 6.04a9.35 9.35 0 00-1.17-.1l-1.1-.04-.03-.85c-.02-.74 0-.89.16-1.1.1-.15.19-.29.19-.32 0-.03.17-.4.38-.84.22-.45.4-.98.42-1.22.04-.4.03-.43-.25-.59-.29-.17-.3-.17-.56.02-.14.11-.28.2-.3.2-.04 0-.06-1.38-.06-3.06.16-1.48.03-3.4.03-4.56 0-.77-.13-.18-.03-1.4.48-1 1.06-1.44 1.56-2zM19.15 34.5c.43 0 1.9.06 3.27.13 1.63.1 3.68.13 5.96.1l3.47-.02v1.33l.03 4.55c.01 1.77 0 3.93-.03 4.8-.04 1.43-.07 1.6-.24 1.79l-.49.55c-.24.27-.37.34-.73.37-.24.03-.65.15-.92.29-.62.31-1.45-.25-5.27-.13-1.57.05-3.73-.06-3.9-.03 0 0-.15-.16-.43-.56a15.3 15.3 0 01-1.25-2.34l-.22-.5-.02-5.16-.03-5.16zm1.98 4.04a.92.92 0 00-.4.18c-.27.19-.31.28-.35.67-.02.26-.01.55.01.66.05.17.05.68.82.68.04 0 .15-.14.25-.3.2-.34.23-.92.06-1.5-.09-.28-.2-.4-.39-.39zm8.35.27a.76.76 0 00-.42.21c-.21.2-.25.3-.25.74 0 .43.04.55.29.83.31.35.68.24.83-.03.24-.62.05-1.43-.1-1.62a.39.39 0 00-.35-.13zm-4.47.72c-.2 0-.48.06-.6.13-.2.11-.18.37-.02.55.39.2.8.31 1.11.1.22-.2.23-.3.04-.57-.1-.16-.23-.2-.53-.2zm-1.3 1.75c-.17 0-.34.05-.4.13-.08.09-.07.24.05.6.16.51.56.9 1.17 1.16.89.37 2.29-.24 2.54-.97.15-.44.15-.45-.12-.55-.43-.16-.72-.12-.92.13-.1.13-.35.48-.37.53-.02.07-.24.11-.52.12-.49.06-.52-.06-.75-.46-.15-.25-.3-.51-.32-.57-.04-.08-.2-.12-.36-.12zm-7.72 3.95c.1 0 .4.82.46 1.2.03.23.18.74.33 1.14l.26.76c0 .09-.4 0-.74-.15-.49-.21-.84-.86-.77-1.4.04-.37.4-1.55.46-1.55zm3.31 3.86c.02 0 .03.09.03.28 0 .6-.06.69-.32.44-.27-.26-.27-.33-.02-.36.13-.02.23-.12.27-.26l.04-.1zm10.6.03c.02 0 .04.04.06.11.06.2.43.42.71.42.16 0 .2.14.1.47-.05.2-1.08.5-1.27.37-.27-.17-.16-.75.2-1.07a.69.69 0 00.15-.23c.02-.06.04-.08.05-.07zm2.27.02l.46.16c.25.09.67.16.93.16.55 0 2.5.42 3.02.64.1.05.74.26 1.43.47 1.32.4 2.75 1.1 4.12 1.98.97.63 1.19.83 1.35 1.2.14.34.23 1.35.17 1.92-.02.2-.13.64-.24.96-.17.53-.29.7-.98 1.39-.77.77-1.7 1.47-2.4 1.83-.19.1-.37.24-.4.32-.1.25-1.3.73-3 1.2l-1.29.35c-.43.12-.99.23-2.9.58-1.6.3-3.8.4-8.3.4-3.47.01-4.29-.03-7.33-.33l-3.25-.32c-3.06-.3-4.75-.8-6.86-2.03-2.53-1.49-2.9-2.35-1.9-4.38.25-.5.55-.9 1.17-1.53.81-.83.86-.86 2.43-1.63.89-.43 1.84-.87 2.12-.97 1.7-.64 2.09-.77 2.96-.98a8.9 8.9 0 011.24-.24c.25 0 .58.23.58.41 0 .16.53.52.99.67.51.16.56.21.34.4-.08.05-.14.14-.14.19a19.71 19.71 0 00-1.6 2.99c-.02.1-.66 1.03-.98 1.51a9.52 9.52 0 00-.73 1.31c-.15.43-.15.44.03.84.23.48.34.54 1.12.58l2.07.11c.81.05 1.78.08 2.16.05.38-.02 2.12-.05 3.87-.07 1.75-.03 3.29-.07 3.42-.1.14-.04.25-.13.25-.2s.04-.13.08-.13.15-.17.25-.39c.1-.21.26-.5.38-.65.12-.14.24-.37.27-.5.05-.23.35-.74.5-.85.09-.06.71-1.09.71-1.2 0-.05.12-.29.27-.53.14-.25.66-1.6.75-1.87.1-.27.24-.68.34-.9.15-.32.22-.38.44-.38.32 0 .78-.14 1.25-.4.65-.34.76-.53.8-1.4zm-15.68.08l.25.03c.24.03.5.12.56.2.15.18.14.19-.08.56-.38.62-.65.7-1.03.3-.3-.3-.3-.43-.07-.82.13-.22.18-.28.37-.27zm3.82.19s3.13.53 4.84.17a5.57 5.57 0 013.31.48l-.21.42c0 .03.02.05.03.07.12.3.12.4.02.58-.07.12-.98 2.26-1.09 2.51-.26.61-.03.1-.92 1.77l-1.61 2.9-.74-.06c-.4-.03-2.63-.07-4.94-.08a79.1 79.1 0 01-4.27-.09c-.07-.07.26-.7.62-1.16.13-.17.83-1.27 1.12-1.85.3-.58.92-2.04.98-2.11l.02-.03.95-2.28.09.08c.02-.04.04-.06.05-.05v.1c.41.82.86.46 1.23.6.2.1.3.1.44 0 .16-.09.18-.2.17-.83l.01-.5zm23.67 9.34v2.82l-.33.43c-.3.38-.53.53-1.82 1.16a26.96 26.96 0 01-7.09 2.34l-1.84.33c-1.74.33-3.19.44-7.66.61-4.15.15-4.42.16-5.84 0a71.9 71.9 0 01-4.29-.51l-1.7-.33a37.65 37.65 0 01-6.34-1.7l-.5-.22c-1.17-.51-1.48-.9-1.75-2.22-.27-1.27-.31-1.59-.22-1.46.17.21 1.7 1.14 2.6 1.57a19.02 19.02 0 007.04 1.78c.7.06 2.07.2 3.03.32 3.05.38 4.3.44 8 .37 6.5-.13 5.58-.07 8.05-.52 2.45-.45 2.96-.58 5.56-1.43.95-.31 3-1.43 3.4-1.85.15-.17.45-.43.66-.57.2-.15.53-.41.71-.6zM26.65 67.4l.03.9c.03 1.2.07 1.35.44 1.67.36.32.55.35.84.14.18-.12.2-.23.2-.74v-.59l.5-.01c.97-.03 1.65.02 2.34.2.93.24 1.76.65 2.02 1 .24.32.24.53.02 1.14-.27.76-1.24 1.33-3.12 1.82-.38.1-.92.26-1.2.36-1.95.69-8 .54-10.19-.25-.65-.23-.84-.4-.84-.73 0-.12-.1-.3-.23-.43l-.23-.2.27-.38a6.3 6.3 0 013.93-2.2l.67-.07v.5c0 .44.04.55.25.77.33.32.6.42.95.35.34-.07.34-.1.04-2.62l-.05-.43.76-.05 1.68-.1z"/></g></svg>