<svg xmlns="http://www.w3.org/2000/svg" viewBox="0 0 510 461.55"><g id="レイヤー_2" data-name="レイヤー 2"><g id="レイヤー_1-2" data-name="レイヤー 1"><path d="M253.79,461.43a1.12,1.12,0,0,1-.76-.34.46.46,0,0,0-.4-.27,2.13,2.13,0,0,1-.84-.36,8.65,8.65,0,0,0-1.55-.68c-.54-.17-1.5-.5-2.12-.74s-1.53-.52-2-.65l-2.14-.57c-2-.53-3.63-.93-4.85-1.16-.62-.12-2-.46-3-.75s-2.58-.68-3.38-.86-2.59-.62-3.95-1c-5.18-1.34-7.23-1.83-8.23-2-3.92-.69-7.63-1.41-11.7-2.13-.59-.1-1.88-.33-2.88-.49-5.27-1.51-10.6-1.66-15.74-3.2a3.77,3.77,0,0,0-1.07-.18,7.52,7.52,0,0,1-1.64-.27c-.53-.14-2.19-.44-3.68-.66l-3.51-.54c-.43-.07-1.14-.15-1.58-.18s-1-.11-1.35-.17l-2.37-.43c-1-.18-2.05-.41-2.35-.51a16.69,16.69,0,0,0-2-.37c-2.28-.28-5.17-.83-12.44-2.32-4.07-.84-3.91-.81-9.49-1.83-2.31-.42-14.79-2.42-19.55-3.14-3.27-.49-6.76-1.06-7.79-1.27-.56-.12-1.68-.3-2.49-.4a14.55,14.55,0,0,1-1.92-.36,10.51,10.51,0,0,0-2.94-.43,9.91,9.91,0,0,1-1.81-.27,33.06,33.06,0,0,0-6.21-1c-1.18-.08-2.66-.22-3.28-.32s-1.94-.23-2.94-.3-3.8-.32-6.22-.55-6.41-.48-8.83-.56a48,48,0,0,1-5.25-.34,3,3,0,0,0-1.18-.11.51.51,0,0,1-.47,0,6.14,6.14,0,0,0-1.76-.3c-.9-.08-2.55-.27-3.66-.43a13,13,0,0,0-2.47-.21,20.74,20.74,0,0,1-3-.22c-1.41-.16-5.5-.41-9.07-.55s-8.5-.35-10.93-.47c-6.09-.32-17-.51-23-.4-2.74.05-6.74.1-8.88.1s-4,.08-4.16.14a16.18,16.18,0,0,1-2.4.25A10.24,10.24,0,0,0,6,428c-.25.16-.52.15-1.18,0a7.27,7.27,0,0,1-1.08-.37,4,4,0,0,0-.85-.26,2.25,2.25,0,0,1-1.15-.81l-.54-.69.17-10.17C1.73,391,1.63,374.5,1,368.32c-.26-2.74-.35-5.62-.37-12.71,0-3.45-.05-6.32-.09-6.37S.47,288.78.45,285.73s-.08-6-.11-6.54-.07-3.94-.1-7.54S.16,229.65.1,228s-.06-6.63,0-11.08c.34-7.59-.39-15.21.06-22.8.8-12.64.94-16.05.29-22.74-.12-1.27-.1-28.27.06-39,.14-9.74.22-79.7.18-81.45s-.05-7.76,0-13.35C.74,25.09.68,21.41.4,18.84a40.7,40.7,0,0,1,0-6.36c.15-2.4.3-5.11.34-6C.92,3.55,1.75.76,2.58.41A46.6,46.6,0,0,1,11.2.05c1.31.09,9.24.27,17.62.4S45,.75,46,.82l7.64.46c6,.36,15.25,1,19,1.4C82.88,4,92.77,4,103,5.4l4.4.61c.8.1,2.58.37,4,.59,3,.47,2.35.39,9.73,1.29,14.63,1.77,17.37,2.16,23.86,3.38,5.84,1.1,9,1.62,9.68,1.63a14.08,14.08,0,0,1,2,.28c.69.16,3.06.51,5.25.8,6.17.8,9.71,1.45,11.77,2.14,6,1.45,11,2.41,17.23,3.37,1.49.23,3.93.63,5.42.89s4,.66,5.54.89c4.75.74,9,1.86,13.77,2.8,1.43.28,3.52.72,4.63,1l3.17.73c1.05.25,3,.83,4.05,1.22.25.09,1.57.47,2.93.83,9.09,2.44,21.72,6.33,26.1,8.06,1.13.44,1.6.55,1.82.4a6.42,6.42,0,0,1,1.19-.43c.49-.13,2.48-.81,4.43-1.52,4.43-1.59,7.46-2.59,10.37-3.41,1.25-.36,3.51-1,5-1.5,4.76-1.45,9.79-3,14.35-4l4.89-1.06,5.67-1.22c1.31-.27,2.84-.6,3.41-.74,5.32-1.27,7.27-1.71,9.12-2.07,2.17-.42,7.59-1.53,10.58-2.16,1.38-.3,4.16-.75,9.89-1.62,8-1.29,15.81-3.42,23.79-4.45,8.12-1.3,13.8-2,22.46-3,6.55-.77,17-1.88,21.69-2.29l5.3-.49c1.35-.14,4.57-.38,7.15-.54s6.52-.44,8.77-.61,6.18-.34,8.74-.36c16.31-.11,17.34-.13,17.68-.35a16.23,16.23,0,0,1,3.86-.3C458.64,4.13,461,4,462,4s10.23,0,20.51.12c22.46.29,23.63.37,25.29,1.78A1.61,1.61,0,0,1,508.56,7c1,1.14.08,1.91.05,3.14,0,1-.11,3.48-.17,5.45s-.08,4.14,0,4.81.13,2.5.16,4,.11,4.7.2,7a61.52,61.52,0,0,1-.06,6.55c-.25,2.72-.54,64.51-.33,64.78s.09,20.53,0,22.39c-.05.76.08,11.19.18,14,0,1.43,0,28.18-.07,35.94s-.13,9.11-.11,10.71c.06,8.37,0,7.75.11,16,0,4.94.06,12.3,0,16.35s0,8.34.05,9.54c.14,3.63.41,112.29.47,122.14,0,5.1.1,10.42.16,11.82s.07,5.69,0,9.53,0,8.39,0,10.09.09,4.89.1,7.09.06,4.94.11,6.09.12,3.19.18,4.54.1,3.39.1,4.55.07,2.7.13,3.45a147.59,147.59,0,0,1-.54,19c-.19,1.25-.41,1.54-1.16,1.53a1,1,0,0,0-.79.37c-.21.3-.39.35-.87.26a9.6,9.6,0,0,0-1.16-.18,5.85,5.85,0,0,1-1.24-.3c-1.1-.39-13.11-1-25.13-1.33-8-.2-12.57-.14-20.41.24-5.43.09-10.91.27-16.22.7-1.06.09-2.49.2-3.17.24s-1.81.16-2.5.25c-3.36.43-7.67.73-12.71.87l-5.89.2c-1.81.07-4.57.16-6.13.19s-4.11.17-5.67.3-4.32.35-6.13.48-5.38.48-7.94.74l-6.36.64c-4.28.47-8.8,1.13-12.61,1.59-7.9.92-15.73,2.75-23.41,3.72-1.12.14-2.81.4-3.75.58s-2.52.45-3.52.6c-10.78,1.89-21.41,4.28-32,6.84-6.87,1.67-10,2.45-11.27,2.84-.75.22-2.55.73-4,1.12s-2.92.83-3.3.95l-1.25.42a13.38,13.38,0,0,1-1.37.36c-1.86.39-3.87,1-3.88,1.23-3.26.77-7,2.21-10.14,3.17-1,.31-2.75.89-3.88,1.31s-2.46.89-3,1.06c-2.61.88-8.33,3.14-8.33,3.29a4.56,4.56,0,0,1-3.42,1.09c-.86-.08-1.35-.05-1.46.08s-.38.21-1.56.06Zm5.41-7,4-1.31,1.38-.46c.5-.16,1.62-.56,2.5-.87s2.88-1,4.45-1.49,3.05-1,3.31-1.13a11.86,11.86,0,0,1,1.36-.5c3.09-1.06,6.44-2.2,9.47-3.19s10.83-3.23,13.33-3.83c1-.24,2.69-.66,3.76-.95,1.8-.48,7.79-1.94,11.94-2.9l5.13-1.19c8-1.81,16.09-3.53,24.36-4.82,3.37-.52,7-1.17,9.64-1.7,10.84-2,22.53-3.64,33.17-4.64,1.87-.17,4.33-.42,5.45-.55,6.73-.8,18.07-1.59,24.74-1.72a160.15,160.15,0,0,0,16.1-1.07c.88-.13,3.07-.36,4.86-.49s3.34-.28,3.41-.32c5.36-.47,10.77-.4,16.13-.82,4.72-.39,12.63-.42,23.23-.1,10.89.33,18.71.66,21,.89l1.27.13.2-1.87c.23-2.06.36-9.49.22-12.06-.21-3.74-.51-16.37-.58-24,0-4.5-.12-11.21-.18-14.91s-.11-11.79-.13-18-.06-69.83-.1-70.68-.13-5.1-.17-9.45-.15-44.05-.23-46.55-.12-8.8-.09-14,0-11.73,0-14.53c-.12-6.14.11-3-.13-9.16-.06-1.2,0-3.22.11-12.22s.21-39.05.22-43.3.05-76.94.1-87.53.1-21.85.12-25l0-6.88-.61-.13c-.34-.07-3.12-.19-6.18-.26s-5.92-.17-6.35-.23-1.38-.16-2.13-.22l-4.75-.36c-5.06-.39-12.75-.51-32.21-.38a239.77,239.77,0,0,0-27.4,1.55c-.88.09-2.21.16-3,.16s-2.52.1-3.93.24a20.48,20.48,0,0,1-2.87.16.55.55,0,0,0-.43,0c-.18.14-.62.18-3.31.36-1.19.08-2.81.22-3.6.32a20.07,20.07,0,0,1-2.27.17,21.08,21.08,0,0,0-2.42.16c-.87.1-1.9.2-2.3.22a4.32,4.32,0,0,0-.91.14,3,3,0,0,1-1,0,30.78,30.78,0,0,0-3.4.24l-5.23.57c-1.43.15-3.48.38-4.54.51-5.81.44-11.45,1.28-17.15,2.16-.87.13-2.66.35-4,.47s-3,.35-3.75.48c-1.7.31-6.21,1.21-7.73,1.55-4.49,1.37-9.12,1.44-13.54,2.49a12.48,12.48,0,0,1-2.5.42,13.15,13.15,0,0,0-1.93.25,12.64,12.64,0,0,1-1.82.32c-2,.26-5.77,1-9.71,1.8-1.91.42-4.71,1-6.21,1.32s-2.83.62-3,.69a10.2,10.2,0,0,1-1.59.33c-1.21.18-3.19.57-6.82,1.35l-3.19.65c-8.75,1.54-15.06,4.09-23,6.18-.13,0-1.35.35-2.71.78s-2.59.79-2.72.79a1.42,1.42,0,0,0-.6.23,9.4,9.4,0,0,1-1.61.55,13.26,13.26,0,0,0-1.83.61,8.7,8.7,0,0,1-2.72.89,7.57,7.57,0,0,0-1.72.53,8.11,8.11,0,0,1-1.68.53,2.38,2.38,0,0,0-.95.34,2.49,2.49,0,0,1-.8.36.87.87,0,0,0-.5.34,1.9,1.9,0,0,1-1,.46,5.43,5.43,0,0,0-1.25.38.93.93,0,0,1-.9.08,1.46,1.46,0,0,0-.93,0,1.7,1.7,0,0,1-1.71-.52,1.59,1.59,0,0,0-.67-.44,8.54,8.54,0,0,1-.83-.36,60.82,60.82,0,0,0-5.85-1.88c-3.45-.87-11-3.12-14.09-4.22-1.53-.54-5.4-1.65-5.68-1.64-.1,0,0,.08.27.17.42.16.41.16-.09.17a.59.59,0,0,1-.63-.33c-.07-.22-.38-.39-.82-.45a8.92,8.92,0,0,1-1.15-.25c-.3-.1-.38-.08-.27.07s-.08.27-.86-.07a2.74,2.74,0,0,0-1-.25,6.27,6.27,0,0,1-1.12-.12c-.57-.12-.69-.2-.45-.32s0-.13-.59-.08-.76,0-.45-.06.43-.16-.11-.3a7.73,7.73,0,0,0-1-.21,6.48,6.48,0,0,1-1.08-.25c-.79-.26-.9-.26-.72,0s-.08.19-.34.18-.46-.08-.46-.18-.27-.2-.62-.21a6.46,6.46,0,0,1-1.18-.19c-.57-.17-.57-.17.05-.1.35,0,.63,0,.63-.07a6.4,6.4,0,0,0-2.76-.3q-.54.12-.21-.06c-.94-.77-3.86-1-6.07-1.17-.73-.06-.74-.08-.22-.19s.31-.18-1-.46l-2.71-.59-3.05-.67c-1.06-.23-2.53-.58-3.27-.77s-2-.46-2.83-.58-2-.34-2.59-.48c-4.61-1-9.33-1.63-14-2.44-.5-.09-2.33-.46-4.06-.83s-3.62-.74-4.18-.82a7.19,7.19,0,0,1-1.35-.29,28,28,0,0,0-4.24-.95,12.9,12.9,0,0,1-1.81-.28c-.71-.15-2.57-.46-4.12-.7s-3.18-.49-3.62-.59a17.21,17.21,0,0,0-3.88-.49,13.45,13.45,0,0,1-4.13-.76,9.31,9.31,0,0,0-3.28-.65,7.44,7.44,0,0,1-2.6-.26c.08-.1-.67-.28-2-.48-.5-.07-1.62-.31-2.31-.49a11.16,11.16,0,0,0-1.7-.28c-.88-.07-5.3-.64-8.65-1.11-4.06-.42-7.09-.86-11.41-1.48-.56-.07-2.09-.29-3.4-.49l-4.07-.6c-.93-.12-2.2-.32-2.82-.42s-1.48-.25-1.92-.3l-1.73-.25c-.52-.08-1.84-.18-2.94-.21A20.07,20.07,0,0,1,94,9.37c-8.71-.31-17.3-2.14-26-2.23A8.59,8.59,0,0,1,66.38,7c-.86-.19-1.7-.25-9.27-.75L50.2,5.77c-1-.06-4.41-.18-7.59-.26l-12.46-.3c-3.67-.1-8.11-.13-9.86-.09S16.15,5.12,15,5A39.79,39.79,0,0,0,7.9,5l-.62.13L7.13,7.55c-.09,1.35-.27,3-.41,3.72A43.4,43.4,0,0,0,6.38,16c0,1.9-.14,4.51-.2,5.81s-.06,3.88,0,5.73.19,4.79.25,6.54.07,6.82,0,11.27c-.2,14.78-.32,92.2-.25,96.71.09,6.45.31,31,.5,31.24s.36,5.8.5,10.07c-.31,14.78-.79,30-.57,46.35.11,6.19.13,42.4.25,52.56,0,2.5.08,5.07.11,5.72.2,5.25.37,68.95.41,72.23.07,5.08.18,7.83.41,10.18.32,3.26.72,20.1.64,27.08,0,2.35-.13,8.48-.23,13.63s-.16,9.51-.13,9.69.29.35,3.9.34c2.11,0,4.45,0,5.2,0a27.91,27.91,0,0,1,3,.14l3.28.32c.88.08,6.59.22,12.69.31,13.54.19,19.65.49,26.49,1.3,1.75.21,4.9.45,7,.55s4.87.3,6.11.46,5.41.4,9.74.53a148.9,148.9,0,0,1,25,2.65c2.36.43,5.18.88,8.14,1.29,2.63.37,14.72,2.17,17.63,2.64l5.09.79c4.23.66,13.76,2.31,16.26,2.82,8.49,1.73,14.57,2.76,22,3.73,2.6.33,7.66,1.18,12.77,2.13,5,.77,9.39,2,14.12,2.62,4.49.59,8.48,1.56,12.53,2.43,5.37,1.16,5.61,1.21,7,1.63.74.22,1.91.53,2.59.67s1.9.44,2.71.64c2.41.61,9.73,2.33,11.06,2.6a61.85,61.85,0,0,1,11.6,3.8,3.84,3.84,0,0,0,1.35.54l3.76-1.23ZM218.81,31.08a.31.31,0,0,1,.36-.07c.31.16.25.26-.15.26C218.83,31.27,218.74,31.18,218.81,31.08Z"/></g></g></svg>