<svg xmlns="http://www.w3.org/2000/svg" viewBox="0 0 205.25 31.8"><g id="レイヤー_2" data-name="レイヤー 2"><g id="レイヤー_1-2" data-name="レイヤー 1"><path d="M2.17,31.54C1.23,31.2,0,30.12,0,29.6s1.11-1,2.45-1.4a34,34,0,0,1,4.91-.48c2.06-.08,4.81-.3,6.12-.48s4.73-.46,7.61-.6,7.16-.42,9.49-.59c2.49-.19,6.78-.29,10.37-.24,27,.35,29.68.34,39.2-.07,6.62-.29,14.31-.42,24.72-.42,17.18,0,44-.48,47-.83,4.89-.57,10.92-.78,24-.87,7.68-.05,16.85-.16,20.37-.25s6.69-.09,7.05,0a3.58,3.58,0,0,1,1.91,2.78c0,.9,0,.91-6.74,1.09-2.81.07-5.57.18-6.11.24s-3.25.08-6,.07c-16.32-.08-28.18.22-30.71.79-.55.13-4.82.28-9.49.34-10.88.15-22,.38-23.1.48-1.51.14-11.94.15-22.47,0-5.57-.06-10.85,0-11.74.09-2,.25-13.52.62-18.73.6l-20.48-.12c-16.18-.1-23.61.08-29.34.74-3.37.38-7.31.72-11.23,1-2.06.13-4.25.28-4.87.34A5.62,5.62,0,0,1,2.17,31.54Z"/><path d="M44,3A6.24,6.24,0,0,1,41.63.5c0-.37,1-.65,1.5-.42A2.21,2.21,0,0,0,44,.29a4,4,0,0,1,2.26,1.26c.32.4.36.58.19.94C46.1,3.15,45.25,3.32,44,3ZM40.6,14.48a2.66,2.66,0,0,1-.52-.82A5,5,0,0,1,40.41,11a12.63,12.63,0,0,1,1.42-3A.45.45,0,0,0,42,7.74c0-.13-.35-.16-1-.07s-1.08.07-1.2-.14A2.39,2.39,0,0,0,39,6.92c-.4-.19-.62-.44-.58-.63.08-.45,2.1-1,3.61-1s3.83.43,4,.76-.14,1.51-.71,2.34-.48,1.3.27,1.3A3.24,3.24,0,0,1,48,11.31c.67,1,.71,1,1.65.6,1.1-.46,3.35.05,3.35.75s-2.48,1.81-4.1,1.83a5.48,5.48,0,0,1-3.24-1.84c-1-1-1-1-1.48-.68a1.59,1.59,0,0,0-.9,1.18C42.77,14.94,41.51,15.57,40.6,14.48Z"/><path d="M14.57,5.05c-1.13-.32-1.73-.58-1.73-.74a.86.86,0,0,0-.25-.41A2.09,2.09,0,0,1,12.21,3c-.11-.55-.06-.63.47-.81a4.16,4.16,0,0,1,3.42.42c1,.49,1.26.72,1.31,1.11C17.53,4.83,16.1,5.48,14.57,5.05ZM3.32,10.6A2.63,2.63,0,0,1,2.66,8c.11-.57.2-1.07.2-1.1s-.14-.07-.3-.07A2.06,2.06,0,0,1,.75,4.89c0-.32.17-.37,1.48-.42l1.48,0,.27-1C4.31,2.25,4.5,2,5.16,2s1.16.56,1.29,1.49c.09.73.13.76,1.24,1.08,1.36.41,1.8,1,1.22,1.66-.29.32-.6.38-1.74.38H5.78l-.1.63a13.15,13.15,0,0,1-1,3.64A1.13,1.13,0,0,1,3.32,10.6Zm6.45,2.59A2.36,2.36,0,0,0,10.26,12c.12-.73.1-.81-.26-.81-.55,0-1,.71-1,1.58S9.21,13.71,9.77,13.19ZM7.24,15.4a2.84,2.84,0,0,1-1.43-1.33c-.32-.72-.32-.75.22-2.09.39-1,.69-1.41,1-1.53s.81-.35,1.26-.56a6.54,6.54,0,0,1,1.53-.51c.77-.12.84-.27,1-2,.05-.59.12-.68.64-.73a3,3,0,0,1,1.49.45c.95.53,1,.63.91,2.18a1.29,1.29,0,0,0,.59,1.39,2.75,2.75,0,0,0,.86.55,4.48,4.48,0,0,1,1.61,2.06c0,.39-1.06,1-1.72,1a2.29,2.29,0,0,1-1-.57,2.77,2.77,0,0,0-.85-.58,4,4,0,0,0-.89,1.15c-1,1.53-1.27,1.73-2.8,1.72A4,4,0,0,1,7.24,15.4Z"/><path d="M26.29,14.12a1.83,1.83,0,0,0,.56-.91c0-.32-.11-.35-1.13-.25-1.27.12-1.94.56-1.94,1.28,0,.41.08.45,1,.45A1.66,1.66,0,0,0,26.29,14.12Zm-2,2.68a3.35,3.35,0,0,1-1.92-1.11A12.09,12.09,0,0,1,22,14.18c-.21-1.07-.2-1.22.14-1.69.59-.81,1.37-1.09,3.34-1.21l1.8-.11-.05-.78c-.06-.78-.07-.79-.92-.91a2.8,2.8,0,0,1-1.59-.79c-1.22-1.12-1-1.49,1.12-1.49H27V4.7h-.58c-.68,0-2.29-1-2.29-1.45S25,2.59,26,2.59h.85V1.65c0-1,.34-1.56.93-1.55S29.09,1,29.19,2c0,.55.17.67.83.89s1.25.7,1.25,1.06-.81.93-1.37.93-.58,0-.48.43a3.64,3.64,0,0,1,.12.86c0,.28.12.43.34.43A6,6,0,0,1,31.17,7c.84.3,1,.42,1,.92.08.76-.28,1-1.52,1.2l-1,.12v1.61c0,1.15.08,1.65.27,1.76s.84.61,1.56,1.16c1,.81,1.3,1.12,1.3,1.53,0,.79-.41,1-1.55.85a1.7,1.7,0,0,1-1.62-1l-.27-.39-.28.39A2.81,2.81,0,0,1,27,16.71,4.71,4.71,0,0,1,24.26,16.8Z"/></g></g></svg>