<svg xmlns="http://www.w3.org/2000/svg" width="201.653" height="21" viewBox="0 0 201.653 21"><g transform="translate(-504.347 -209)"><text transform="translate(643 225)" font-size="15" font-family="GenJyuuGothicX-P-Heavy, Gen Jyuu Gothic XP" font-weight="800" letter-spacing="0.07em"><tspan x="-62.01" y="0">ブンルイ・ブックス</tspan></text><g transform="translate(504.347 212.252)"><path d="M13.138,4.69c-.442-1.259-5.154-1.28-5.154-1.28C8.405,1.574,8.419.274,7.918.069c-.6-.241-1.748,1.123-2.93,3.314C2.141,3.52,0,4.133,0,4.867,0,5.477,1.492,6,3.635,6.245,3.6,6.331.068,14.191,2.19,14.191S6.943,6.817,7.107,6.365A21.117,21.117,0,0,0,9.7,6.126c-.388.794-2.621,8.21-.745,8.533S13.749,6.438,13.138,4.69Z" transform="translate(0 -0.041)"/></g><g transform="translate(534.704 213.001)"><path d="M1615.6,39.83c-.756-.167-1.709,1.611-2.124,3.968s-.147,4.4.61,4.563,1.712-1.611,2.126-3.967S1616.353,39.994,1615.6,39.83Z" transform="translate(-1613.278 -39.82)"/></g><g transform="translate(539.139 212.869)"><path d="M1852,32.807c-.866-.13-2.072,3.176-2.687,7.384s-.412,7.721.454,7.848,2.068-3.174,2.687-7.382S1852.865,32.937,1852,32.807Z" transform="translate(-1848.954 -32.804)"/></g><g transform="translate(519.692 218.851)"><path d="M821.365,350.7c-3.24,0-5.865.538-5.865,1.2s2.625,1.2,5.865,1.2,5.865-.534,5.865-1.2S824.608,350.7,821.365,350.7Z" transform="translate(-815.5 -350.7)"/></g><g transform="translate(545.908 213.651)"><path d="M2212.284,74.365c-.768-.158-2.068,2.619-2.911,6.2s-.9,6.616-.128,6.772,2.066-2.623,2.9-6.2S2213.05,74.523,2212.284,74.365Z" transform="translate(-2208.706 -74.359)"/></g><g transform="translate(551.886 213.926)"><path d="M2534.843,96.64c-.348-2.027-4.849,1.376-5.412,1.737a24.95,24.95,0,0,0,.44-3.47c0-3.263-.773-5.907-1.733-5.907s-1.737,2.644-1.737,5.907c0,2.5.459,5.25,1.1,6.108a.016.016,0,0,0,0,.011.608.608,0,0,0,.181.194.676.676,0,0,0,.448.207.168.168,0,0,0,.048-.009C2529.192,101.605,2535.2,98.672,2534.843,96.64Z" transform="translate(-2526.401 -89)"/></g><g transform="translate(568.3 217.007)"><line x2="6.132" y2="6.132" fill="none" stroke="#000" stroke-linecap="round" stroke-width="2"/><line x2="6.132" y2="6.132" transform="translate(6.132 0) rotate(90)" fill="none" stroke="#000" stroke-linecap="round" stroke-width="2"/></g></g></svg>