<svg xmlns="http://www.w3.org/2000/svg" viewBox="0 0 208.47 102.87"><g id="レイヤー_2" data-name="レイヤー 2"><g id="レイヤー_1-2" data-name="レイヤー 1"><path d="M5.24,102.53c-2.71-.85-3.91-2-4.6-4.54-.86-3.1-.86-3.27,0-5.06,1.31-2.65,4-5.08,6.07-5.54a7.61,7.61,0,0,0,1.55-.48,13.82,13.82,0,0,1,2.24-.61l1.8-.37,0-1.09a2.78,2.78,0,0,0-.23-1.29c-.28-.27-2.6.13-3.9.68a3.13,3.13,0,0,1-3,0A4.68,4.68,0,0,1,2.44,82a3.16,3.16,0,0,1-.07-2.63,7.55,7.55,0,0,0,.78-1.2c1-1.84,3.71-2.5,7.69-1.87,2.61.4,5.27,1.58,5.77,2.55.16.3.53,1,.83,1.48a14.22,14.22,0,0,1,.81,1.71,8.06,8.06,0,0,1,.21,3.45c-.13.39,0,.46,1,.66,3.12.64,3.77.71,3.94.43a33.9,33.9,0,0,0,.69-3.75A34.7,34.7,0,0,1,24.77,79c.63-1.19,1.82-1.57,3.67-1.15s2.43,1.22,2.43,3.78a22.23,22.23,0,0,1-.3,3.5c-.16.93-.34,2.16-.4,2.74l-.09,1,1.33.48a6.65,6.65,0,0,1,1.88,1,6.38,6.38,0,0,0,1,.85,16.88,16.88,0,0,1,1.73,1.5c1,1,1.23,1.31,1.24,2,0,1-.26,1.48-1.28,2.49-1.18,1.18-1.75,1.28-3.46.64A6.25,6.25,0,0,1,30,96.16c-1.29-1.33-1.5-1.32-1.74,0A14.78,14.78,0,0,1,25.75,101a7.89,7.89,0,0,1-1.51,1.1c-1.42.83-2.57.72-3.37-.31-.3-.39-.68-.7-.85-.7s-.38-.26-.32-1.46a6.67,6.67,0,0,1,.83-2.74,31.35,31.35,0,0,0,1.77-4.49c.32-.91.22-1.2-.37-1.19A12.21,12.21,0,0,1,20,90.82c-2.5-.66-2.53-.65-3,1.13a9.64,9.64,0,0,1-.53,1.74,3.29,3.29,0,0,0-.3,1,3.46,3.46,0,0,1-.31.94,6.15,6.15,0,0,0-.39,1.26,7.08,7.08,0,0,1-1,2,3.88,3.88,0,0,0-.71,1.31c0,.33-.93,1.21-1.28,1.21a4.21,4.21,0,0,0-1,.55c-.45.3-.9.5-1,.43a4,4,0,0,0-1.39.2A6,6,0,0,1,5.24,102.53Zm2.54-4.77a4.06,4.06,0,0,0,1-.61,8,8,0,0,0,2-3.05c.42-1.56.6-2.2.82-2.94.11-.37.14-.72.06-.77a7.23,7.23,0,0,0-2.89,1.15A2.19,2.19,0,0,1,7.64,92c-.78,0-1.15.6-1.56,2.58-.35,1.72-.26,2.47.38,3.11C7,98.16,6.87,98.15,7.78,97.76Z"/><path d="M164.21,99.93a5.68,5.68,0,0,1-2.81-1.8c-1.9-1.94-2.39-2.87-2.4-4.51a8.22,8.22,0,0,1,1.06-4,11.57,11.57,0,0,1,2.39-2.33,7.45,7.45,0,0,0,1.2-.66l1-.65,2.71,0,2.7,0,.14-1.48c.08-.81.17-2,.2-2.59s.16-1.61.27-2.21.29-2,.4-3c.22-2,1.18-5.32,1.76-6A4.9,4.9,0,0,1,174.4,70c1-.35,1.27-.37,1.87-.13,1.1.44,1.39,1.38,1.27,4.19a22,22,0,0,1-.23,2.65c-.09.24.21.33,1.42.44a12.45,12.45,0,0,1,5.14,1.58c1.43.71,1.79,1,2.21,1.74.62,1.12.43,1.71-.85,2.53a2.58,2.58,0,0,1-2.16.46,26.91,26.91,0,0,1-4.9-.78,1.4,1.4,0,0,0-.78-.13,9.92,9.92,0,0,0-.28,1.88c-.22,2-.29,2.44-.49,2.64s-.11.65.54.86a18.25,18.25,0,0,1,6.7,3.75,18.38,18.38,0,0,0,1.72,1.48,3.51,3.51,0,0,1,1.32,1.7,2.9,2.9,0,0,1,0,2.76,1.9,1.9,0,0,1-1.25,1.29c-1.16.47-1.3.45-2.54-.26a5.81,5.81,0,0,0-1.27-.62c-.11,0-.32-.19-.47-.42s-.37-.42-.5-.41a4.23,4.23,0,0,1-1.17-1.13c-.91-1.11-3.86-3.13-4.23-2.9a1.35,1.35,0,0,0-.17.82,1.33,1.33,0,0,1-.2.84.8.8,0,0,0-.21.61,2,2,0,0,1-.51,1.06,2.28,2.28,0,0,0-.52.73A10.93,10.93,0,0,1,171.27,99c-.2.09-.36.25-.36.37,0,.31-2,.82-3.67,1A6,6,0,0,1,164.21,99.93Zm4-4.84c.77-.21,2.21-3.92,1.72-4.4a6.22,6.22,0,0,0-2.09-.24c-2,0-2.08,0-3.28,1.51-.8,1,.27,2.67,1.92,3C167.66,95.23,167.74,95.24,168.25,95.09Z"/><path d="M55.63,99.51a10.85,10.85,0,0,1-3.22-2.32,2.19,2.19,0,0,1,.25-1.14c.33-.8.56-1,1.74-1.54a7.28,7.28,0,0,1,1.94-.65,6.47,6.47,0,0,0,3.11-1.35,10.24,10.24,0,0,0,1.66-2.21c.92-1.59.94-1.65.8-3a4.2,4.2,0,0,0-1.4-3.12,21.52,21.52,0,0,0-5.72-1c-1.79-.12-1.95-.1-3.07.47l-1.81.91a4.88,4.88,0,0,1-3.61.6,3.48,3.48,0,0,1-2.19-1.16c-.51-.5-.9-1-.87-1.17a1.16,1.16,0,0,0-.15-.65c-.3-.55.2-2.21.71-2.32a4.78,4.78,0,0,0,1.13-.56,4.91,4.91,0,0,1,1.8-.6c.57-.06,2.31-.34,3.86-.61,3.86-.69,6.61-.81,8.38-.37a14.28,14.28,0,0,1,4.74,1.79c2.7,1.59,4.57,3.92,4.58,5.71a8.34,8.34,0,0,0,.35,1.89,2.72,2.72,0,0,1-.1,2.43c-.47,1.32-1.58,3.32-1.83,3.32-.08,0-.33.34-.55.76a8.7,8.7,0,0,1-1.65,1.84c-.7.6-1.59,1.41-2,1.79a6.57,6.57,0,0,1-1.84,1.13c-.61.23-1.48.62-1.93.85A4.27,4.27,0,0,1,55.63,99.51Z"/><path d="M96.57,98.34a3.29,3.29,0,0,1-1.73-2,7.74,7.74,0,0,1,1.36-2.83,4.58,4.58,0,0,0,.5-1A61.81,61.81,0,0,0,98.44,83c.11-1.46.1-1.54-.28-1.42-.22.07-1.09.27-1.93.46a11.39,11.39,0,0,0-1.9.53,2.76,2.76,0,0,1-2.08-.22.79.79,0,0,1-.26-.52,1.75,1.75,0,0,0-.56-.8,1.58,1.58,0,0,1-.57-1.36,2.16,2.16,0,0,1,.18-1c.45-.42,6.3-1.4,7-1.16.23.09.26-.26.12-1.88a7.15,7.15,0,0,1,.2-3.21A2.71,2.71,0,0,1,99,71.1a5.32,5.32,0,0,0,.68-.29c.44-.24,1.57-.28,1.66,0a3.53,3.53,0,0,0,.72.61c.53.37.71.71,1,2a19.78,19.78,0,0,1,.44,2.88l.06,1.34,1.47.34c2.37.55,2.88.84,3.47,2l.52,1-.4.77c-.37.7-.5.78-1.38.84a8.78,8.78,0,0,1-2.24-.24c-.69-.18-1.32-.32-1.39-.32a2.2,2.2,0,0,0-.12,1,22.88,22.88,0,0,1-.39,3.21,23,23,0,0,0-.39,3.25,40.25,40.25,0,0,1-1.55,7.12,5.15,5.15,0,0,1-2.45,1.71C97.6,98.6,97.28,98.62,96.57,98.34ZM83.34,96.27c-2.3-.7-3.76-2.44-4.58-5.43a38.89,38.89,0,0,1-.64-9.92c.4-3.64.42-3.68,1.23-4.1a5.63,5.63,0,0,1,3.47-.18,3.72,3.72,0,0,1,1.07.68c.56.52.56,1.23,0,4.14-.54,2.59-.32,8,.36,8.9.3.4.32.4,1-.1,1.21-.92,4.41-.59,5,.51a2.84,2.84,0,0,1-.73,2.71,3.47,3.47,0,0,0-.68.86,7.19,7.19,0,0,1-3.6,2.08A5,5,0,0,1,83.34,96.27Z"/><path d="M200.67,101.71a4.48,4.48,0,0,1-2.53-2.24l-.5-1,.53-1.09c.63-1.32,1-1.71,2.06-2a3.65,3.65,0,0,1,3.33.93c.82.69.86.77.74,1.59s-1.85,3.72-2.29,3.72a2.52,2.52,0,0,0-.54.08A2.4,2.4,0,0,1,200.67,101.71Zm.67-10a3.31,3.31,0,0,1-.88-1.31,7,7,0,0,0-.37-1.09c-.38-.74.61-7.32,1.82-12.2a7.52,7.52,0,0,1,1.5-3.16,1,1,0,0,0,.37-.55,1.89,1.89,0,0,1,.54-.84,1.72,1.72,0,0,1,1.43-.56,2.08,2.08,0,0,1,1.12.23,2.85,2.85,0,0,0,.93.47l.67.21,0,1.48a25.79,25.79,0,0,1-1.09,6.09c-.23.81-.44,1.67-.47,1.9a8.18,8.18,0,0,1-.64,2.47,5.13,5.13,0,0,0-.31,1.59,4.68,4.68,0,0,1-.31,1.57,31,31,0,0,0-1.63,2.9c-.59,1.13-.63,1.17-1.35,1.35C202.2,92.38,201.93,92.27,201.34,91.72Z"/><path d="M123,99.72c-1.34-.42-2.42-1.19-2.57-1.84a1.46,1.46,0,0,0-.32-.69,3.3,3.3,0,0,1-.19-1.42,94.76,94.76,0,0,1,.85-10.29,18.48,18.48,0,0,0,.3-2.68c0-.91-.07-1-.45-1-.67,0-1.28-.37-2.26-1.42s-1.56-2.48-1-2.88a10.12,10.12,0,0,1,4.07-.9c.5.06.8,0,.81-.14s.22-1.23.45-2.44c.43-2.2.72-2.72,1.5-2.75.2,0,.36-.1.36-.21s.35-.36.79-.55a3,3,0,0,1,3.16.48c.93.81,1.18,1.57.8,2.34a3.22,3.22,0,0,0-.31,1.3,9.57,9.57,0,0,1-.51,2.64c-.12.4-.06.47.34.47a9.21,9.21,0,0,1,2.54.65c.7.24,1.21,1.11.87,1.47a1.47,1.47,0,0,0-.25.89c0,.76-.8,1.38-1.82,1.39a13.37,13.37,0,0,0-1.59.14l-1,.14-.24,1.19c-.14.65-.46,2-.72,3.07a92.27,92.27,0,0,0-1.68,12c0,.38-.72,1.39-1,1.36C123.84,100,123.41,99.86,123,99.72Zm20.46-1.32a6.55,6.55,0,0,0-1.66-.3,14.87,14.87,0,0,1-2.21-.37,6.6,6.6,0,0,1-2.66-1.57,2.19,2.19,0,0,0-.49-.67c-1.12-1.19-1-2.26.42-3.42s2.64-1.08,4.44.26l1.11.83,2.55-.16c2.57-.17,4.24,0,4.88.54.94.76,1.13,1.07,1,1.6a2.34,2.34,0,0,1-.41.87,1.15,1.15,0,0,0-.28.57,5.28,5.28,0,0,1-2,1.61A17.25,17.25,0,0,1,143.41,98.4Zm-3.54-14.14a3.66,3.66,0,0,1-2-1.34,3.4,3.4,0,0,0-.62-.87c-.55-.58-.59-.82-.28-1.52.41-.92,2.86-1.65,7.32-2.19a25.55,25.55,0,0,1,5.88.65c1,.53,1.27.91,1.28,1.83,0,1.25-.65,2.16-1.58,2.17a3.33,3.33,0,0,0-1.42.44C147.25,84.15,141.18,84.73,139.87,84.26Z"/><path d="M143.39,61.16A5.26,5.26,0,0,1,140.33,59c-1.1-1.35-1.21-1.63-1.47-4l-.29-2.58-1.44-.08c-1.76-.1-4.89-1.46-4.93-2.15a9.2,9.2,0,0,0-.9-1.73c-.87-1.41-.87-1.44-.41-2.45.26-.56.61-1,.77-1a4.58,4.58,0,0,0,1.27-1.31l1-1.29,2.73-.06,2.72-.07-.07-3.75c0-2.06-.08-3.78-.09-3.81s-.81,1-1.76,2.33c-1.71,2.33-7.62,8.67-8.12,8.7a4.06,4.06,0,0,0-1.11.85c-1.5,1.49-2.54,1.75-5.88,1.52-1.25-.09-1.71-.33-3-1.49-1.63-1.47-1.77-1.85-1.33-3.51s1.47-2.65,4.48-4.5c1.51-.93,3.71-2.45,4.87-3.37,2.44-1.93,7.32-6.94,8-8.22a9.45,9.45,0,0,1,1.1-1.6l.64-.73-4.2.07c-4.15.06-5.11-.08-8.05-1.21a6.5,6.5,0,0,1-3.41-2.88c-1.5-2.18-.74-4.22,1.88-5.11a29.46,29.46,0,0,1,10.24-2c2.39-.1,4.58-.13,4.85-.07.43.1.51-.23.54-2.22a42.08,42.08,0,0,1,.94-8.5,6,6,0,0,1,1.43-1.67c1.87-1.56,5-1.42,5.85.26.49.93.91,6.16.76,9.41-.06,1.33-.1,2.54-.1,2.69s1.91.15,8.18-.5a19.85,19.85,0,0,1,6.17.15c2.7.42,3.06.56,3.61,1.35a4.68,4.68,0,0,1,.69,2,4,4,0,0,0,.47,1.69c.35.48.29.69-.38,1.48-1.28,1.51-4.17,2.66-8.25,3.26a51.13,51.13,0,0,1-5.9.53h-2.33l1.65,2.81c1.86,3.21,5.14,6.72,7.06,7.58a49.08,49.08,0,0,0,6.81,2.63c5,1.49,6.13,2.59,5.12,5.07a3.52,3.52,0,0,1-3,2.42,1.34,1.34,0,0,0-.88.31,5.36,5.36,0,0,1-1.76.72c-3.82,1.11-9.21-.88-12.56-4.64a12.27,12.27,0,0,0-3.8-3.27,6.82,6.82,0,0,1-1.82-1.45.29.29,0,0,0-.32-.27c-.18,0-.22,1.35-.09,3.42l.21,3.4,2.49.05a26.75,26.75,0,0,1,4,.39c2,.45,2.71,1.55,2.64,4.26-.1,3.54-.41,3.76-6.57,4.7a10.27,10.27,0,0,0-2,.41,27.61,27.61,0,0,0-.28,5.82,3.92,3.92,0,0,1-1.88,3c-.88.52-1,.55-1.77.36Z"/><path d="M41.14,55.77a6,6,0,0,1-3.28-2.44,1.66,1.66,0,0,1-.31-1.57c.1-.38.29-1.24.4-1.9a40.85,40.85,0,0,1,3.21-8.14A62.68,62.68,0,0,0,44.35,34a18.2,18.2,0,0,1,.9-2.32,6.47,6.47,0,0,0,.48-1.56c.54-2.67,2.85-5.18,4.8-5.2a3.15,3.15,0,0,1,3.39,3.16,29.7,29.7,0,0,1-1.64,6.69c-.1.23-.37,1-.59,1.69a19.24,19.24,0,0,1-1.1,3c-.13.2.16.26,1.23.25a5.17,5.17,0,0,1,2,.28,5,5,0,0,0,1.13.42.92.92,0,0,1,.68.5,9.57,9.57,0,0,0,1.07,1.57A9.65,9.65,0,0,1,58,44.7c.19.57.43,1,.53,1a7.71,7.71,0,0,0,1.14-1.69c.58-1,1.11-1.69,1.31-1.69a1.43,1.43,0,0,0,.78-.56c.89-1.14,4-.86,4.72.41.41.75-.07,3-1,4.78a8.29,8.29,0,0,0-.79,1.75,19.36,19.36,0,0,1-4,3.73,9.12,9.12,0,0,1-1.79.17c-2.61.07-5.64-1.9-7.91-5.14-1.29-1.84-2.49-2.84-2.48-2.07a11.58,11.58,0,0,1-.72,1.81A12.82,12.82,0,0,0,47,49.06a3.4,3.4,0,0,1-.41.88,12.31,12.31,0,0,0-.72,1.26C45,52.92,42.49,56,42,55.94Z"/><path d="M88.54,55.17c-2.35-1.14-2.71-1.53-3.36-3.73-.15-.49-.35-.89-.45-.89-.27,0-.21-.51.13-1.18a2.88,2.88,0,0,0,.31-1,8,8,0,0,1,1.38-3.67,7,7,0,0,1,3.29-2.59A8.88,8.88,0,0,1,93.48,41a17.76,17.76,0,0,0,2.13-.34,15.26,15.26,0,0,0,.14-3c0-3.15.11-3.78,1-4.47a4.34,4.34,0,0,1,4.49.19c1.16,1.06,1.65,4.93.83,6.52-.56,1.1-.54,1.44.11,1.67a20.43,20.43,0,0,1,6.14,5.08,6.46,6.46,0,0,1,1.41,3.14,2.42,2.42,0,0,1-1.06,2.29c-.65.56-1.34.6-2.77.17A7.28,7.28,0,0,1,103,49.92a8.22,8.22,0,0,0-2.38-2.23,14.49,14.49,0,0,0-.66,2.15c-.55,2.1-1,3.32-1.37,3.32s-1.2,1-1,1.17,0,.11-.07,0-.55.07-.94.32A11.06,11.06,0,0,1,91.64,56,5.44,5.44,0,0,1,88.54,55.17Zm4.14-4.85a6.27,6.27,0,0,0,1.93-2.76,2.11,2.11,0,0,1,.41-.82,2,2,0,0,0,.41-1.06c0-.52,0-.52-1.41-.37-1.69.18-3.36,1-3.8,1.95-.51,1.05.33,4.08,1.13,4.07A4.71,4.71,0,0,0,92.68,50.32ZM78.82,45.45A4.31,4.31,0,0,1,77.1,41.3c.12-.48.36-1.53.54-2.34a20.17,20.17,0,0,1,.61-2.26l.3-.79-.75-.3a7.58,7.58,0,0,1-1.71-1.21l-1-.91.3-.72a3.66,3.66,0,0,1,.69-1.07,11.87,11.87,0,0,1,3.8-1.81c.87-.14.92-.2,1.69-1.75,1.12-2.29,2.26-3,3.68-2.28a3.78,3.78,0,0,1,1.64,2.87c0,.65,0,.81.35.8a5.36,5.36,0,0,1,3,1.32c.89.91,1.12,2.18.51,2.8a14.58,14.58,0,0,1-4.55,1.68c-1.14.2-1.71.6-1.84,1.3a67.47,67.47,0,0,1-2.1,7.25A2.65,2.65,0,0,1,78.82,45.45Zm26.89-10.28A24.26,24.26,0,0,1,101,31.52c-.93-1.1-1.33-2.52-.94-3.31l.43-.89a4,4,0,0,1,1-1.13c.72-.57.85-.6,2.48-.53,2.06.08,4.09.94,4.86,2.05.26.38.68.94.94,1.25a5.49,5.49,0,0,1,.75,2.41c.26,1.66.25,1.92-.06,2.58C109.7,35.62,107.77,36.1,105.71,35.17Z"/><path d="M13.78,56.27a15.44,15.44,0,0,1-8-3.06L3.94,51.74c-1.06-.86-1.27-1.36-.83-2a2.11,2.11,0,0,0,.32-1,1.49,1.49,0,0,1,1.06-1.31,14,14,0,0,1,4.3,1.11c3.5,1.81,7.16,2,9.67.52,1.66-1,4.42-1.08,5.47-.2a2.69,2.69,0,0,1,.61,2.83,5.21,5.21,0,0,1-2.38,2.66,19.67,19.67,0,0,1-7,2ZM17.4,34.72a3.41,3.41,0,0,0-1-.58,2.66,2.66,0,0,1-.84-.7,2.13,2.13,0,0,0-1.7-.81c-4.6-.47-6.44-.94-8.41-2.15-1.39-.86-2.65-2.14-2.65-2.7S5.16,24.87,6,24.69a13.52,13.52,0,0,1,4.12,0l2.42.62a18.08,18.08,0,0,1,2.95,1.05c.69.34,2.11.94,3.14,1.33,2.79,1,4.14,2.45,4.15,4.3,0,1.37-.78,2.33-2.39,2.89S18.37,35.43,17.4,34.72Z"/></g></g></svg>