<svg xmlns="http://www.w3.org/2000/svg" viewBox="0 0 55.55 11.87"><g id="レイヤー_2" data-name="レイヤー 2"><g id="レイヤー_1-2" data-name="レイヤー 1"><path d="M54.41.81A.81.81,0,0,0,54,1a.67.67,0,0,0-.26.63c0,.41,0,.48.26.7s.53.3.83.17a.94.94,0,0,0,.6-.73c.07-.27,0-.34-.23-.56a1.49,1.49,0,0,0-.48-.29A.61.61,0,0,0,54.41.81ZM15.47,0a1.26,1.26,0,0,0-.33.16c-.6.34-.64.63-.71,5.57-.06,2.63.07,4.18.33,4.51s1.31.29,1.31,0a.53.53,0,0,1,.12-.36,12.87,12.87,0,0,0,0-2.55c0-.2,0-1.46.05-2.8.05-2.92-.08-3.81-.53-4.23A2.5,2.5,0,0,1,15.51,0Zm25.2,1a2.39,2.39,0,0,0-.68.06A3.07,3.07,0,0,0,38.8,2c-.11.16-.19.17-.71.13a1.35,1.35,0,0,0-1.09.2,3.65,3.65,0,0,0-.94.92,2,2,0,0,0-.37,2.23,5.33,5.33,0,0,0,.29.58c.2,0,.16.46-.06.86a2.25,2.25,0,0,0-.19,1.63,2.54,2.54,0,0,0,.82.91,1.13,1.13,0,0,1,.38.17,2.23,2.23,0,0,0,1,.19,1.74,1.74,0,0,1,.75.1c0,.05,0,.08.11.08a1.63,1.63,0,0,1,.45.28c.52.39,1.72.68,1.9.48a1,1,0,0,1,.45-.06A2.23,2.23,0,0,0,43.17,10a.84.84,0,0,1,.87-.3,1.34,1.34,0,0,0,.79-.09,4,4,0,0,0,1.19-1c-.05,0,0-.1.08-.13s.15-.2.15-.73,0-.71-.23-1l-.26-.27.3-.55a2,2,0,0,0-.22-2.47,1.78,1.78,0,0,0-.46-.41A.87.87,0,0,1,45.05,3a2.34,2.34,0,0,0-.82-.25,1.08,1.08,0,0,1-.94-.53,2.94,2.94,0,0,0-1.42-1,4.69,4.69,0,0,0-1-.15h-.22Zm.45,1.2c.29,0,.48.14.78.47l.64.79c.11.19.26.35.34.35a.72.72,0,0,1,.26.17c.11.11.19.12.26.06A2.3,2.3,0,0,1,44.19,4c.67.05.71.05.94.37s.25.36.22.91-.12.63-.38.82a2,2,0,0,0-.37.47c-.11.23-.11.27.15.42.53.32.53.74,0,1.33s-.75.59-1.65.5-.75-.07-1,.19a3.09,3.09,0,0,1-1.42.69,1.46,1.46,0,0,1-1.09-.55c-.22-.35-.41-.38-1.16-.27-.45.06-.68-.05-1.16-.45A.62.62,0,0,1,37,7.9a1.8,1.8,0,0,1,.33-1.07c.15-.09-.07-.88-.41-1.45s-.45-1.24-.08-1.59c.12-.12.24-.25.24-.31s.25-.19.82-.13c1.57.16,1.46.17,1.57-.13a1.69,1.69,0,0,1,1.61-1Zm9.4,1.25a2.92,2.92,0,0,0-.72.06,2.78,2.78,0,0,0-1.45,1.1,4.46,4.46,0,0,0-.42,2.27c0,.5,0,1.27,0,1.68l-.05.76.3.13c.34.16.45.13.68-.16a6.08,6.08,0,0,0,.25-1.87c.12-2,.19-2.2.83-2.44.41-.18.56-.17,1.38,0s1,.05.9-.57a.62.62,0,0,0-.3-.48,2.5,2.5,0,0,1-.45-.33,1.85,1.85,0,0,0-.93-.19Zm4.19.63a.79.79,0,0,0-.6.43C54,4.77,54,5,54,6.59a18.16,18.16,0,0,0,.23,2.89c.06.08.19.24.3.36.38.27.56.18.82-.37a1.2,1.2,0,0,0,.19-.89c0-.26-.05-1-.07-1.69-.06-1.69-.15-2.15-.53-2.65A.32.32,0,0,0,54.71,4.11ZM19.59,3.54a1.72,1.72,0,0,0-.9.29,10.71,10.71,0,0,0-2.21,2.4c-.18.37-.18.95-.05,1s.12.13.19.28A2.66,2.66,0,0,0,17,8c.48.47,1.76,1.61,2.14,1.93A.66.66,0,0,0,20,9.84c.42-.35.3-.59-.9-1.83s-1.19-1.31-.74-1.95a7.88,7.88,0,0,1,1.57-1.43c.07,0,.15-.13.15-.2s0-.13.07-.13c.19,0,.19-.37,0-.55a.73.73,0,0,0-.56-.21Zm3.07.5h-.11c-.33,0-.49.35-.6,1.14A15.29,15.29,0,0,0,22,8.51a2,2,0,0,0,1.64,1.74c.45.06.52.05,1.16-.25a4.77,4.77,0,0,0,1-.55A2.9,2.9,0,0,0,26.42,8a.67.67,0,0,1,.12-.36,10.79,10.79,0,0,0,.18-1.2c.11-1.28.05-2-.3-2.17s-.26-.16-.59.12a1,1,0,0,0-.31.47c-.18,2.87-.22,3-.59,3.28A.93.93,0,0,1,23.39,8c-.22-.29-.22-.76-.08-2.12.11-1.15-.11-1.76-.63-1.79Zm7,.25a.8.8,0,0,0-.56.17l-.29.33a4,4,0,0,0-.68,1.5,14.22,14.22,0,0,0-.07,3.41.4.4,0,0,0,.26.2c.7,0,.86-.31,1-2.25.11-1.75.18-2.08.37-2.26s.15-.12.34.06a3.64,3.64,0,0,1,.3.41,7.34,7.34,0,0,1,.22,2.33c-.05.79.08,1.34.27,1.36a.91.91,0,0,0,.6-.06,7.29,7.29,0,0,0,.18-1.26,3.49,3.49,0,0,1,.23-1.41,4.36,4.36,0,0,0,.22-.6c0-.34.12-.4.38-.46.41-.1.45-.08.63.37s.19.47.19,1.91a11,11,0,0,0,.08,1.51,1,1,0,0,0,.74.38.39.39,0,0,0,.31-.24,12.48,12.48,0,0,0,0-3.21,3,3,0,0,0-.87-1.8c-.18-.1-.29-.16-.29-.13s-.08,0-.15,0a1.08,1.08,0,0,0-.42-.1,1.57,1.57,0,0,0-1.2.49c-.14.23-.29.23-.56,0a2,2,0,0,0-1.24-.57ZM39,4.91a.54.54,0,0,0-.41.19c-.19.18-.22.26-.15.48a1.11,1.11,0,0,0,.3.4c.18.12.26.11.49-.05s.45-.59.37-.73a1.1,1.1,0,0,0-.27-.2A.47.47,0,0,0,39,4.88Zm3.52.4a.73.73,0,0,0-.33.16.55.55,0,0,0,.29,1c.23,0,.3-.05.38-.27a.67.67,0,0,0-.11-.83.32.32,0,0,0-.19-.07h0Z"/><path d="M6.33,1.06a6.43,6.43,0,0,1,3.94,2.19c1,1.11,1.1,1.27,1,2.68C11.18,7.84,11,8.4,10.17,9.48c-1.88,2.46-3.48,2.94-6.12,1.8A6.63,6.63,0,0,1,.59,8.68c-.8-1.19-.79-2,0-4.1C1.8,1.69,3.76.48,6.33,1.06ZM3.27,2.76a4.79,4.79,0,0,0-2,3.64c-.1,1.31.69,2.51,2.35,3.66A3.28,3.28,0,0,0,6,10.83c1.33-.13,1.47-.24,2.53-1.94a4.56,4.56,0,0,0,.78-3.1c-.06-1.61-.15-1.8-1-2.55A4.13,4.13,0,0,0,3.27,2.76Zm2.51,1c1.56.79,1,2-.57,1.28-.55-.26-.83-.27-1.11,0a1.83,1.83,0,0,0,.33,2.27c.43.42.61.43,1.5,0,1.3-.57,1.33-.57,1.79,0,.32.42.27.59-.33,1-1.4,1-3.84.74-4.55-.56-.58-1.05-.41-2.14.51-3.4S4.53,3.12,5.78,3.77Z"/></g></g></svg>